<svg width="43" height="43" viewBox="0 0 43 43" fill="none" xmlns="http://www.w3.org/2000/svg">
<path d="M13.5792 40.5983L16.1948 41.2992C18.8151 42.0013 21.3712 41.5522 23.6543 40.0025L24.1896 42L26.8053 41.2992C29.4256 40.5971 31.4146 38.9303 32.617 36.4465L34.0792 37.9087L35.994 35.994C37.9123 34.0757 38.8013 31.6376 38.6009 28.8856L40.5983 29.4208L41.2992 26.8052C42.0013 24.1849 41.5522 21.6288 40.0025 19.3457L42 18.8105L41.2992 16.1948C40.4632 13.075 38.4422 11.3427 36.4485 10.3811L37.9087 8.92085L35.9941 7.00609C34.8553 5.86752 33.5179 5.08661 32.0188 4.68491C31.0209 4.41756 29.9726 4.3222 28.8858 4.39882L29.4209 2.40184L26.8053 1.701C24.1849 0.998879 21.6289 1.44798 19.3458 2.99763L18.8104 1L16.1947 1.70084C13.5744 2.40288 11.5854 4.06974 10.383 6.55347L8.92077 5.09134L7.00601 7.00601C5.08773 8.92429 4.19865 11.3624 4.39914 14.1144L2.40168 13.5792L1.70084 16.1948C0.998718 18.8151 1.44782 21.3712 2.99747 23.6543L1 24.1896L1.70084 26.8053C2.53675 29.9249 4.55768 31.6572 6.55146 32.6189L5.09134 34.0792L7.00601 35.994C8.14458 37.1326 9.48213 37.9135 10.9813 38.3152C11.9791 38.5825 13.0275 38.6779 14.1142 38.6013L13.5792 40.5983ZM24.971 35.636L23.5054 37.0397C23.3705 37.1688 23.2311 37.2949 23.091 37.4144C21.1695 39.0532 19.0584 39.5797 16.8165 38.979L16.521 38.8998L17.4372 35.4805L15.4669 35.9623C14.0837 36.3005 12.7837 36.3115 11.603 35.9951C10.5162 35.7039 9.54098 35.132 8.70434 34.2956L8.48808 34.0793L10.9935 31.5737L9.04447 31.0065C6.3593 30.2254 4.66914 28.6026 4.02098 26.1836L3.94179 25.8882L7.36392 24.9711L5.96024 23.5056C5.83109 23.3706 5.70498 23.2312 5.58552 23.0912C3.94668 21.1696 3.42023 19.0586 4.0209 16.8166L4.10009 16.5212L7.52157 17.438L7.03948 15.4674C6.99496 15.2855 6.95541 15.1016 6.92202 14.9208C6.46355 12.4375 7.06318 10.3459 8.70434 8.70458L8.92061 8.48832L11.426 10.9936L11.9932 9.04496C12.0454 8.86608 12.103 8.68721 12.1647 8.5133C13.0093 6.13335 14.5743 4.6219 16.8162 4.02114L17.1117 3.94195L18.0287 7.36408L19.4943 5.9604C19.6292 5.83125 19.7686 5.70514 19.9086 5.58568C21.8302 3.94684 23.9413 3.42039 26.1832 4.02106L26.4787 4.10025L25.5624 7.51957L27.5328 7.0378C28.9159 6.69959 30.2159 6.68862 31.3967 7.00497C32.4834 7.29618 33.4586 7.86795 34.2953 8.70458L34.5115 8.92077L32.0059 11.4266L33.9553 11.9935C36.6404 12.7743 38.3305 14.397 38.9788 16.8164L39.058 17.1119L35.6358 18.0289L37.0395 19.4944C37.1687 19.6294 37.2948 19.7688 37.4142 19.9088C39.0531 21.8304 39.5795 23.9414 38.9789 26.1834L38.8997 26.4788L35.4782 25.562L35.9603 27.5326C36.0048 27.7145 36.0444 27.8984 36.0777 28.0792C36.5362 30.5625 35.9366 32.6541 34.2954 34.2954L34.0792 34.5117L31.5737 32.0064L31.0065 33.955C30.9544 34.1339 30.8968 34.3128 30.8351 34.4867C29.9905 36.8667 28.4254 38.3781 26.1835 38.9789L25.8881 39.058L24.971 35.636Z" fill="#57AB27"/>
<path d="M19.2561 29.8744C23.8738 31.1117 28.6371 28.3616 29.8744 23.7439C31.1117 19.1262 28.3616 14.3629 23.7439 13.1256C19.1262 11.8883 14.3629 14.6384 13.1256 19.2561C11.8883 23.8738 14.6384 28.6371 19.2561 29.8744ZM23.1222 15.4458C26.4605 16.3403 28.4487 19.7839 27.5542 23.1222C26.6597 26.4605 23.2161 28.4487 19.8778 27.5542C16.5395 26.6598 14.5513 23.2161 15.4458 19.8778C16.3402 16.5395 19.7839 14.5513 23.1222 15.4458Z" fill="#57AB27"/>
<path d="M20.4995 25.234C22.5584 25.7857 24.6823 24.5595 25.234 22.5005C25.7857 20.4416 24.5595 18.3177 22.5005 17.766C20.4416 17.2143 18.3177 18.4405 17.766 20.4995C17.2143 22.5584 18.4405 24.6823 20.4995 25.234ZM21.8788 20.0862C22.6584 20.2951 23.1227 21.0993 22.9138 21.8789C22.7049 22.6585 21.9007 23.1227 21.1211 22.9138C20.3415 22.705 19.8773 21.9008 20.0862 21.1212C20.295 20.3416 21.0992 19.8773 21.8788 20.0862Z" fill="#57AB27"/>
<path d="M13.5792 40.5983L16.1948 41.2992C18.8151 42.0013 21.3712 41.5522 23.6543 40.0025L24.1896 42L26.8053 41.2992C29.4256 40.5971 31.4146 38.9303 32.617 36.4465L34.0792 37.9087L35.994 35.994C37.9123 34.0757 38.8013 31.6376 38.6009 28.8856L40.5983 29.4208L41.2992 26.8052C42.0013 24.1849 41.5522 21.6288 40.0025 19.3457L42 18.8105L41.2992 16.1948C40.4632 13.075 38.4422 11.3427 36.4485 10.3811L37.9087 8.92085L35.9941 7.00609C34.8553 5.86752 33.5179 5.08661 32.0188 4.68491C31.0209 4.41756 29.9726 4.3222 28.8858 4.39882L29.4209 2.40184L26.8053 1.701C24.1849 0.998879 21.6289 1.44798 19.3458 2.99763L18.8104 1L16.1947 1.70084C13.5744 2.40288 11.5854 4.06974 10.383 6.55347L8.92077 5.09134L7.00601 7.00601C5.08773 8.92429 4.19865 11.3624 4.39914 14.1144L2.40168 13.5792L1.70084 16.1948C0.998718 18.8151 1.44782 21.3712 2.99747 23.6543L1 24.1896L1.70084 26.8053C2.53675 29.9249 4.55768 31.6572 6.55146 32.6189L5.09134 34.0792L7.00601 35.994C8.14458 37.1326 9.48213 37.9135 10.9813 38.3152C11.9791 38.5825 13.0275 38.6779 14.1142 38.6013L13.5792 40.5983ZM24.971 35.636L23.5054 37.0397C23.3705 37.1688 23.2311 37.2949 23.091 37.4144C21.1695 39.0532 19.0584 39.5797 16.8165 38.979L16.521 38.8998L17.4372 35.4805L15.4669 35.9623C14.0837 36.3005 12.7837 36.3115 11.603 35.9951C10.5162 35.7039 9.54098 35.132 8.70434 34.2956L8.48808 34.0793L10.9935 31.5737L9.04447 31.0065C6.3593 30.2254 4.66914 28.6026 4.02098 26.1836L3.94179 25.8882L7.36392 24.9711L5.96024 23.5056C5.83109 23.3706 5.70498 23.2312 5.58552 23.0912C3.94668 21.1696 3.42023 19.0586 4.0209 16.8166L4.10009 16.5212L7.52157 17.438L7.03948 15.4674C6.99496 15.2855 6.95541 15.1016 6.92202 14.9208C6.46355 12.4375 7.06318 10.3459 8.70434 8.70458L8.92061 8.48832L11.426 10.9936L11.9932 9.04496C12.0454 8.86608 12.103 8.68721 12.1647 8.5133C13.0093 6.13335 14.5743 4.6219 16.8162 4.02114L17.1117 3.94195L18.0287 7.36408L19.4943 5.9604C19.6292 5.83125 19.7686 5.70514 19.9086 5.58568C21.8302 3.94684 23.9413 3.42039 26.1832 4.02106L26.4787 4.10025L25.5624 7.51957L27.5328 7.0378C28.9159 6.69959 30.2159 6.68862 31.3967 7.00497C32.4834 7.29618 33.4586 7.86795 34.2953 8.70458L34.5115 8.92077L32.0059 11.4266L33.9553 11.9935C36.6404 12.7743 38.3305 14.397 38.9788 16.8164L39.058 17.1119L35.6358 18.0289L37.0395 19.4944C37.1687 19.6294 37.2948 19.7688 37.4142 19.9088C39.0531 21.8304 39.5795 23.9414 38.9789 26.1834L38.8997 26.4788L35.4782 25.562L35.9603 27.5326C36.0048 27.7145 36.0444 27.8984 36.0777 28.0792C36.5362 30.5625 35.9366 32.6541 34.2954 34.2954L34.0792 34.5117L31.5737 32.0064L31.0065 33.955C30.9544 34.1339 30.8968 34.3128 30.8351 34.4867C29.9905 36.8667 28.4254 38.3781 26.1835 38.9789L25.8881 39.058L24.971 35.636Z" stroke="#57AB27" stroke-width="0.3"/>
<path d="M19.2561 29.8744C23.8738 31.1117 28.6371 28.3616 29.8744 23.7439C31.1117 19.1262 28.3616 14.3629 23.7439 13.1256C19.1262 11.8883 14.3629 14.6384 13.1256 19.2561C11.8883 23.8738 14.6384 28.6371 19.2561 29.8744ZM23.1222 15.4458C26.4605 16.3403 28.4487 19.7839 27.5542 23.1222C26.6597 26.4605 23.2161 28.4487 19.8778 27.5542C16.5395 26.6598 14.5513 23.2161 15.4458 19.8778C16.3402 16.5395 19.7839 14.5513 23.1222 15.4458Z" stroke="#57AB27" stroke-width="0.3"/>
<path d="M20.4995 25.234C22.5584 25.7857 24.6823 24.5595 25.234 22.5005C25.7857 20.4416 24.5595 18.3177 22.5005 17.766C20.4416 17.2143 18.3177 18.4405 17.766 20.4995C17.2143 22.5584 18.4405 24.6823 20.4995 25.234ZM21.8788 20.0862C22.6584 20.2951 23.1227 21.0993 22.9138 21.8789C22.7049 22.6585 21.9007 23.1227 21.1211 22.9138C20.3415 22.705 19.8773 21.9008 20.0862 21.1212C20.295 20.3416 21.0992 19.8773 21.8788 20.0862Z" stroke="#57AB27" stroke-width="0.3"/>
</svg>
