<svg width="16" height="21" viewBox="0 0 16 21" fill="none" xmlns="http://www.w3.org/2000/svg">
<path d="M13.744 4.30351C12.4229 2.20424 10.3292 1 8.0002 1C5.67116 1 3.57749 2.20424 2.25644 4.30351C0.941873 6.39218 0.638335 9.03648 1.44286 11.3727C1.65805 12.0107 2.00012 12.6305 2.45713 13.2114L7.53957 19.7661C7.65452 19.9145 7.82293 20 8.0002 20C8.17747 20 8.34589 19.9145 8.46083 19.7661L13.5419 13.2131C14.0009 12.629 14.3425 12.0098 14.5559 11.3769C15.3621 9.03648 15.0585 6.39218 13.744 4.30351ZM13.4229 10.9117C13.2583 11.3999 12.9897 11.8827 12.6248 12.347C12.6238 12.3482 12.6228 12.3493 12.622 12.3506L8.0002 18.311L3.37558 12.3469C3.01094 11.8829 2.74228 11.4002 2.5761 10.9072C1.91075 8.97514 2.16326 6.7888 3.25175 5.0591C4.34365 3.32386 6.07451 2.32866 8.0002 2.32866C9.92587 2.32866 11.6565 3.32383 12.7485 5.0591C13.8371 6.7888 14.0899 8.97514 13.4229 10.9117Z" fill="white"/>
<path d="M8.0002 4.94172C6.132 4.94172 4.61191 6.61053 4.61191 8.66201C4.61191 10.7135 6.13179 12.3823 8.0002 12.3823C9.86861 12.3823 11.3885 10.7135 11.3885 8.66201C11.3885 6.61075 9.86841 4.94172 8.0002 4.94172ZM8.0002 11.0536C6.79917 11.0536 5.822 9.98069 5.822 8.66197C5.822 7.34325 6.79917 6.27035 8.0002 6.27035C9.20124 6.27035 10.1784 7.34325 10.1784 8.66197C10.1784 9.98069 9.20124 11.0536 8.0002 11.0536Z" fill="white"/>
<path d="M13.744 4.30351C12.4229 2.20424 10.3292 1 8.0002 1C5.67116 1 3.57749 2.20424 2.25644 4.30351C0.941873 6.39218 0.638335 9.03648 1.44286 11.3727C1.65805 12.0107 2.00012 12.6305 2.45713 13.2114L7.53957 19.7661C7.65452 19.9145 7.82293 20 8.0002 20C8.17747 20 8.34589 19.9145 8.46083 19.7661L13.5419 13.2131C14.0009 12.629 14.3425 12.0098 14.5559 11.3769C15.3621 9.03648 15.0585 6.39218 13.744 4.30351ZM13.4229 10.9117C13.2583 11.3999 12.9897 11.8827 12.6248 12.347C12.6238 12.3482 12.6228 12.3493 12.622 12.3506L8.0002 18.311L3.37558 12.3469C3.01094 11.8829 2.74228 11.4002 2.5761 10.9072C1.91075 8.97514 2.16326 6.7888 3.25175 5.0591C4.34365 3.32386 6.07451 2.32866 8.0002 2.32866C9.92587 2.32866 11.6565 3.32383 12.7485 5.0591C13.8371 6.7888 14.0899 8.97514 13.4229 10.9117Z" stroke="white" stroke-width="0.3"/>
<path d="M8.0002 4.94172C6.132 4.94172 4.61191 6.61053 4.61191 8.66201C4.61191 10.7135 6.13179 12.3823 8.0002 12.3823C9.86861 12.3823 11.3885 10.7135 11.3885 8.66201C11.3885 6.61075 9.86841 4.94172 8.0002 4.94172ZM8.0002 11.0536C6.79917 11.0536 5.822 9.98069 5.822 8.66197C5.822 7.34325 6.79917 6.27035 8.0002 6.27035C9.20124 6.27035 10.1784 7.34325 10.1784 8.66197C10.1784 9.98069 9.20124 11.0536 8.0002 11.0536Z" stroke="white" stroke-width="0.3"/>
</svg>
