<svg width="40" height="37" viewBox="0 0 40 37" fill="none" xmlns="http://www.w3.org/2000/svg">
<path d="M39 11.9884C39 9.52006 37.005 7.51163 34.5532 7.51163H34.1489V5.47674C34.1489 3.00843 32.1539 1 29.7021 1H5.44681C2.995 1 1 3.00843 1 5.47674V31.5233C1 33.9916 2.995 36 5.44681 36H34.5532C37.005 36 39 33.9916 39 31.5233V11.9884ZM5.44681 3.44186H29.7021C30.8169 3.44186 31.7234 4.35451 31.7234 5.47674V7.51163H5.44681C4.33207 7.51163 3.42553 6.59898 3.42553 5.47674C3.42553 4.35451 4.33207 3.44186 5.44681 3.44186ZM36.5745 24.6047H31.7477L32.0205 24.0237C32.3601 23.3023 32.5319 22.5392 32.5319 21.7558C32.5319 20.9734 32.3591 20.2103 32.0175 19.489L31.7426 18.907H36.5745V24.6047ZM36.5745 16.4651H27.2766C24.3791 16.4651 22.0213 18.8388 22.0213 21.7558C22.0213 24.6728 24.3791 27.0465 27.2766 27.0465H36.5745V31.5233C36.5745 32.6455 35.6679 33.5581 34.5532 33.5581H5.44681C4.33207 33.5581 3.42553 32.6455 3.42553 31.5233V9.50581L3.96521 9.69811C4.44021 9.86701 4.93947 9.95349 5.44681 9.95349H34.5532C35.6679 9.95349 36.5745 10.8661 36.5745 11.9884V16.4651ZM30.1064 21.7558C30.1064 22.5169 29.8153 23.2301 29.2878 23.7663C28.7451 24.3076 28.0315 24.6047 27.2766 24.6047C25.7162 24.6047 24.4468 23.3267 24.4468 21.7558C24.4468 20.1849 25.7162 18.907 27.2766 18.907C28.837 18.907 30.1064 20.1849 30.1064 21.7558Z" fill="#57AB27" stroke="#57AB27" stroke-width="0.2"/>
</svg>
