<svg width="92" height="11" viewBox="0 0 92 11" fill="none" xmlns="http://www.w3.org/2000/svg">
<path d="M3.18368 10.7994V2.62272H0V0H9.30845V2.62272H6.1248V10.7994H3.18368Z" fill="white"/>
<path d="M10.5995 10.7994V0H15.6175C17.1639 0 18.3161 0.385694 19.0741 1.15708C19.7007 1.79476 20.014 2.64844 20.014 3.7181C20.014 5.302 19.2864 6.40765 17.8309 7.03505L20.3627 10.7994H16.9668L14.8292 7.52875H13.5406V10.7994H10.5995ZM13.5406 5.18375H15.4811C15.9763 5.18375 16.3604 5.0706 16.6333 4.84432C16.9163 4.60776 17.0578 4.28378 17.0578 3.87237C17.0578 3.45068 16.9163 3.13184 16.6333 2.91585C16.3604 2.69986 15.9713 2.59187 15.466 2.59187H13.5406V5.18375Z" fill="white"/>
<path d="M26.2715 11C24.715 11 23.5072 10.5886 22.6481 9.7658C21.789 8.94295 21.3595 7.70875 21.3595 6.0631V0H24.3461V6.0014C24.3461 6.7625 24.518 7.3385 24.8615 7.7293C25.2153 8.10985 25.6954 8.30015 26.3018 8.30015C26.9082 8.30015 27.3833 8.115 27.7269 7.74475C28.0806 7.37445 28.2575 6.81905 28.2575 6.07855V0H31.244V5.986C31.244 7.67275 30.8044 8.9327 29.9251 9.7658C29.056 10.5886 27.8381 11 26.2715 11Z" fill="white"/>
<path d="M32.9846 10.7994V0H41.52V2.54558H35.8955V4.18092H40.9893V6.54135H35.8955V8.25385H41.5957V10.7994H32.9846Z" fill="white"/>
<path d="M46.9787 10.8177V0.18232H54.64V1.29144H48.182V5.0898H53.9545V6.1837H48.182V10.8177H46.9787Z" fill="white"/>
<path d="M65.616 9.3895C64.5905 10.4632 63.2855 11 61.7015 11C60.1175 11 58.8175 10.4632 57.802 9.3895C56.787 8.31585 56.279 7.01935 56.279 5.5C56.279 3.99079 56.792 2.69936 57.8175 1.62569C58.843 0.541895 60.148 0 61.732 0C63.316 0 64.6155 0.53683 65.631 1.61049C66.6465 2.68416 67.1545 3.98066 67.1545 5.5C67.1545 7.0092 66.6415 8.3057 65.616 9.3895ZM58.716 8.61465C59.5185 9.46545 60.5235 9.8909 61.732 9.8909C62.94 9.8909 63.9355 9.47055 64.717 8.62985C65.5095 7.779 65.9055 6.73575 65.9055 5.5C65.9055 4.2744 65.504 3.23619 64.702 2.38536C63.91 1.53453 62.91 1.10912 61.7015 1.10912C60.493 1.10912 59.493 1.53453 58.701 2.38536C57.919 3.22606 57.528 4.26427 57.528 5.5C57.528 6.7256 57.924 7.7638 58.716 8.61465Z" fill="white"/>
<path d="M78.5565 9.3895C77.531 10.4632 76.226 11 74.642 11C73.058 11 71.7585 10.4632 70.743 9.3895C69.7275 8.31585 69.22 7.01935 69.22 5.5C69.22 3.99079 69.7325 2.69936 70.758 1.62569C71.7835 0.541895 73.0885 0 74.6725 0C76.2565 0 77.5565 0.53683 78.572 1.61049C79.5875 2.68416 80.095 3.98066 80.095 5.5C80.095 7.0092 79.582 8.3057 78.5565 9.3895ZM71.657 8.61465C72.459 9.46545 73.4645 9.8909 74.6725 9.8909C75.881 9.8909 76.876 9.47055 77.658 8.62985C78.45 7.779 78.846 6.73575 78.846 5.5C78.846 4.2744 78.445 3.23619 77.6425 2.38536C76.8505 1.53453 75.8505 1.10912 74.642 1.10912C73.434 1.10912 72.4335 1.53453 71.6415 2.38536C70.8595 3.22606 70.469 4.26427 70.469 5.5C70.469 6.7256 70.865 7.7638 71.657 8.61465Z" fill="white"/>
<path d="M82.6325 10.8177V0.18232H86.334C87.999 0.18232 89.36 0.688765 90.416 1.70166C91.472 2.70442 92 3.97054 92 5.5C92 7.01935 91.467 8.28545 90.4005 9.29835C89.3445 10.3113 87.989 10.8177 86.334 10.8177H82.6325ZM83.836 9.70855H86.334C87.664 9.70855 88.7305 9.31355 89.5325 8.5235C90.345 7.7233 90.751 6.71545 90.751 5.5C90.751 4.29466 90.345 3.2919 89.5325 2.49171C88.72 1.69153 87.654 1.29144 86.334 1.29144H83.836V9.70855Z" fill="white"/>
</svg>
