<svg width="17" height="14" viewBox="0 0 17 14" fill="none" xmlns="http://www.w3.org/2000/svg">
<path d="M14.2422 1H2.75781C1.78855 1 1 1.77642 1 2.73077V4.15851L7.45091 8.88296C7.76465 9.11272 8.13232 9.22762 8.5 9.22762C8.86768 9.22762 9.23535 9.11275 9.54909 8.88296L16 4.15851V2.73077C16 1.77642 15.2114 1 14.2422 1ZM14.8281 3.57873L8.84972 7.95712C8.64054 8.11032 8.35946 8.11032 8.15031 7.95712L2.17188 3.57873V2.73077C2.17188 2.41265 2.43473 2.15385 2.75781 2.15385H14.2422C14.5653 2.15385 14.8281 2.41265 14.8281 2.73077V3.57873ZM14.8281 6.45478L16 5.59655V11.2692C16 12.2236 15.2114 13 14.2422 13H2.75781C1.78855 13 1 12.2236 1 11.2692V5.59655L2.17188 6.45478V11.2692C2.17188 11.5873 2.43473 11.8462 2.75781 11.8462H14.2422C14.5653 11.8462 14.8281 11.5873 14.8281 11.2692V6.45478Z" fill="#57AB27" stroke="#57AB27" stroke-width="0.4"/>
</svg>
