<svg width="17" height="21" viewBox="0 0 17 21" fill="none" xmlns="http://www.w3.org/2000/svg">
<path d="M14.6543 4.30351C13.2388 2.20424 10.9956 1 8.50022 1C6.00482 1 3.7616 2.20424 2.34618 4.30351C0.937721 6.39218 0.612502 9.03648 1.47449 11.3727C1.70505 12.0107 2.07155 12.6305 2.56121 13.2114L8.00669 19.7661C8.12984 19.9145 8.31029 20 8.50022 20C8.69015 20 8.87059 19.9145 8.99375 19.7661L14.4377 13.2131C14.9295 12.629 15.2956 12.0098 15.5242 11.3769C16.3879 9.03648 16.0627 6.39218 14.6543 4.30351ZM14.3102 10.9117C14.1339 11.3999 13.8461 11.8827 13.4552 12.347C13.4541 12.3482 13.453 12.3493 13.4521 12.3506L8.50022 18.311L3.54527 12.3469C3.15458 11.8829 2.86673 11.4002 2.68868 10.9072C1.97581 8.97514 2.24635 6.7888 3.41259 5.0591C4.58249 3.32386 6.43697 2.32866 8.50022 2.32866C10.5634 2.32866 12.4177 3.32383 13.5876 5.0591C14.7541 6.7888 15.0248 8.97514 14.3102 10.9117Z" fill="#57AB27"/>
<path d="M8.50022 4.94172C6.49857 4.94172 4.8699 6.61053 4.8699 8.66201C4.8699 10.7135 6.49835 12.3823 8.50022 12.3823C10.5021 12.3823 12.1305 10.7135 12.1305 8.66201C12.1305 6.61075 10.5019 4.94172 8.50022 4.94172ZM8.50022 11.0536C7.21339 11.0536 6.16643 9.98069 6.16643 8.66197C6.16643 7.34325 7.21339 6.27035 8.50022 6.27035C9.78705 6.27035 10.834 7.34325 10.834 8.66197C10.834 9.98069 9.78705 11.0536 8.50022 11.0536Z" fill="#57AB27"/>
<path d="M14.6543 4.30351C13.2388 2.20424 10.9956 1 8.50022 1C6.00482 1 3.7616 2.20424 2.34618 4.30351C0.937721 6.39218 0.612502 9.03648 1.47449 11.3727C1.70505 12.0107 2.07155 12.6305 2.56121 13.2114L8.00669 19.7661C8.12984 19.9145 8.31029 20 8.50022 20C8.69015 20 8.87059 19.9145 8.99375 19.7661L14.4377 13.2131C14.9295 12.629 15.2956 12.0098 15.5242 11.3769C16.3879 9.03648 16.0627 6.39218 14.6543 4.30351ZM14.3102 10.9117C14.1339 11.3999 13.8461 11.8827 13.4552 12.347C13.4541 12.3482 13.453 12.3493 13.4521 12.3506L8.50022 18.311L3.54527 12.3469C3.15458 11.8829 2.86673 11.4002 2.68868 10.9072C1.97581 8.97514 2.24635 6.7888 3.41259 5.0591C4.58249 3.32386 6.43697 2.32866 8.50022 2.32866C10.5634 2.32866 12.4177 3.32383 13.5876 5.0591C14.7541 6.7888 15.0248 8.97514 14.3102 10.9117Z" stroke="#57AB27" stroke-width="0.3"/>
<path d="M8.50022 4.94172C6.49857 4.94172 4.8699 6.61053 4.8699 8.66201C4.8699 10.7135 6.49835 12.3823 8.50022 12.3823C10.5021 12.3823 12.1305 10.7135 12.1305 8.66201C12.1305 6.61075 10.5019 4.94172 8.50022 4.94172ZM8.50022 11.0536C7.21339 11.0536 6.16643 9.98069 6.16643 8.66197C6.16643 7.34325 7.21339 6.27035 8.50022 6.27035C9.78705 6.27035 10.834 7.34325 10.834 8.66197C10.834 9.98069 9.78705 11.0536 8.50022 11.0536Z" stroke="#57AB27" stroke-width="0.3"/>
</svg>
