<svg width="41" height="41" viewBox="0 0 41 41" fill="none" xmlns="http://www.w3.org/2000/svg">
<path d="M0.148908 39.3436C0.148908 40.1753 0.824748 40.8511 1.65636 40.8511H39.3426C40.1742 40.8511 40.8501 40.1753 40.8501 39.3436V1.65739C40.8501 1.25415 40.693 0.876027 40.4091 0.590867C40.124 0.306964 39.7459 0.149938 39.3426 0.149938L20.5347 0.151194C20.5208 0.151194 20.5095 0.151194 20.4995 0.149938C20.4882 0.151194 20.4781 0.151194 20.4681 0.151194L1.65636 0.152451C0.824748 0.152451 0.148908 0.828291 0.148908 1.6599V39.3436ZM37.8352 37.8362H22.0069V28.289H37.8352V37.8362ZM37.8352 25.2729H30.8004V15.7244H37.8352V25.2729ZM22.0069 3.16609L37.8352 3.16484V12.7095H22.0069V3.16609ZM27.7855 15.7257V25.2729H13.2135V15.7257H27.7855ZM3.16381 3.16735L18.992 3.16609V12.7095H3.16381V3.16735ZM3.16381 15.7244H10.1986V25.2729H3.16381V15.7244ZM3.16381 28.2878H18.992V37.8349H3.16381V28.2878Z" fill="#57AB27"/>
<path fill-rule="evenodd" clip-rule="evenodd" d="M20.5005 0L20.517 0.00207288L20.5197 0.002184L20.5346 0.00228668L39.3426 0.00103046C39.7854 0.00103046 40.2013 0.173783 40.5142 0.485341C40.8257 0.798279 40.999 1.21458 40.999 1.65739V39.3436C40.999 40.2575 40.2565 41 39.3426 41H1.65636C0.742508 41 0 40.2575 0 39.3436V1.6599C0 0.746054 0.742503 0.00354853 1.65635 0.00354287L20.4681 0.00228668C20.4787 0.00228668 20.481 0.00216527 20.483 0.00194121L20.5005 0ZM39.3426 0.298844L20.5321 0.300103C20.5242 0.300114 20.5123 0.300131 20.4993 0.299349C20.4868 0.30011 20.4763 0.300104 20.4694 0.300101L1.65637 0.301356C0.906996 0.301356 0.297813 0.910529 0.297813 1.6599V39.3436C0.297813 40.093 0.906986 40.7022 1.65636 40.7022H39.3426C40.092 40.7022 40.7012 40.093 40.7012 39.3436V1.65739C40.7012 1.29377 40.5599 0.95343 40.3037 0.696064C40.0464 0.440023 39.7061 0.298844 39.3426 0.298844ZM37.9841 3.01592V12.8584H21.858V3.0172L37.9841 3.01592ZM22.1558 3.31499V12.5606H37.6863V3.31376L22.1558 3.31499ZM19.1409 3.01718V12.8584H3.0149V3.01845L19.1409 3.01718ZM3.31271 3.31624V12.5606H18.8431V3.31501L3.31271 3.31624ZM3.0149 15.5755H10.3475V25.4218H3.0149V15.5755ZM3.31271 15.8733V25.1239H10.0497V15.8733H3.31271ZM30.6515 15.5755H37.9841V25.4218H30.6515V15.5755ZM30.9493 15.8733V25.1239H37.6863V15.8733H30.9493ZM13.0646 15.5768H27.9344V25.4218H13.0646V15.5768ZM13.3624 15.8746V25.1239H27.6366V15.8746H13.3624ZM3.0149 28.1388H19.1409V37.9838H3.0149V28.1388ZM3.31271 28.4367V37.686H18.8431V28.4367H3.31271ZM21.858 28.1401H37.9841V37.9851H21.858V28.1401ZM22.1558 28.4379V37.6873H37.6863V28.4379H22.1558Z" fill="#57AB27"/>
</svg>
