<svg width="50" height="46" viewBox="0 0 50 46" fill="none" xmlns="http://www.w3.org/2000/svg">
<path d="M44.5389 18.999L49.5665 14.0162C50.1439 13.444 50.1445 12.5103 49.5684 11.9371C39.7859 2.2071 41.8131 4.22655 39.1684 1.58181C38.5963 1.00983 37.6689 1.00983 37.0968 1.58181L33.3344 5.34394C32.4219 6.25644 29.3066 5.92255 26.4076 6.54355C23.9356 5.10663 21.8996 5.18759 20.2462 5.2537C18.7819 5.3124 18.023 5.32646 17.0176 4.69227C16.5139 4.35868 16.5225 4.32831 12.8865 0.692446C12.3144 0.120373 11.387 0.12047 10.8149 0.692446C9.79166 1.7156 0.524125 10.9558 0.430569 11.049C0.154689 11.3241 -0.000292556 11.6977 4.1461e-07 12.0873C0.000293385 12.477 0.155763 12.8503 0.432034 13.125L5.28743 17.9529C5.44027 18.1551 5.5724 18.9886 5.65999 19.5414C5.84574 20.7134 6.08509 22.2199 6.91879 23.586L6.77231 23.7325C5.05482 25.45 5.05462 28.2297 6.77231 29.9473C7.56753 30.7426 8.59439 31.1681 9.63766 31.2251C9.69469 32.2685 10.1203 33.2953 10.9155 34.0906C11.6883 34.8633 12.6982 35.3125 13.7811 35.3708C13.8387 36.4134 14.2641 37.4391 15.0588 38.2338C15.854 39.0291 16.8808 39.4546 17.9241 39.5116C17.9812 40.555 18.4067 41.5817 19.202 42.377C20.5725 43.7475 22.5939 44.0076 24.2047 43.2364L25.4168 44.4486C27.1342 46.166 29.9141 46.1662 31.6316 44.4486C32.4044 43.6758 32.8534 42.6659 32.9118 41.583C33.9544 41.5255 34.9803 41.1 35.7749 40.3054C36.5696 39.5106 36.9949 38.4848 37.0526 37.4423C38.1355 37.3839 39.1453 36.9349 39.9181 36.1622C40.7133 35.3669 41.1389 34.3401 41.1959 33.2968C42.2393 33.2398 43.2661 32.8143 44.0613 32.019C45.7747 30.3056 45.7747 27.5176 44.0613 25.8042L42.9104 24.6533C44.3132 22.4304 44.0274 19.9302 44.5175 19.0258C44.5246 19.0163 44.5316 19.0062 44.5389 18.999ZM31.7186 8.88781L41.531 18.7003C41.2157 19.9237 41.2434 21.2846 40.7422 22.4851L31.6316 13.3746C29.9142 11.6572 27.1343 11.6569 25.4167 13.3746L21.2736 17.5177C20.7009 18.0903 19.7745 18.0903 19.202 17.5177C18.6309 16.9465 18.6308 16.0172 19.202 15.4461L23.3453 11.3029C25.6987 8.94933 28.9337 9.22414 31.7186 8.88781ZM5.78265 14.3138L3.54094 12.0848C5.51986 10.1117 9.80572 5.83828 11.8498 3.79891L14.0737 6.02275L5.78265 14.3138ZM10.9154 27.8757C10.3442 28.4469 9.4149 28.4469 8.84371 27.8757C8.27124 27.3031 8.27134 26.3767 8.8438 25.8041C9.64176 25.0062 10.0859 24.562 10.9154 23.7325C11.4865 23.1613 12.4159 23.1614 12.987 23.7325C13.5596 24.3051 13.5596 25.2315 12.987 25.8041L10.9154 27.8757ZM15.0587 32.019C14.4861 32.5915 13.5596 32.5916 12.9871 32.019C12.4159 31.4478 12.4159 30.5185 12.9871 29.9473L15.0587 27.8757C15.63 27.3045 16.5593 27.3047 17.1303 27.8757C17.7015 28.4469 17.7015 29.3762 17.1303 29.9473L15.0587 32.019ZM17.1304 36.1622C16.5592 35.5911 16.5592 34.6617 17.1303 34.0906L19.202 32.019C19.7745 31.4464 20.7009 31.4464 21.2736 32.019C21.8461 32.5917 21.8461 33.518 21.2736 34.0906L19.202 36.1622C18.6308 36.7333 17.7015 36.7332 17.1304 36.1622ZM25.4167 38.2337L23.345 40.3053C22.7725 40.8779 21.8461 40.8779 21.2735 40.3054C20.7024 39.7342 20.7024 38.8049 21.2735 38.2338L23.3451 36.1622C23.3452 36.1621 23.3453 36.162 23.3454 36.1619C23.9165 35.5911 24.8453 35.5912 25.4165 36.162C25.4166 36.162 25.4167 36.1621 25.4167 36.1622L25.4171 36.1626C25.9878 36.7338 25.9877 37.6628 25.4167 38.2337ZM29.5599 42.3771C28.9875 42.9495 28.061 42.9496 27.4883 42.3771L26.4525 41.3412L27.4883 40.3055C27.8514 39.9424 28.1368 39.5307 28.346 39.0915L29.5599 40.3055C30.1325 40.8779 30.1325 41.8044 29.5599 42.3771ZM41.9897 29.9473C41.4186 30.5184 40.4893 30.5184 39.9181 29.9473L32.8237 22.8529C32.2518 22.2809 31.3242 22.2809 30.7521 22.8529C30.1801 23.425 30.1801 24.3524 30.7521 24.9245L37.8465 32.0189C38.4176 32.5901 38.4176 33.5194 37.8465 34.0905C37.2742 34.6627 36.3481 34.6632 35.7752 34.0908C35.7751 34.0907 35.775 34.0906 35.7749 34.0905C35.7747 34.0904 35.7746 34.0902 35.7744 34.0901L28.772 27.0877C28.2001 26.5156 27.2725 26.5156 26.7005 27.0877C26.1284 27.6598 26.1284 28.5872 26.7005 29.1593L33.7032 36.1621C34.2744 36.7333 34.2744 37.6626 33.7032 38.2337C33.132 38.8049 32.2028 38.8049 31.6315 38.2337L27.4883 34.0904C26.6937 33.2957 25.6678 32.8703 24.6253 32.8128C24.5669 31.7298 24.1179 30.72 23.3452 29.9472C22.5724 29.1744 21.5625 28.7254 20.4796 28.667C20.4221 27.6244 19.9966 26.5986 19.202 25.804C18.4292 25.0313 17.4193 24.5822 16.3364 24.5238C16.2789 23.4812 15.8534 22.4554 15.0587 21.6607C13.4288 20.031 10.8275 19.9527 9.10289 21.4234C8.81031 20.6962 8.68013 19.8813 8.55357 19.0827C8.40015 18.1147 8.2521 17.1899 7.79702 16.4426L16.5146 7.72501C17.877 8.2795 19.1712 8.22872 20.3636 8.18097C21.0666 8.15265 21.752 8.12569 22.4684 8.21847C22.0597 8.51056 21.6599 8.84484 21.2736 9.23117L17.1303 13.3744C15.4169 15.0877 15.417 17.8757 17.1303 19.5891C18.8479 21.3067 21.6276 21.3067 23.3452 19.5891L27.4883 15.4459C28.0609 14.8735 28.9874 14.8734 29.5599 15.4459L41.9896 27.8756C42.5608 28.4469 42.5608 29.3762 41.9897 29.9473ZM34.8525 7.87843C35.2536 7.59815 35.1702 7.65147 38.1326 4.68925C39.4766 6.0332 38.0695 4.63192 46.4564 12.9738L43.1876 16.2135L34.8525 7.87843Z" fill="white"/>
</svg>
