<svg width="44" height="44" viewBox="0 0 44 44" fill="none" xmlns="http://www.w3.org/2000/svg">
<path d="M41.4217 23.5115V19.4226C41.4217 18.7107 40.8446 18.1335 40.1326 18.1335C37.4696 18.1335 34.9869 18.3582 32.6412 18.8171C31.2739 17.4967 29.607 16.5387 27.8018 16.0151C29.7702 14.3585 31.0233 11.878 31.0233 9.11009C31.0233 4.08714 26.9754 0.000732422 21.9999 0.000732422C17.0244 0.000732422 12.9764 4.08714 12.9764 9.11009C12.9764 11.878 14.2296 14.3585 16.198 16.015C14.3929 16.5387 12.7259 17.4967 11.3586 18.8171C9.01294 18.3582 6.53021 18.1334 3.86718 18.1334C3.15527 18.1334 2.57812 18.7106 2.57812 19.4225V23.5114C1.07774 24.0435 0 25.4763 0 27.1568V29.735C0 31.4155 1.07774 32.8483 2.57812 33.3804V37.4693C2.57812 38.1812 3.15527 38.7584 3.86718 38.7584C10.6072 38.7584 16.1418 40.3554 21.285 43.7841C21.7159 44.0713 22.2836 44.072 22.715 43.7841C27.8582 40.3554 33.3928 38.7584 40.1328 38.7584C40.8447 38.7584 41.4219 38.1812 41.4219 37.4693V33.3804C42.9223 32.8483 44 31.4155 44 29.735V27.1568C43.9998 25.4764 42.9221 24.0436 41.4217 23.5115ZM15.5546 9.11009C15.5546 5.50871 18.4459 2.57885 21.9999 2.57885C25.5538 2.57885 28.4452 5.50871 28.4452 9.11009C28.4452 12.664 25.5538 15.5554 21.9999 15.5554C18.4459 15.5554 15.5546 12.664 15.5546 9.11009ZM3.86709 31.0241C3.15631 31.0241 2.57803 30.4458 2.57803 29.735V27.1569C2.57803 26.4461 3.15631 25.8679 3.86709 25.8679C4.57788 25.8679 5.15615 26.4461 5.15615 27.1569V29.735C5.15615 30.4458 4.57788 31.0241 3.86709 31.0241ZM20.7108 40.3986C16.0313 37.7224 11.0097 36.3698 5.15615 36.1989V33.3805C6.65653 32.8484 7.73427 31.4156 7.73427 29.735V27.1569C7.73427 25.4764 6.65653 24.0436 5.15615 23.5115V20.7298C11.2131 20.9037 16.0817 22.33 20.7108 25.2773V40.3986ZM21.9999 23.0439C19.6206 21.5426 17.1441 20.3996 14.5003 19.5963C15.953 18.6522 17.663 18.1335 19.4217 18.1335H24.578C26.3367 18.1335 28.0468 18.6522 29.4994 19.5963C26.8557 20.3996 24.379 21.5426 21.9999 23.0439ZM38.8436 36.1989C32.9901 36.3698 27.9684 37.7227 23.2889 40.3987V25.2783C27.9181 22.3308 32.7864 20.9036 38.8436 20.7298V23.5115C37.3432 24.0436 36.2655 25.4764 36.2655 27.1569V29.735C36.2655 31.4156 37.3432 32.8484 38.8436 33.3805V36.1989ZM41.4217 29.735C41.4217 30.4458 40.8434 31.0241 40.1326 31.0241C39.4219 31.0241 38.8436 30.4458 38.8436 29.735V27.1569C38.8436 26.4461 39.4219 25.8679 40.1326 25.8679C40.8434 25.8679 41.4217 26.4461 41.4217 27.1569V29.735Z" fill="white"/>
</svg>
