<svg width="68" height="70" viewBox="0 0 68 70" fill="none" xmlns="http://www.w3.org/2000/svg">
<path d="M67.1223 14.8972C67.1223 14.0092 66.5859 13.209 65.7645 12.8715L34.8323 0.16425C34.2991 -0.0547502 33.7012 -0.0547502 33.1679 0.16425L2.23573 12.8715C1.41434 13.2089 0.87793 14.0092 0.87793 14.8972V55.1028C0.87793 55.9908 1.41421 56.791 2.23573 57.1285L33.1679 69.8357C33.6954 70.0524 34.2884 70.0571 34.8296 69.8356C34.856 69.8269 33.6849 70.3071 65.7645 57.1285C66.5861 56.7911 67.1223 55.9908 67.1223 55.1028V14.8972ZM34.0001 25.421L22.6028 20.739L47.2337 9.99409L59.3933 14.9894L34.0001 25.421ZM5.25794 18.3487L15.0912 22.3883V33.7851C15.0912 34.9945 16.0718 35.9751 17.2812 35.9751C18.4906 35.9751 19.4712 34.9945 19.4712 33.7851V24.1877L31.8101 29.2566V64.5426L5.25794 53.6348V18.3487ZM34.0001 4.55754L41.5921 7.67638L16.9612 18.4212L8.60701 14.9892L34.0001 4.55754ZM36.1901 29.2566L62.7423 18.3487V53.6348L36.1901 64.5426V29.2566Z" fill="black"/>
</svg>
