<svg width="42" height="42" viewBox="0 0 42 42" fill="none" xmlns="http://www.w3.org/2000/svg">
<g clip-path="url(#clip0_152_273)">
<path d="M40.9179 13.2174C39.4787 11.7781 37.1368 11.7782 35.697 13.2178C35.2542 13.661 32.427 16.4905 31.9951 16.9228V7.17166C31.9951 6.18565 31.6111 5.2587 30.9139 4.56151L27.4337 1.08117C26.7365 0.383906 25.8095 0 24.8235 0H3.69434C1.65889 0 0.00292969 1.65596 0.00292969 3.69141V38.3086C0.00292969 40.344 1.65889 42 3.69434 42H28.3037C30.3392 42 31.9951 40.344 31.9951 38.3086V27.3682L40.9178 18.4379C42.3605 16.9953 42.3608 14.6602 40.9179 13.2174ZM24.6124 2.46094C24.8449 2.46094 25.2928 2.42066 25.6936 2.8213L29.1738 6.30164C29.5643 6.69219 29.5343 7.12015 29.5343 7.38281H24.6124V2.46094ZM29.5342 38.3086C29.5342 38.9871 28.9823 39.5391 28.3037 39.5391H3.69434C3.01586 39.5391 2.46387 38.9871 2.46387 38.3086V3.69141C2.46387 3.01293 3.01586 2.46094 3.69434 2.46094H22.1514V8.61328C22.1514 9.29283 22.7023 9.84375 23.3818 9.84375H29.5342V19.3859C29.5342 19.3859 25.904 23.0192 25.9038 23.0193L24.1645 24.7587C24.0295 24.8937 23.9276 25.0584 23.8672 25.2396L22.127 30.4601C21.9796 30.9022 22.0947 31.3897 22.4243 31.7193C22.7543 32.0493 23.242 32.1638 23.6835 32.0166L28.9039 30.2764C29.0851 30.216 29.2499 30.1142 29.3849 29.9791L29.5342 29.8298V38.3086ZM26.7746 25.6288L28.5148 27.3689L27.8501 28.0336L25.2399 28.9036L26.1099 26.2934L26.7746 25.6288ZM30.2546 25.6284L28.5145 23.8882C29.4411 22.9609 33.5565 18.8419 34.4293 17.9684L36.1694 19.7085L30.2546 25.6284ZM39.1774 16.6981L37.9089 17.9676L36.1688 16.2275L37.4376 14.9576C37.9177 14.4778 38.6981 14.4779 39.1779 14.9576C39.6575 15.4375 39.66 16.2154 39.1774 16.6981Z" fill="white"/>
<path d="M23.3809 12.3047H6.1543C5.47475 12.3047 4.92383 12.8556 4.92383 13.5352C4.92383 14.2147 5.47475 14.7656 6.1543 14.7656H23.3809C24.0604 14.7656 24.6113 14.2147 24.6113 13.5352C24.6113 12.8556 24.0604 12.3047 23.3809 12.3047Z" fill="white"/>
<path d="M18.459 17.2266H6.1543C5.47475 17.2266 4.92383 17.7775 4.92383 18.457C4.92383 19.1366 5.47475 19.6875 6.1543 19.6875H18.459C19.1385 19.6875 19.6895 19.1366 19.6895 18.457C19.6895 17.7775 19.1385 17.2266 18.459 17.2266Z" fill="white"/>
<path d="M18.459 22.1484H6.1543C5.47475 22.1484 4.92383 22.6994 4.92383 23.3789C4.92383 24.0585 5.47475 24.6094 6.1543 24.6094H18.459C19.1385 24.6094 19.6895 24.0585 19.6895 23.3789C19.6895 22.6994 19.1385 22.1484 18.459 22.1484Z" fill="white"/>
<path d="M18.459 27.0703H6.1543C5.47475 27.0703 4.92383 27.6212 4.92383 28.3008C4.92383 28.9803 5.47475 29.5312 6.1543 29.5312H18.459C19.1385 29.5312 19.6895 28.9803 19.6895 28.3008C19.6895 27.6212 19.1385 27.0703 18.459 27.0703Z" fill="white"/>
<path d="M23.3809 34.6172H15.998C15.3185 34.6172 14.7676 35.1681 14.7676 35.8477C14.7676 36.5272 15.3185 37.0781 15.998 37.0781H23.3809C24.0604 37.0781 24.6113 36.5272 24.6113 35.8477C24.6113 35.1681 24.0604 34.6172 23.3809 34.6172Z" fill="white"/>
</g>
<defs>
<clipPath id="clip0_152_273">
<rect width="42" height="42" fill="white"/>
</clipPath>
</defs>
</svg>
