<svg width="42" height="42" viewBox="0 0 42 42" fill="none" xmlns="http://www.w3.org/2000/svg">
<path d="M38.3086 4.92188H37.0781V3.69141C37.0781 1.65596 35.4222 0 33.3867 0C31.3513 0 29.6953 1.65596 29.6953 3.69141V4.92188H24.7734V3.69141C24.7734 1.65596 23.1175 0 21.082 0C19.0466 0 17.3906 1.65596 17.3906 3.69141V4.92188H12.3047V3.69141C12.3047 1.65596 10.6487 0 8.61328 0C6.57784 0 4.92188 1.65596 4.92188 3.69141V4.92188H3.69141C1.65596 4.92188 0 6.57784 0 8.61328C0 8.79178 0 37.8368 0 38.3086C0 40.344 1.65596 42 3.69141 42H38.3086C40.344 42 42 40.344 42 38.3086C42 38.0819 42 9.0131 42 8.61328C42 6.57784 40.344 4.92188 38.3086 4.92188ZM32.1562 3.69141C32.1562 3.01293 32.7082 2.46094 33.3867 2.46094C34.0652 2.46094 34.6172 3.01293 34.6172 3.69141V8.61328C34.6172 9.29176 34.0652 9.84375 33.3867 9.84375C32.7082 9.84375 32.1562 9.29176 32.1562 8.61328V3.69141ZM19.8516 3.69141C19.8516 3.01293 20.4036 2.46094 21.082 2.46094C21.7605 2.46094 22.3125 3.01293 22.3125 3.69141V8.61328C22.3125 9.29176 21.7605 9.84375 21.082 9.84375C20.4036 9.84375 19.8516 9.29176 19.8516 8.61328V3.69141ZM7.38281 3.69141C7.38281 3.01293 7.9348 2.46094 8.61328 2.46094C9.29176 2.46094 9.84375 3.01293 9.84375 3.69141V8.61328C9.84375 9.29176 9.29176 9.84375 8.61328 9.84375C7.9348 9.84375 7.38281 9.29176 7.38281 8.61328V3.69141ZM39.5391 38.3086C39.5391 38.9871 38.9871 39.5391 38.3086 39.5391H3.69141C3.01293 39.5391 2.46094 38.9871 2.46094 38.3086V17.3906H39.5391V38.3086ZM39.5391 14.9297H2.46094V8.61328C2.46094 7.9348 3.01293 7.38281 3.69141 7.38281H4.92188V8.61328C4.92188 10.6487 6.57784 12.3047 8.61328 12.3047C10.6487 12.3047 12.3047 10.6487 12.3047 8.61328V7.38281H17.3906V8.61328C17.3906 10.6487 19.0466 12.3047 21.082 12.3047C23.1175 12.3047 24.7734 10.6487 24.7734 8.61328V7.38281H29.6953V8.61328C29.6953 10.6487 31.3513 12.3047 33.3867 12.3047C35.4222 12.3047 37.0781 10.6487 37.0781 8.61328V7.38281H38.3086C38.9871 7.38281 39.5391 7.9348 39.5391 8.61328V14.9297Z" fill="#A47845"/>
<path d="M36.0833 20.2222H5.91667C5.22633 20.2222 4.66667 20.7695 4.66667 21.4444V36.1111C4.66667 36.7861 5.22633 37.3333 5.91667 37.3333H36.0833C36.7737 37.3333 37.3333 36.7861 37.3333 36.1111V21.4444C37.3333 20.7695 36.7737 20.2222 36.0833 20.2222ZM12.1667 34.8889H7.16667V30H12.1667V34.8889ZM12.1667 27.5556H7.16667V22.6667H12.1667V27.5556ZM19.8333 34.8889H14.6667V30H19.8333V34.8889ZM19.8333 27.5556H14.6667V22.6667H19.8333V27.5556ZM27.3333 34.8889H22.3333V30H27.3333V34.8889ZM27.3333 27.5556H22.3333V22.6667H27.3333V27.5556ZM34.8333 34.8889H29.8333V30H34.8333V34.8889ZM34.8333 27.5556H29.8333V22.6667H34.8333V27.5556Z" fill="#A47845"/>
</svg>
