<svg width="44" height="44" viewBox="0 0 44 44" fill="none" xmlns="http://www.w3.org/2000/svg">
<path d="M41.4219 25.1152V3.95312C41.4219 3.24112 40.8448 2.66406 40.1328 2.66406H33.6016V1.28906C33.6016 0.577057 33.0245 0 32.3125 0C31.6005 0 31.0234 0.577057 31.0234 1.28906V2.66406H25.8672V1.28906C25.8672 0.577057 25.2901 0 24.5781 0C23.8661 0 23.2891 0.577057 23.2891 1.28906V2.66406H18.1328V1.28906C18.1328 0.577057 17.5558 0 16.8438 0C16.1317 0 15.5547 0.577057 15.5547 1.28906V2.66406H10.3984V1.28906C10.3984 0.577057 9.82138 0 9.10938 0C8.39737 0 7.82031 0.577057 7.82031 1.28906V2.66406H1.28906C0.577057 2.66406 0 3.24112 0 3.95312V37.5547C0 38.2667 0.577057 38.8438 1.28906 38.8438H22.7567C24.8406 41.9506 28.3846 44 32.3984 44C38.7954 44 44 38.7954 44 32.3984C44 29.6424 43.0332 27.1079 41.4219 25.1152ZM7.82031 5.24219V6.53125C7.82031 7.24326 8.39737 7.82031 9.10938 7.82031C9.82138 7.82031 10.3984 7.24326 10.3984 6.53125V5.24219H15.5547V6.53125C15.5547 7.24326 16.1317 7.82031 16.8438 7.82031C17.5558 7.82031 18.1328 7.24326 18.1328 6.53125V5.24219H23.2891V6.53125C23.2891 7.24326 23.8661 7.82031 24.5781 7.82031C25.2901 7.82031 25.8672 7.24326 25.8672 6.53125V5.24219H31.0234V6.53125C31.0234 7.24326 31.6005 7.82031 32.3125 7.82031C33.0245 7.82031 33.6016 7.24326 33.6016 6.53125V5.24219H38.8438V10.3984H2.57812V5.24219H7.82031ZM2.57812 36.2656V12.9766H38.8438V22.7567C36.9991 21.5196 34.7815 20.7969 32.3984 20.7969C28.3251 20.7969 24.7359 22.9074 22.6653 26.0918C22.4911 26.0038 22.2947 25.9531 22.0859 25.9531H19.5078C18.7958 25.9531 18.2188 26.5302 18.2188 27.2422C18.2188 27.9542 18.7958 28.5312 19.5078 28.5312H21.4605C21.1695 29.3524 20.9681 30.2158 20.869 31.1094H19.5078C18.7958 31.1094 18.2188 31.6864 18.2188 32.3984C18.2188 33.1104 18.7958 33.6875 19.5078 33.6875H20.869C20.9681 34.5811 21.1692 35.4445 21.4605 36.2656H2.57812ZM32.3984 41.4219C27.4228 41.4219 23.375 37.3741 23.375 32.3984C23.375 27.4228 27.4228 23.375 32.3984 23.375C37.3741 23.375 41.4219 27.4228 41.4219 32.3984C41.4219 37.3741 37.3741 41.4219 32.3984 41.4219Z" fill="white"/>
<path d="M37.5547 31.1094H33.6875V27.2422C33.6875 26.5302 33.1104 25.9531 32.3984 25.9531C31.6864 25.9531 31.1094 26.5302 31.1094 27.2422V32.3984C31.1094 33.1104 31.6864 33.6875 32.3984 33.6875H37.5547C38.2667 33.6875 38.8438 33.1104 38.8438 32.3984C38.8438 31.6864 38.2667 31.1094 37.5547 31.1094Z" fill="white"/>
<path d="M11.6875 15.6406H9.10938C8.39737 15.6406 7.82031 16.2177 7.82031 16.9297C7.82031 17.6417 8.39737 18.2188 9.10938 18.2188H11.6875C12.3995 18.2188 12.9766 17.6417 12.9766 16.9297C12.9766 16.2177 12.3995 15.6406 11.6875 15.6406Z" fill="white"/>
<path d="M11.6875 20.7969H9.10938C8.39737 20.7969 7.82031 21.3739 7.82031 22.0859C7.82031 22.7979 8.39737 23.375 9.10938 23.375H11.6875C12.3995 23.375 12.9766 22.7979 12.9766 22.0859C12.9766 21.3739 12.3995 20.7969 11.6875 20.7969Z" fill="white"/>
<path d="M11.6875 25.9531H9.10938C8.39737 25.9531 7.82031 26.5302 7.82031 27.2422C7.82031 27.9542 8.39737 28.5312 9.10938 28.5312H11.6875C12.3995 28.5312 12.9766 27.9542 12.9766 27.2422C12.9766 26.5302 12.3995 25.9531 11.6875 25.9531Z" fill="white"/>
<path d="M19.5078 18.2188H22.0859C22.7979 18.2188 23.375 17.6417 23.375 16.9297C23.375 16.2177 22.7979 15.6406 22.0859 15.6406H19.5078C18.7958 15.6406 18.2188 16.2177 18.2188 16.9297C18.2188 17.6417 18.7958 18.2188 19.5078 18.2188Z" fill="white"/>
<path d="M19.5078 23.375H22.0859C22.7979 23.375 23.375 22.7979 23.375 22.0859C23.375 21.3739 22.7979 20.7969 22.0859 20.7969H19.5078C18.7958 20.7969 18.2188 21.3739 18.2188 22.0859C18.2188 22.7979 18.7958 23.375 19.5078 23.375Z" fill="white"/>
<path d="M11.6875 31.1094H9.10938C8.39737 31.1094 7.82031 31.6864 7.82031 32.3984C7.82031 33.1104 8.39737 33.6875 9.10938 33.6875H11.6875C12.3995 33.6875 12.9766 33.1104 12.9766 32.3984C12.9766 31.6864 12.3995 31.1094 11.6875 31.1094Z" fill="white"/>
<path d="M29.8203 18.2188H32.3984C33.1104 18.2188 33.6875 17.6417 33.6875 16.9297C33.6875 16.2177 33.1104 15.6406 32.3984 15.6406H29.8203C29.1083 15.6406 28.5312 16.2177 28.5312 16.9297C28.5312 17.6417 29.1083 18.2188 29.8203 18.2188Z" fill="white"/>
</svg>
