<svg width="12" height="12" viewBox="0 0 12 12" fill="none" xmlns="http://www.w3.org/2000/svg">
<path d="M7.0187 8.41503L9.92118 8.87338C10.1308 8.9061 10.2854 9.08659 10.2855 9.29874V11.313C10.2845 11.5014 10.1624 11.6679 9.98289 11.7253C7.6862 12.4774 4.72822 11.6726 2.52838 9.47145C0.328543 7.27032 -0.477593 4.31362 0.274758 2.01692C0.332188 1.83745 0.498601 1.71532 0.68704 1.71436H2.70131C2.91346 1.71446 3.09394 1.86903 3.12666 2.07864L3.5848 4.98112C3.60112 5.08487 3.57902 5.191 3.52266 5.27962L2.80931 6.39904C2.70671 6.56214 2.7039 6.76892 2.80202 6.93475C3.35423 7.86692 4.1321 8.64516 5.064 9.19781C5.2301 9.29637 5.43742 9.29355 5.60079 9.19052L6.7202 8.47717C6.80882 8.42081 6.91496 8.39871 7.0187 8.41503Z" fill="black"/>
<path d="M6.21414 6.21441C6.56918 6.21441 6.85699 5.9266 6.85699 5.57156C6.85699 5.21653 6.56918 4.92871 6.21414 4.92871C5.8591 4.92871 5.57129 5.21653 5.57129 5.57156C5.57129 5.9266 5.8591 6.21441 6.21414 6.21441Z" fill="black"/>
<path d="M10.9281 5.57138C10.9254 2.9689 8.81635 0.859852 6.21387 0.857136V0C9.28944 0.00342472 11.7818 2.49581 11.7852 5.57138H10.9281Z" fill="black"/>
<path d="M6.21387 3.21431C7.51567 3.21431 8.57098 4.26963 8.57098 5.57144H9.42812C9.42611 3.79708 7.98822 2.35919 6.21387 2.35718V3.21431Z" fill="black"/>
</svg>
