<svg width="41" height="41" viewBox="0 0 41 41" fill="none" xmlns="http://www.w3.org/2000/svg">
<path d="M37.9541 30.4098L32.8805 25.1599C32.8758 25.155 32.871 25.1501 32.8662 25.1453C31.458 23.737 29.1788 23.7368 27.7704 25.1453L25.4541 27.4617C24.3874 28.5286 22.6606 28.5288 21.5938 27.4617L21.5923 27.4603L13.537 19.5949C12.4702 18.5281 12.47 16.8012 13.537 15.7342L15.8533 13.4178C17.2582 12.0128 17.2582 9.72667 15.8533 8.32167L10.7575 3.22553C9.35252 1.82062 7.06661 1.82062 5.66172 3.22553L3.80879 5.07867C-1.26881 10.1566 -1.27065 18.3758 3.80959 23.4564L17.7333 37.1907C22.7997 42.2573 31.0045 42.2762 36.0911 37.2085C36.119 37.1828 37.9191 35.5246 37.946 35.4978C39.3481 34.0954 39.3508 31.8154 37.9541 30.4098ZM7.36034 4.92419C7.82864 4.45586 8.59058 4.45586 9.05888 4.92419L14.1547 10.0203C14.6241 10.4899 14.6242 11.2495 14.1547 11.7191L13.3054 12.5684L6.51103 5.77356L7.36034 4.92419ZM19.4311 35.4912L5.50733 21.757C1.58366 17.8329 1.39756 11.6452 4.84452 7.50433L11.6151 14.2754C9.84172 16.2887 9.91547 19.3705 11.8399 21.2951L19.8967 29.1619C21.8223 31.0862 24.894 31.1654 26.9131 29.384L33.6831 36.1545C29.5017 39.6281 23.3516 39.412 19.4311 35.4912ZM36.2616 33.7845L35.4544 34.5284L28.6197 27.6933L29.469 26.844C29.9369 26.3761 30.6921 26.3747 31.1616 26.838C31.1709 26.8477 36.2378 32.0908 36.2473 32.1002C36.7109 32.5639 36.7156 33.3152 36.2616 33.7845Z" fill="#A47845"/>
<path d="M20.5816 0C19.9183 0 19.3805 0.537844 19.3805 1.20118C19.3805 1.86452 19.9183 2.40236 20.5816 2.40236C30.5158 2.40236 38.5978 10.485 38.5978 20.4199C38.5978 21.0832 39.1356 21.6211 39.7989 21.6211C40.4622 21.6211 41 21.0833 41 20.4199C41 9.13374 31.8678 0 20.5816 0Z" fill="#A47845"/>
<path d="M20.5816 4.80477C19.9183 4.80477 19.3805 5.34261 19.3805 6.00595C19.3805 6.66928 19.9183 7.20712 20.5816 7.20712C27.8666 7.20712 33.7935 13.1344 33.7935 20.42C33.7935 21.0833 34.3313 21.6212 34.9946 21.6212C35.6579 21.6212 36.1957 21.0834 36.1957 20.42C36.1957 11.8098 29.1912 4.80477 20.5816 4.80477Z" fill="#A47845"/>
<path d="M20.5816 9.60941C19.9183 9.60941 19.3805 10.1473 19.3805 10.8106C19.3805 11.4739 19.9183 12.0118 20.5816 12.0118C25.2176 12.0118 28.9892 15.7836 28.9892 20.4199C28.9892 21.0833 29.527 21.6211 30.1902 21.6211C30.8535 21.6211 31.3913 21.0833 31.3913 20.4199C31.3913 14.459 26.5421 9.60941 20.5816 9.60941Z" fill="#A47845"/>
<path d="M20.5816 14.414C19.9183 14.414 19.3805 14.9518 19.3805 15.6151C19.3805 16.2785 19.9183 16.8163 20.5816 16.8163C22.5684 16.8163 24.1849 18.4328 24.1849 20.4198C24.1849 21.0832 24.7227 21.621 25.386 21.621C26.0492 21.621 26.587 21.0833 26.587 20.4198C26.587 17.1082 23.893 14.414 20.5816 14.414Z" fill="#A47845"/>
</svg>
