<svg width="81" height="81" viewBox="0 0 81 81" fill="none" xmlns="http://www.w3.org/2000/svg">
<path d="M15.1874 40.875C10.5368 40.875 6.75 44.6617 6.75 49.3124C6.75 53.9631 10.5368 57.75 15.1874 57.75C19.8381 57.75 23.6249 53.9633 23.6249 49.3126C23.6249 44.6619 19.8381 40.875 15.1874 40.875ZM15.1874 54.3751C12.3963 54.3751 10.1249 52.1038 10.1249 49.3126C10.1249 46.5214 12.3963 44.2501 15.1874 44.2501C17.9786 44.2501 20.2499 46.5214 20.2499 49.3126C20.2499 52.1036 17.9786 54.3751 15.1874 54.3751Z" fill="black"/>
<path d="M65.8124 40.875C61.1617 40.875 57.375 44.6617 57.375 49.3124C57.375 53.9631 61.1617 57.75 65.8124 57.75C70.4631 57.75 74.2499 53.9633 74.2499 49.3126C74.2499 44.6619 70.4631 40.875 65.8124 40.875ZM65.8124 54.3751C63.0213 54.3751 60.7499 52.1038 60.7499 49.3126C60.7499 46.5214 63.0213 44.2501 65.8124 44.2501C68.6036 44.2501 70.8749 46.5214 70.8749 49.3126C70.8749 52.1036 68.6036 54.3751 65.8124 54.3751Z" fill="black"/>
<path d="M70.875 30.7499H68.0198C66.9769 30.7499 65.9542 30.3922 65.1375 29.7374L51.84 19.0994C50.3483 17.9081 48.4752 17.25 46.5682 17.25H22.1737C19.3456 17.25 16.7232 18.6541 15.1538 21.0064L12.2816 25.3196C11.421 26.6055 9.98325 27.375 8.43745 27.375C3.78675 27.375 0 31.1617 0 35.8124V42.5625C0 47.2132 3.78675 50.9999 8.43745 50.9999C9.36895 50.9999 10.125 50.2439 10.125 49.3124C10.125 48.3809 9.36895 47.625 8.43745 47.625C5.64627 47.625 3.37495 45.3537 3.37495 42.5625V35.8124C3.37495 33.0213 5.64627 30.7499 8.43745 30.7499C11.1172 30.7499 13.6012 29.4202 15.0896 27.1893L17.9618 22.8793C18.9034 21.4686 20.4796 20.6248 22.1737 20.6248H46.5682C47.7156 20.6248 48.8362 21.0197 49.734 21.7352L63.0314 32.3698C64.4388 33.5005 66.214 34.1247 68.0231 34.1247H70.875C75.8261 34.1247 77.6251 39.1703 77.6251 42.5622C77.6251 45.8865 75.0804 47.6247 72.5626 47.6247C71.6311 47.6247 70.875 48.3807 70.875 49.3122C70.875 50.2437 71.6311 50.9998 72.5626 50.9998C77.3719 50.9999 81 47.3719 81 42.5625C81 36.8351 77.4529 30.7499 70.875 30.7499Z" fill="black"/>
<path d="M59.0624 47.625H21.9376C21.0061 47.625 20.25 48.3811 20.25 49.3126C20.25 50.2441 21.0061 51.0001 21.9376 51.0001H59.0626C59.9941 51.0001 60.7502 50.2441 60.7502 49.3126C60.7502 48.3811 59.9939 47.625 59.0624 47.625Z" fill="black"/>
<path d="M55.6876 30.7499H40.5001V25.6874C40.5001 24.7559 39.7441 23.9999 38.8126 23.9999C37.8811 23.9999 37.125 24.7559 37.125 25.6874V32.4375C37.125 33.369 37.8811 34.125 38.8126 34.125H55.6876C56.6191 34.125 57.3752 33.369 57.3752 32.4375C57.3752 31.506 56.6191 30.7499 55.6876 30.7499Z" fill="black"/>
<path d="M32.0625 30.7499H21.2929L23.4495 26.4435C23.8646 25.6099 23.5272 24.5974 22.6934 24.1788C21.8564 23.7637 20.8474 24.0978 20.4288 24.9349L17.0538 31.6849C16.7906 32.2046 16.8209 32.829 17.128 33.3252C17.4351 33.8213 17.9785 34.125 18.5624 34.125H32.0624C32.9939 34.125 33.7499 33.369 33.7499 32.4375C33.7499 31.506 32.994 30.7499 32.0625 30.7499Z" fill="black"/>
<path d="M45.5625 37.5H42.1876C41.2561 37.5 40.5 38.2561 40.5 39.1876C40.5 40.1191 41.2561 40.8751 42.1876 40.8751H45.5625C46.494 40.8751 47.2501 40.1191 47.2501 39.1876C47.2501 38.2561 46.494 37.5 45.5625 37.5Z" fill="black"/>
</svg>
