<svg width="72" height="66" viewBox="0 0 72 66" fill="none" xmlns="http://www.w3.org/2000/svg">
<path d="M51.75 66H8.25C3.699 66 0 62.301 0 57.75V32.25C0 27.699 3.699 24 8.25 24H51.75C56.301 24 60 27.699 60 32.25V57.75C60 62.301 56.301 66 51.75 66ZM8.25 28.5C6.183 28.5 4.5 30.183 4.5 32.25V57.75C4.5 59.817 6.183 61.5 8.25 61.5H51.75C53.817 61.5 55.5 59.817 55.5 57.75V32.25C55.5 30.183 53.817 28.5 51.75 28.5H8.25Z" fill="#AC4242"/>
<path d="M18.75 48H14.25C11.355 48 9 45.645 9 42.75V38.25C9 35.355 11.355 33 14.25 33H18.75C21.645 33 24 35.355 24 38.25V42.75C24 45.645 21.645 48 18.75 48ZM14.25 37.5C13.836 37.5 13.5 37.836 13.5 38.25V42.75C13.5 43.164 13.836 43.5 14.25 43.5H18.75C19.164 43.5 19.5 43.164 19.5 42.75V38.25C19.5 37.836 19.164 37.5 18.75 37.5H14.25Z" fill="#AC4242"/>
<path d="M48.75 57H11.25C10.008 57 9 55.992 9 54.75C9 53.508 10.008 52.5 11.25 52.5H48.75C49.992 52.5 51 53.508 51 54.75C51 55.992 49.992 57 48.75 57Z" fill="#AC4242"/>
<path d="M68.25 16.5H15.75C14.508 16.5 13.5 15.492 13.5 14.25C13.5 13.008 14.508 12 15.75 12H68.25C69.492 12 70.5 13.008 70.5 14.25C70.5 15.492 69.492 16.5 68.25 16.5Z" fill="#AC4242"/>
<path d="M66.75 41.16C65.967 41.16 65.205 40.749 64.791 40.02C64.176 38.94 64.557 37.566 65.637 36.954C66.801 36.294 67.497 35.094 67.497 33.75V8.25C67.497 6.183 65.814 4.5 63.747 4.5H20.25C18.183 4.5 16.5 6.183 16.5 8.25V17.25C16.5 18.492 15.492 19.5 14.25 19.5C13.008 19.5 12 18.492 12 17.25V8.25C12 3.699 15.699 0 20.25 0H63.75C68.301 0 72 3.699 72 8.25V33.75C72 36.693 70.413 39.42 67.86 40.869C67.509 41.067 67.128 41.16 66.75 41.16Z" fill="#AC4242"/>
</svg>
