<svg width="38" height="38" viewBox="0 0 38 38" fill="none" xmlns="http://www.w3.org/2000/svg">
<path d="M2.375 9.5H9.5V2.375H26.125V7.125H28.5V0H7.82088L0 7.82088V38H19V35.625H2.375V9.5ZM7.125 4.05412V7.125H4.05412L7.125 4.05412Z" fill="white"/>
<path d="M28.5 9.5H26.125V11.875H28.5V9.5Z" fill="white"/>
<path d="M28.5 14.25H26.125V16.625H28.5V14.25Z" fill="white"/>
<path d="M28.5 19C23.2533 19 19 23.2533 19 28.5C19 33.7467 23.2533 38 28.5 38C33.7467 38 38 33.7467 38 28.5C37.9941 23.2557 33.7443 19.0059 28.5 19ZM28.5 35.625C24.565 35.625 21.375 32.435 21.375 28.5C21.375 24.565 24.565 21.375 28.5 21.375C32.435 21.375 35.625 24.565 35.625 28.5C35.6211 32.4334 32.4334 35.6211 28.5 35.625Z" fill="white"/>
<path d="M23.75 14.25V11.875H4.75V19H21.375V16.625H7.125V14.25H23.75Z" fill="white"/>
<path d="M16.625 21.375H4.75V23.75H16.625V21.375Z" fill="white"/>
<path d="M16.625 26.125H4.75V28.5H16.625V26.125Z" fill="white"/>
<path d="M29.6875 23.75H27.3125V26.125H29.6875V23.75Z" fill="white"/>
<path d="M29.6875 28.5H27.3125V33.25H29.6875V28.5Z" fill="white"/>
</svg>
