<svg width="10" height="10" viewBox="0 0 10 10" fill="none" xmlns="http://www.w3.org/2000/svg">
<path d="M4.25566 5L0.154145 0.898477C-0.0513817 0.69293 -0.0513817 0.359688 0.154145 0.15416C0.359691 -0.0513868 0.692953 -0.0513868 0.89848 0.15416L5.00001 4.25569L9.10153 0.15416C9.30707 -0.0513868 9.64031 -0.0513868 9.84584 0.15416C10.0514 0.359707 10.0514 0.69295 9.84584 0.898477L5.74433 5L9.84584 9.10153C10.0514 9.30708 10.0514 9.64032 9.84584 9.84585C9.64029 10.0514 9.30705 10.0514 9.10153 9.84585L5.00001 5.74432L0.898518 9.84585C0.692972 10.0514 0.359711 10.0514 0.154184 9.84585C-0.0513424 9.6403 -0.0513424 9.30706 0.154184 9.10153L4.25566 5Z" fill="#161616"/>
</svg>
