<svg width="39" height="39" viewBox="0 0 39 39" fill="none" xmlns="http://www.w3.org/2000/svg">
<path d="M38.7218 28.0637C37.9984 26.3715 36.0724 25.6202 34.41 26.1748L27.4906 28.4811C27.4707 28.1958 27.4147 27.9113 27.3219 27.6328C27.0324 26.7642 26.4218 26.0602 25.6027 25.6508L16.1276 20.9132C14.8461 20.2722 13.3809 20.136 12.0033 20.5296L9.17632 21.3375C8.92341 19.695 7.50084 18.4337 5.78876 18.4337H1.14258C0.511482 18.4337 0 18.9452 0 19.5763V35.5724C0 36.2032 0.511482 36.715 1.14258 36.715H8.07392C8.70501 36.715 9.21649 36.2032 9.21649 35.5724V34.9597L15.1237 37.9132C17.768 39.2344 20.9196 39.3894 23.7698 38.1665L36.9213 32.5632C38.6614 31.8182 39.468 29.8043 38.7218 28.0637ZM6.93134 34.4298H2.28515V20.7189H5.78906C6.41896 20.7189 6.93134 21.2313 6.93134 21.8615V34.4298ZM36.0239 30.4619L22.8715 36.0654C20.6747 37.0078 18.2271 36.9093 16.1452 35.869L9.21649 32.4049V23.7024L12.6311 22.7271C13.4577 22.4905 14.3367 22.5723 15.1058 22.9571L24.5809 27.6947C25.1444 27.9765 25.3738 28.6641 25.0921 29.228C24.8046 29.8026 24.1131 30.0162 23.5588 29.7389L17.9057 26.9124C16.4635 26.1912 14.6893 26.5848 13.6874 27.8482C13.2953 28.3425 13.378 29.0613 13.8725 29.4532C14.3667 29.8454 15.0856 29.7627 15.4778 29.2681C15.8116 28.8471 16.4028 28.7159 16.8837 28.9563L22.5367 31.7828C23.7799 32.4044 25.3048 32.2196 26.362 31.2662L35.1331 28.3425C35.7035 28.152 36.3804 28.3999 36.6208 28.9629C36.8731 29.5508 36.5931 30.2179 36.0239 30.4619Z" fill="white"/>
<path d="M25.2102 8.15056C25.2102 8.78137 24.6987 9.29316 24.0676 9.29316C23.4365 9.29316 22.925 8.78137 22.925 8.15056C22.925 7.51945 23.4365 7.00795 24.0676 7.00795C24.6987 7.00795 25.2102 7.51945 25.2102 8.15056Z" fill="white"/>
<path d="M29.7802 12.7207C29.7802 13.3518 29.2687 13.8633 28.6379 13.8633C28.0068 13.8633 27.4953 13.3518 27.4953 12.7207C27.4953 12.0899 28.0068 11.5781 28.6379 11.5781C29.2687 11.5781 29.7802 12.0899 29.7802 12.7207Z" fill="white"/>
<path d="M29.4478 7.3424C29.0018 6.89637 28.2782 6.89637 27.8322 7.3424L23.2619 11.9128C22.8155 12.3591 22.8155 13.0825 23.2619 13.5285C23.7079 13.9748 24.4315 13.9748 24.8775 13.5285L29.4478 8.95841C29.8942 8.51208 29.8942 7.78873 29.4478 7.3424Z" fill="white"/>
<path d="M14.2153 13.613L25.6408 22.7535C25.8494 22.9205 26.102 23.0041 26.3546 23.0041C26.6061 23.0041 26.8575 22.9214 27.0655 22.7559L38.5671 13.6154C38.9477 13.3128 39.0953 12.8031 38.9352 12.3443C38.7751 11.8854 38.3422 11.5781 37.8563 11.5781H34.3527V1.1426C34.3527 0.511493 33.8409 0 33.2101 0H19.4995C18.8684 0 18.3569 0.511493 18.3569 1.1426V11.5781H14.9292C14.4439 11.5781 14.0115 11.8845 13.8511 12.3425C13.6905 12.8004 13.8366 13.3098 14.2153 13.613ZM19.4995 13.8633C20.1303 13.8633 20.642 13.3518 20.642 12.7207V2.2852H32.0675V12.7207C32.0675 13.3518 32.579 13.8633 33.2101 13.8633H34.5824L26.357 20.3999L18.1864 13.8633H19.4995Z" fill="white"/>
</svg>
