<svg width="46" height="38" viewBox="0 0 46 38" fill="none" xmlns="http://www.w3.org/2000/svg">
<path d="M42.1885 29.3852H35.6423V27.9224H41.8711C42.7063 27.9224 43.3576 27.1986 43.2717 26.3691L41.1595 5.98081C41.0851 5.26314 40.4804 4.71779 39.7589 4.71779H39.1674C38.5548 2.57008 36.576 0.992432 34.2342 0.992432C31.8931 0.992432 29.9148 2.56909 29.3015 4.71779H28.7096C27.988 4.71779 27.3833 5.26323 27.309 5.98099C27.155 7.46763 27.1962 7.07025 26.9306 9.63716L17.8997 9.98486V8.55734C17.8997 7.77965 17.2692 7.14922 16.4916 7.14922H11.8755C11.0978 7.14922 10.4673 7.77974 10.4673 8.55734V10.271L4.06218 10.5176C1.78429 10.6053 0 12.4595 0 14.739V17.9013C0 20.1806 1.78411 22.0348 4.06182 22.1227C4.85622 22.1533 24.0237 22.892 25.5507 22.9509L25.1968 26.3692C25.1107 27.2 25.7635 27.9224 26.5974 27.9224H32.8262V29.3852H26.28C24.1785 29.3852 22.4687 31.0949 22.4687 33.1964C22.4687 35.298 24.1785 37.0078 26.28 37.0078H42.1887C44.2902 37.0078 46 35.2981 46 33.1964C45.9998 31.0949 44.29 29.3852 42.1885 29.3852ZM13.2836 9.96554H15.0833V10.093L13.2837 10.1626L13.2836 9.96554ZM25.8417 20.1437L7.75277 19.4466L8.11241 18.7815H25.983C25.9329 19.265 25.8852 19.724 25.8417 20.1437ZM26.275 15.9652H7.27309C6.75595 15.9652 6.28041 16.2487 6.03451 16.7035L4.6166 19.3257L4.17035 19.3085C3.41108 19.2792 2.81632 18.6611 2.81632 17.9014V14.7391C2.81632 13.9793 3.41108 13.3612 4.17044 13.332C14.6577 12.9282 16.1525 12.8705 26.6375 12.4669C26.4482 14.2942 26.3942 14.8147 26.275 15.9652ZM34.2342 3.80884C34.982 3.80884 35.6479 4.16525 36.0713 4.71788H32.3967C32.82 4.16552 33.4862 3.80884 34.2342 3.80884ZM28.1588 25.106C28.9841 17.1383 28.7417 19.4946 29.9795 7.53411C30.5929 7.53411 37.0423 7.53411 38.4891 7.53411L40.3096 25.106H28.1588ZM42.1885 34.1914H26.2798C25.7312 34.1914 25.2848 33.7451 25.2848 33.1964C25.2848 32.6478 25.7312 32.2014 26.2798 32.2014H42.1886C42.7372 32.2014 43.1836 32.6477 43.1836 33.1964C43.1835 33.745 42.7372 34.1914 42.1885 34.1914Z" fill="white"/>
<path d="M34.2341 21.8923C35.2985 21.8923 36.1613 21.0295 36.1613 19.9652C36.1613 18.9008 35.2985 18.038 34.2341 18.038C33.1698 18.038 32.307 18.9008 32.307 19.9652C32.307 21.0295 33.1698 21.8923 34.2341 21.8923Z" fill="white"/>
</svg>
