<svg width="43" height="44" viewBox="0 0 43 44" fill="none" xmlns="http://www.w3.org/2000/svg">
<path d="M9.40625 43.0019H21.5C22.2418 43.0019 22.8438 42.3999 22.8438 41.6582V31.804C22.8438 31.0623 22.2418 30.4603 21.5 30.4603H9.40625C8.6645 30.4603 8.0625 31.0623 8.0625 31.804V41.6582C8.0625 42.3999 8.6645 43.0019 9.40625 43.0019ZM20.1562 40.3144H10.75V33.1478H20.1562V40.3144Z" fill="white"/>
<path d="M15.6772 33.1478H27.323C28.0648 33.1478 28.6668 32.5458 28.6668 31.804V21.054C28.6668 20.3123 28.0648 19.7103 27.323 19.7103H15.6772C14.9355 19.7103 14.3335 20.3123 14.3335 21.054V31.804C14.3335 32.5458 14.9355 33.1478 15.6772 33.1478ZM25.9793 30.4603H17.021V22.3978H25.9793V30.4603Z" fill="white"/>
<path d="M21.5 43.0019H33.5938C34.3355 43.0019 34.9375 42.3999 34.9375 41.6582V31.804C34.9375 31.0623 34.3355 30.4603 33.5938 30.4603H21.5C20.7582 30.4603 20.1562 31.0623 20.1562 31.804V41.6582C20.1562 42.3999 20.7582 43.0019 21.5 43.0019ZM32.25 40.3144H22.8438V33.1478H32.25V40.3144Z" fill="white"/>
<path d="M21.5 25.0853C22.2418 25.0853 22.8438 24.4833 22.8438 23.7415V21.054C22.8438 20.3123 22.2418 19.7103 21.5 19.7103C20.7582 19.7103 20.1562 20.3123 20.1562 21.054V23.7415C20.1562 24.4833 20.7582 25.0853 21.5 25.0853Z" fill="white"/>
<path d="M27.323 35.8353C28.0648 35.8353 28.6668 35.2333 28.6668 34.4915V31.804C28.6668 31.0623 28.0648 30.4603 27.323 30.4603C26.5813 30.4603 25.9793 31.0623 25.9793 31.804V34.4915C25.9793 35.2333 26.5813 35.8353 27.323 35.8353Z" fill="white"/>
<path d="M15.677 35.8353C16.4187 35.8353 17.0207 35.2333 17.0207 34.4915V31.804C17.0207 31.0623 16.4187 30.4603 15.677 30.4603C14.9352 30.4603 14.3335 31.0623 14.3335 31.804L14.3332 34.4915C14.3332 35.2333 14.9352 35.8353 15.677 35.8353Z" fill="white"/>
<path d="M3.13542 43.0013H39.8646C41.5935 43.0013 43 41.5949 43 39.8659V15.2305C43 14.788 42.7814 14.3741 42.4177 14.1233L22.2615 0.237844C21.8028 -0.0792813 21.1954 -0.0792813 20.7367 0.237844L0.580499 14.1233C0.218582 14.3741 0 14.788 0 15.2305V39.8659C0 41.5949 1.40646 43.0013 3.13542 43.0013ZM40.3125 15.9364V39.8659C40.3125 40.1132 40.1118 40.3138 39.8646 40.3138H3.13542C2.88817 40.3138 2.6875 40.1132 2.6875 39.8659V15.9364L21.5 2.9773L40.3125 15.9364Z" fill="white"/>
</svg>
