<svg width="69" height="69" viewBox="0 0 69 69" fill="none" xmlns="http://www.w3.org/2000/svg">
<path d="M66.9785 25.6063C68.0949 25.6063 69 24.7013 69 23.5849V15.4989C69 14.6818 68.5081 13.9449 67.7533 13.6319L35.2748 0.155317C34.7787 -0.0504702 34.2213 -0.0504702 33.7252 0.155317L1.24672 13.6319C0.491895 13.9449 0 14.6818 0 15.4989V23.5849C0 24.7013 0.905086 25.6063 2.02148 25.6063H5.52539V48.5165H4.85156C3.73516 48.5165 2.83008 49.4216 2.83008 50.538V56.6024H2.02148C0.905086 56.6024 0 57.5075 0 58.6239V66.9794C0 68.0958 0.905086 69.0009 2.02148 69.0009H66.9785C68.0949 69.0009 69 68.0958 69 66.9794V58.6239C69 57.5075 68.0949 56.6024 66.9785 56.6024H66.1699V50.538C66.1699 49.4216 65.2648 48.5165 64.1484 48.5165H63.4746V25.6063H66.9785ZM64.957 60.6454V64.9579H4.04297V60.6454H64.957ZM16.3066 52.5595V56.6024H6.87305V52.5595H16.3066ZM9.56836 48.5165V25.6063H13.6113V48.5165H9.56836ZM18.3281 48.5165H17.6543V25.6063H51.3457V48.5165H50.6719C49.5555 48.5165 48.6504 49.4216 48.6504 50.538V56.6024H20.3496V50.538C20.3496 49.4216 19.4445 48.5165 18.3281 48.5165ZM62.127 52.5595V56.6024H52.6934V52.5595H62.127ZM55.3887 48.5165V25.6063H59.4316V48.5165H55.3887ZM4.04297 21.5634V16.8487L34.5 4.21095L64.957 16.8486V21.5634H4.04297Z" fill="black"/>
<path d="M46.6289 13.4766H22.3711C21.2547 13.4766 20.3496 14.3816 20.3496 15.498C20.3496 16.6144 21.2547 17.5195 22.3711 17.5195H46.6289C47.7453 17.5195 48.6504 16.6144 48.6504 15.498C48.6504 14.3816 47.7453 13.4766 46.6289 13.4766Z" fill="black"/>
</svg>
