<svg width="70" height="70" viewBox="0 0 70 70" fill="none" xmlns="http://www.w3.org/2000/svg">
<g clip-path="url(#clip0_182_7222)">
<path d="M65.8984 39.9561V6.28906C65.8984 5.15633 64.9804 4.23828 63.8477 4.23828H53.457V2.05078C53.457 0.918045 52.539 0 51.4062 0C50.2735 0 49.3555 0.918045 49.3555 2.05078V4.23828H41.1523V2.05078C41.1523 0.918045 40.2343 0 39.1016 0C37.9688 0 37.0508 0.918045 37.0508 2.05078V4.23828H28.8477V2.05078C28.8477 0.918045 27.9296 0 26.7969 0C25.6641 0 24.7461 0.918045 24.7461 2.05078V4.23828H16.543V2.05078C16.543 0.918045 15.6249 0 14.4922 0C13.3595 0 12.4414 0.918045 12.4414 2.05078V4.23828H2.05078C0.918045 4.23828 0 5.15633 0 6.28906V59.7461C0 60.8788 0.918045 61.7969 2.05078 61.7969H36.2038C39.5192 66.7396 45.1572 70 51.543 70C61.72 70 70 61.72 70 51.543C70 47.1584 68.4619 43.1262 65.8984 39.9561ZM12.4414 8.33984V10.3906C12.4414 11.5234 13.3595 12.4414 14.4922 12.4414C15.6249 12.4414 16.543 11.5234 16.543 10.3906V8.33984H24.7461V10.3906C24.7461 11.5234 25.6641 12.4414 26.7969 12.4414C27.9296 12.4414 28.8477 11.5234 28.8477 10.3906V8.33984H37.0508V10.3906C37.0508 11.5234 37.9688 12.4414 39.1016 12.4414C40.2343 12.4414 41.1523 11.5234 41.1523 10.3906V8.33984H49.3555V10.3906C49.3555 11.5234 50.2735 12.4414 51.4062 12.4414C52.539 12.4414 53.457 11.5234 53.457 10.3906V8.33984H61.7969V16.543H4.10156V8.33984H12.4414ZM4.10156 57.6953V20.6445H61.7969V36.2038C58.8622 34.2358 55.3342 33.0859 51.543 33.0859C45.0627 33.0859 39.3526 36.4436 36.0585 41.5096C35.7813 41.3697 35.4689 41.2891 35.1367 41.2891H31.0352C29.9024 41.2891 28.9844 42.2071 28.9844 43.3398C28.9844 44.4726 29.9024 45.3906 31.0352 45.3906H34.1418C33.6787 46.6969 33.3583 48.0705 33.2008 49.4922H31.0352C29.9024 49.4922 28.9844 50.4102 28.9844 51.543C28.9844 52.6757 29.9024 53.5938 31.0352 53.5938H33.2008C33.3583 55.0154 33.6782 56.389 34.1418 57.6953H4.10156ZM51.543 65.8984C43.6272 65.8984 37.1875 59.4588 37.1875 51.543C37.1875 43.6272 43.6272 37.1875 51.543 37.1875C59.4588 37.1875 65.8984 43.6272 65.8984 51.543C65.8984 59.4588 59.4588 65.8984 51.543 65.8984Z" fill="black"/>
<path d="M59.7461 49.4922H53.5938V43.3398C53.5938 42.2071 52.6757 41.2891 51.543 41.2891C50.4102 41.2891 49.4922 42.2071 49.4922 43.3398V51.543C49.4922 52.6757 50.4102 53.5938 51.543 53.5938H59.7461C60.8788 53.5938 61.7969 52.6757 61.7969 51.543C61.7969 50.4102 60.8788 49.4922 59.7461 49.4922Z" fill="black"/>
<path d="M18.5938 24.8828H14.4922C13.3595 24.8828 12.4414 25.8009 12.4414 26.9336C12.4414 28.0663 13.3595 28.9844 14.4922 28.9844H18.5938C19.7265 28.9844 20.6445 28.0663 20.6445 26.9336C20.6445 25.8009 19.7265 24.8828 18.5938 24.8828Z" fill="black"/>
<path d="M18.5938 33.0859H14.4922C13.3595 33.0859 12.4414 34.004 12.4414 35.1367C12.4414 36.2695 13.3595 37.1875 14.4922 37.1875H18.5938C19.7265 37.1875 20.6445 36.2695 20.6445 35.1367C20.6445 34.004 19.7265 33.0859 18.5938 33.0859Z" fill="black"/>
<path d="M18.5938 41.2891H14.4922C13.3595 41.2891 12.4414 42.2071 12.4414 43.3398C12.4414 44.4726 13.3595 45.3906 14.4922 45.3906H18.5938C19.7265 45.3906 20.6445 44.4726 20.6445 43.3398C20.6445 42.2071 19.7265 41.2891 18.5938 41.2891Z" fill="black"/>
<path d="M31.0352 28.9844H35.1367C36.2695 28.9844 37.1875 28.0663 37.1875 26.9336C37.1875 25.8009 36.2695 24.8828 35.1367 24.8828H31.0352C29.9024 24.8828 28.9844 25.8009 28.9844 26.9336C28.9844 28.0663 29.9024 28.9844 31.0352 28.9844Z" fill="black"/>
<path d="M31.0352 37.1875H35.1367C36.2695 37.1875 37.1875 36.2695 37.1875 35.1367C37.1875 34.004 36.2695 33.0859 35.1367 33.0859H31.0352C29.9024 33.0859 28.9844 34.004 28.9844 35.1367C28.9844 36.2695 29.9024 37.1875 31.0352 37.1875Z" fill="black"/>
<path d="M18.5938 49.4922H14.4922C13.3595 49.4922 12.4414 50.4102 12.4414 51.543C12.4414 52.6757 13.3595 53.5938 14.4922 53.5938H18.5938C19.7265 53.5938 20.6445 52.6757 20.6445 51.543C20.6445 50.4102 19.7265 49.4922 18.5938 49.4922Z" fill="black"/>
<path d="M47.4414 28.9844H51.543C52.6757 28.9844 53.5938 28.0663 53.5938 26.9336C53.5938 25.8009 52.6757 24.8828 51.543 24.8828H47.4414C46.3087 24.8828 45.3906 25.8009 45.3906 26.9336C45.3906 28.0663 46.3087 28.9844 47.4414 28.9844Z" fill="black"/>
</g>
<defs>
<clipPath id="clip0_182_7222">
<rect width="70" height="70" fill="white"/>
</clipPath>
</defs>
</svg>
