<svg width="125" height="20" viewBox="0 0 125 20" fill="none" xmlns="http://www.w3.org/2000/svg">
<path d="M114.294 0H99.6044C99.1456 0 98.7456 0.312298 98.6343 0.757465L96.528 9.18275C96.4903 9.33335 96.4882 9.49066 96.5219 9.64221L98.6496 19.2169C98.7513 19.6745 99.1571 20 99.6258 20H114.294C114.847 20 115.294 19.5523 115.294 19V1C115.294 0.447715 114.847 0 114.294 0Z" fill="#A47845"/>
<path d="M123.706 0H119.823C119.271 0 118.823 0.447715 118.823 1V19C118.823 19.5523 119.271 20 119.823 20H123.706C124.258 20 124.706 19.5523 124.706 19V1C124.706 0.447715 124.258 0 123.706 0Z" fill="#AC4242"/>
<path d="M0 0.000188913H7.59941L8.28295 3.69629H4.02085V8.46015H7.27774V11.9098H4.02085V19.9591H0V0.000188913Z" fill="#161616"/>
<path d="M9.48916 0H13.51V16.2628H17.4504L16.7669 19.9589H9.48916V0Z" fill="#161616"/>
<path d="M18.6969 0H26.2963L26.9799 3.6961H22.7178V8.45996H25.9747V11.9097H22.7178V16.2628H26.8191L26.1355 19.9589H18.6969V0Z" fill="#161616"/>
<path d="M35.9464 9.56879L38.7208 19.9589H34.7401L33.2524 12.9363L31.7647 19.9589H27.7841L30.5585 9.56879L27.8645 0H31.7647L33.2122 7.02259L34.7401 0H38.6001L35.9464 9.56879Z" fill="#161616"/>
<path d="M43.5458 17.4949L43.1839 19.9589H39.2837L42.822 0H47.0037L50.542 19.9589H46.6016L46.2397 17.4949H43.5458ZM43.9881 14.3327H45.7974L44.9129 7.22793L43.9881 14.3327Z" fill="#161616"/>
<path d="M61.6798 11.8275C61.6798 12.2793 61.519 12.6899 61.2375 13.0185C60.956 13.3881 60.5138 13.5524 59.9106 13.5524L61.9613 19.9179H57.9002L56.0104 13.5524H55.4877V19.9589H51.5875V0H59.026C59.9508 0 60.6344 0.246407 61.0365 0.698152C61.4788 1.1499 61.6798 1.80698 61.6798 2.58727V11.8275ZM55.5279 3.49076V10.3901H57.4579C57.6992 10.3901 57.8198 10.2669 57.8198 9.97947V3.90144C57.8198 3.61396 57.6992 3.49076 57.4579 3.49076H55.5279Z" fill="#161616"/>
<path d="M73.5011 17.1253C73.5011 17.4949 73.4609 17.8645 73.3805 18.193C73.3001 18.5216 73.1392 18.8501 72.9382 19.0965C72.7371 19.3429 72.4155 19.5483 72.0938 19.7125C71.7319 19.8768 71.2896 19.9589 70.7267 19.9589H66.1832C65.6604 19.9589 65.1779 19.8768 64.8161 19.7125C64.4542 19.5483 64.1727 19.3429 63.9717 19.0965C63.7706 18.8501 63.6098 18.5216 63.5294 18.193C63.449 17.8645 63.4088 17.4949 63.4088 17.1253V2.58727C63.4088 1.80698 63.6098 1.1499 64.0521 0.698152C64.4944 0.246407 65.1377 0 66.0625 0H70.9278C71.8526 0 72.5361 0.246407 72.9382 0.698152C73.3805 1.1499 73.5815 1.80698 73.5815 2.58727V17.1253H73.5011ZM67.6709 3.49076C67.4296 3.49076 67.309 3.61396 67.309 3.86037V16.0164C67.309 16.1807 67.3492 16.2628 67.3894 16.345C67.4296 16.4271 67.5502 16.4271 67.7111 16.4271H69.1988C69.3596 16.4271 69.4803 16.386 69.5205 16.345C69.5607 16.2628 69.6009 16.1807 69.6009 16.0164V3.90144C69.6009 3.65503 69.4803 3.53183 69.239 3.53183H67.6709V3.49076Z" fill="#161616"/>
<path d="M78.2055 19.9591C77.0797 19.9591 76.2755 19.7126 75.8332 19.2609C75.3909 18.7681 75.1496 17.9878 75.1496 16.879V2.46418C75.1496 1.68389 75.3507 1.06788 75.793 0.6572C76.2353 0.246523 76.7982 0.0411839 77.4415 0.0411839H82.5882L83.2718 3.73728H79.5324C79.2911 3.73728 79.1705 3.86049 79.1705 4.10689V15.8523C79.1705 16.0987 79.2911 16.2219 79.5324 16.2219H83.2718L82.5882 19.918H78.2055V19.9591Z" fill="#161616"/>
<path d="M88.6195 8.58316H89.2226L91.2331 0.0410679H95.2941L92.962 9.24025L95.2941 20H90.9918L89.4639 11.7864H88.6999V20H84.7193V0H88.6999V8.58316H88.6195Z" fill="#161616"/>
</svg>
