<svg width="11" height="8" viewBox="0 0 11 8" fill="none" xmlns="http://www.w3.org/2000/svg">
<path d="M10.0177 0H0.982213C0.716219 0 0.485973 0.0890269 0.291536 0.266988C0.0973178 0.445171 0 0.659106 0 0.909124C0 1.20837 0.100373 1.49436 0.300583 1.76701C0.501151 2.03965 0.75071 2.2727 1.04942 2.46582C2.04261 3.10389 2.79208 3.5856 3.30098 3.91289C3.58066 4.09265 3.78867 4.2265 3.92216 4.31248C3.94195 4.32536 3.97287 4.34572 4.01395 4.373C4.05818 4.4023 4.11416 4.43964 4.18308 4.4858C4.31609 4.57485 4.42657 4.64679 4.51456 4.70177C4.60271 4.75663 4.70904 4.81819 4.83382 4.8864C4.95871 4.95463 5.07632 5.00575 5.18678 5.03982C5.2973 5.07387 5.39961 5.09095 5.4937 5.09095H5.50592C5.60002 5.09095 5.70231 5.07387 5.81281 5.03982C5.92329 5.00575 6.041 4.95452 6.1658 4.8864C6.2907 4.81819 6.39716 4.75676 6.48504 4.70177C6.57303 4.64679 6.68351 4.57483 6.8165 4.4858C6.88555 4.43964 6.94153 4.40232 6.98577 4.37291L6.98996 4.37014C7.02894 4.34434 7.05844 4.32481 7.07744 4.31248C7.24879 4.20094 7.45633 4.06653 7.69698 3.91132C7.97931 3.72905 8.30785 3.51784 8.68564 3.27551C9.38548 2.82671 9.80495 2.55679 9.94405 2.46582C10.1978 2.30675 10.4372 2.08806 10.6622 1.80965C10.8872 1.53113 10.9998 1.27261 10.9998 1.03401C10.9998 0.738631 10.915 0.492328 10.7451 0.295382C10.5753 0.0985284 10.3329 0 10.0177 0Z" fill="#A47845"/>
<path d="M0.613895 3.07388C1.44998 3.59768 2.16059 4.04862 2.74581 4.42693L6.50285e-05 6.96856V2.5795C0.17611 2.76141 0.380693 2.92612 0.613895 3.07388Z" fill="#A47845"/>
<path d="M11 2.5795C10.82 2.76515 10.6132 2.92996 10.38 3.07388C9.51072 3.62064 8.80269 4.07081 8.25317 4.42592L11 6.96845V2.5795Z" fill="#A47845"/>
<path d="M0.338644 7.77521C0.52078 7.92443 0.735029 8 0.982289 8H10.0178C10.2651 8 10.4795 7.92443 10.6616 7.77521L7.54452 4.88966C7.46655 4.94148 7.39443 4.98989 7.32941 5.03402C7.09607 5.19308 6.90688 5.31718 6.76155 5.40611C6.61636 5.49525 6.423 5.58611 6.1815 5.67887C5.93999 5.77176 5.71497 5.81803 5.50622 5.81803H5.49399C5.28526 5.81803 5.06024 5.77174 4.81871 5.67887C4.57735 5.58611 4.38399 5.49525 4.23866 5.40611C4.09331 5.31718 3.90402 5.19307 3.6708 5.03402C3.60234 4.98819 3.52987 4.94 3.4551 4.89044L0.338644 7.77521Z" fill="#A47845"/>
</svg>
