<svg width="45" height="42" viewBox="0 0 45 42" fill="none" xmlns="http://www.w3.org/2000/svg">
<path d="M44.9656 15.8727C44.9655 15.8051 44.9504 15.703 44.9241 15.6442C44.855 15.3936 44.7013 15.1647 44.4712 15.0049L38.0295 10.5318V5.73662C38.0295 5.10097 37.5134 4.58542 36.8771 4.58542H29.4662L23.1607 0.206229C22.7666 -0.067789 22.2434 -0.0689304 21.848 0.203946L15.5018 4.58542H8.12338C7.48688 4.58542 6.97096 5.10097 6.97096 5.73662V10.4753L0.497988 14.9443C0.179561 15.1642 0.00729492 15.5156 0.0018457 15.875C0.00149414 15.8818 0 15.8882 0 15.8952L0.0343652 40.8505C0.0348047 41.1557 0.156621 41.4484 0.37292 41.664C0.588955 41.8792 0.881631 42 1.18679 42C1.1874 42 1.18784 42 1.18837 42L43.8492 41.9414C44.4855 41.9406 45.0009 41.4244 45 40.7887L44.9656 15.8727ZM38.0294 13.336L41.7118 15.8925L38.0294 18.4499V13.336ZM22.5013 2.55228L25.429 4.58533H19.5568L22.5013 2.55228ZM9.2758 6.88783H35.7246V20.0506L26.8444 26.2177L23.2239 23.4122C23.2182 23.4078 23.2134 23.4051 23.208 23.4011C22.8033 23.0979 22.231 23.0867 21.811 23.4122L18.1642 26.238L9.2758 20.1015V6.88783ZM6.97096 13.2741V18.5104L3.17883 15.8923L6.97096 13.2741ZM2.30783 18.091L16.2533 27.7185L2.33596 38.5022L2.30783 18.091ZM4.55933 39.693L22.5175 25.7784L40.4112 39.6438L4.55933 39.693ZM28.7529 27.6965L42.6639 18.0355L42.692 38.4977L28.7529 27.6965Z" fill="#A47845"/>
<path d="M30.3021 11.4927H14.6983C14.062 11.4927 13.5459 12.0082 13.5459 12.6439C13.5459 13.2795 14.062 13.7951 14.6983 13.7951H30.3021C30.9386 13.7951 31.4545 13.2795 31.4545 12.6439C31.4545 12.0082 30.9386 11.4927 30.3021 11.4927Z" fill="#A47845"/>
<path d="M30.3021 17.4789H14.6983C14.062 17.4789 13.5459 17.9945 13.5459 18.6301C13.5459 19.2658 14.062 19.7813 14.6983 19.7813H30.3021C30.9386 19.7813 31.4545 19.2658 31.4545 18.6301C31.4545 17.9945 30.9386 17.4789 30.3021 17.4789Z" fill="#A47845"/>
</svg>
