<svg width="45" height="45" viewBox="0 0 45 45" fill="none" xmlns="http://www.w3.org/2000/svg">
<path fill-rule="evenodd" clip-rule="evenodd" d="M43.7149 26.8199L34.64 17.7448L34.0184 18.3664L24.1838 8.53195C26.4945 7.31616 29.248 6.82133 32.2132 7.12192L32.8022 7.18169L36.382 3.89229L32.4865 0.20985L32.0399 0.164586C25.7682 -0.471127 20.1015 1.39005 16.0856 5.40594C12.0698 9.42175 10.2083 15.0878 10.8443 21.3603L10.8896 21.8068L12.4706 23.4794L12.4049 23.5267C12.3552 23.5624 12.3055 23.598 12.2566 23.6352C11.1529 24.4729 10.2053 25.5052 9.45642 26.6637L8.83802 25.4783L10.2078 16.2276L0 5.092V44.9576H40.2348L32.7216 38.947L30.183 38.1008C30.9102 36.5406 31.2906 34.8358 31.2906 33.0918C31.2906 26.5491 25.9675 21.2261 19.4248 21.2261C18.8709 21.2261 18.3235 21.2658 17.7843 21.3398C17.5242 18.4483 18.0224 15.7642 19.2117 13.5043L29.0463 23.3389L28.4247 23.9604L37.4997 33.0354C38.3296 33.8655 39.4333 34.3227 40.6072 34.3227C41.7686 34.3227 42.8611 33.8753 43.6881 33.062L43.7152 33.0351C45.4284 31.3214 45.4284 28.5334 43.7149 26.8199ZM28.6537 33.0918C28.6537 28.003 24.5136 23.8629 19.4246 23.8628C18.0201 23.8628 16.6662 24.1724 15.4308 24.7677L14.5719 25.7024L14.3014 25.4161C14.149 25.5182 13.9982 25.6236 13.8509 25.7354C12.5692 26.7082 11.5562 28.0153 10.9286 29.4854L13.5947 34.5957L16.4144 34.9541L23.2933 35.8284L23.4107 35.8433L27.6606 37.26C28.3122 35.9745 28.6537 34.551 28.6537 33.0918ZM31.4416 41.2998L32.7177 42.3208H2.63681V11.8707L7.41533 17.0837L6.10418 25.9391L11.8947 37.0377L22.8219 38.4267L31.4416 41.2998ZM22.2087 10.2858L20.9654 11.5291L30.9105 21.4744L32.1539 20.231L22.2087 10.2858ZM41.8577 31.163L41.85 31.1707C41.518 31.5027 41.0766 31.6856 40.607 31.6856C40.1374 31.6856 39.696 31.5027 39.3638 31.1707L32.1534 23.9603L34.6398 21.4738L41.8503 28.6843C42.5333 29.3673 42.5357 30.477 41.8577 31.163ZM17.2362 11.5291L17.3921 11.3732C17.9744 10.4366 18.6631 9.56642 19.4546 8.77497C20.246 7.98351 21.1162 7.2948 22.0529 6.71244L22.2086 6.5567L22.2471 6.59519C24.9998 4.94276 28.3093 4.19349 31.8814 4.44706L32.5147 3.86505L31.3327 2.74778C26.0416 2.32037 21.3022 3.91813 17.95 7.27037C14.5979 10.6225 13.0003 15.3613 13.4274 20.6531L14.5447 21.8351L15.1267 21.2017C14.8733 17.6297 15.6225 14.3202 17.2747 11.5676L17.2362 11.5291Z" fill="white"/>
</svg>
