<svg width="96" height="96" viewBox="0 0 96 96" fill="none" xmlns="http://www.w3.org/2000/svg">
<path d="M91.7769 33.8001C89.1844 30.9916 85.4921 29.4401 81.3874 29.4401H71.5085V24.098C71.5085 22.8018 70.4479 21.7412 69.1517 21.7412H22.0944C20.7982 21.7412 19.7376 22.8018 19.7376 24.098V32.3075H10.5658C9.26954 32.3075 8.20898 33.3681 8.20898 34.6643C8.20898 35.9605 9.26954 37.0211 10.5658 37.0211H22.0355C22.0551 37.0211 22.0748 37.0211 22.0944 37.0211C22.0944 37.0211 22.0944 37.0211 22.1141 37.0211C23.4103 37.0211 24.4708 35.9605 24.4708 34.6643V26.4548H66.8145V31.7969V63.3975H44.6214C44.5232 63.3975 44.425 63.3975 44.3268 63.4172C43.1484 60.5104 40.3006 58.4482 36.9815 58.4482C33.6427 58.4482 30.7949 60.5301 29.6361 63.4564C29.4594 63.4172 29.3023 63.3975 29.1255 63.3975H24.4708V55.1684C24.4708 53.8721 23.4103 52.8116 22.1141 52.8116C22.0748 52.8116 22.0355 52.8116 21.9962 52.8116C21.9569 52.8116 21.9373 52.8116 21.898 52.8116H10.5658C9.26954 52.8116 8.20898 53.8721 8.20898 55.1684C8.20898 56.4646 9.26954 57.5252 10.5658 57.5252H19.7376V65.7347C19.7376 67.0309 20.7982 68.0915 22.0944 68.0915H29.1059C29.1648 68.0915 29.2041 68.0915 29.263 68.0915C30.0486 71.6266 33.2106 74.2584 36.9815 74.2584C40.7523 74.2584 43.8947 71.6266 44.7 68.0915H69.1713H72.9422C73.7474 71.607 76.8898 74.2584 80.6607 74.2584C84.4316 74.2584 87.574 71.6266 88.3792 68.0915H93.6427C94.9389 68.0915 95.9995 67.0309 95.9995 65.7347V46.1537C95.9995 41.0669 94.5265 36.7854 91.7769 33.8001ZM36.9815 69.5645C35.2139 69.5645 33.7802 68.1307 33.7802 66.3631C33.7802 64.5955 35.2139 63.1618 36.9815 63.1618C38.7491 63.1618 40.1828 64.5955 40.1828 66.3631C40.1828 68.1307 38.7491 69.5645 36.9815 69.5645ZM80.6607 69.5645C78.8931 69.5645 77.4594 68.1307 77.4594 66.3631C77.4594 64.5955 78.8931 63.1618 80.6607 63.1618C82.4283 63.1618 83.862 64.5955 83.862 66.3631C83.8424 68.1307 82.4087 69.5645 80.6607 69.5645ZM91.2859 63.3975H87.9864C86.808 60.5104 83.9602 58.4482 80.6607 58.4482C77.3612 58.4482 74.5134 60.4908 73.335 63.3975H71.5281V34.1536H81.407C87.5936 34.1536 91.2859 38.6512 91.2859 46.1733V63.3975Z" fill="black"/>
<path d="M40.4779 49.3352C39.5548 50.2582 39.5548 51.7509 40.4779 52.6739C40.9296 53.1257 41.5385 53.3613 42.1473 53.3613C42.7561 53.3613 43.3453 53.1257 43.8167 52.6739L49.8854 46.6052L49.9051 46.5856C49.9444 46.5266 50.0033 46.4874 50.0426 46.4284C50.0622 46.3892 50.0818 46.3695 50.1015 46.3302C50.1211 46.291 50.1408 46.2713 50.18 46.232C50.1997 46.1928 50.2193 46.1535 50.239 46.1142C50.2586 46.0749 50.2782 46.0553 50.2979 46.016C50.3175 45.9767 50.3372 45.9374 50.3568 45.8982C50.3764 45.8589 50.3961 45.8392 50.3961 45.8C50.4157 45.7607 50.4157 45.7214 50.4353 45.6821C50.455 45.6428 50.455 45.6036 50.4746 45.5839C50.4943 45.5446 50.4943 45.5054 50.4943 45.4661C50.4943 45.4268 50.5139 45.3875 50.5139 45.3482C50.5139 45.309 50.5336 45.2697 50.5336 45.2108C50.5336 45.1715 50.5532 45.1518 50.5532 45.1126C50.5728 44.9554 50.5728 44.7983 50.5532 44.6412C50.5532 44.6019 50.5532 44.5823 50.5336 44.543C50.5336 44.5037 50.5139 44.4645 50.5139 44.4055C50.5139 44.3663 50.4943 44.327 50.4943 44.2877C50.4943 44.2484 50.4746 44.2091 50.4746 44.1698C50.455 44.1306 50.455 44.0913 50.4353 44.0717C50.4157 44.0324 50.4157 43.9931 50.3961 43.9538C50.3764 43.9145 50.3568 43.8949 50.3568 43.8556C50.3372 43.8163 50.3175 43.7771 50.2979 43.7378C50.2782 43.6985 50.2586 43.6789 50.239 43.6396C50.2193 43.6003 50.1997 43.561 50.18 43.5217C50.1604 43.4825 50.1408 43.4628 50.1015 43.4235C50.0818 43.3843 50.0622 43.3646 50.0426 43.3253C50.0033 43.2664 49.9444 43.2271 49.9051 43.1682L49.8854 43.1486L44.1113 37.3744C43.1882 36.4514 41.6956 36.4514 40.7725 37.3744C39.8494 38.2975 39.8494 39.7901 40.7725 40.7132L42.5205 42.4612H2.35679C1.06056 42.4612 0 43.5217 0 44.818C0 46.1142 1.06056 47.1748 2.35679 47.1748H42.5008L40.4779 49.3352Z" fill="black"/>
</svg>
