<svg width="41" height="45" viewBox="0 0 41 45" fill="none" xmlns="http://www.w3.org/2000/svg">
<path d="M40.3139 25.0981C40.3139 22.913 38.5362 21.1353 36.3511 21.1353H25.7899C26.648 19.6095 27.1045 15.2393 27.1045 13.441C27.1045 10.4001 24.6305 7.92603 21.5896 7.92603H20.4999C19.7704 7.92603 19.179 8.51744 19.179 9.24693C19.179 12.3015 17.9896 17.8149 15.8298 19.9746L15.7459 20.0584C14.2535 21.5508 12.9996 22.0877 11.2535 22.9608V22.4562C11.2535 21.7267 10.6621 21.1353 9.93257 21.1353H2.00694C1.27745 21.1353 0.686035 21.7267 0.686035 22.4562V43.6791C0.686035 44.4086 1.27745 45 2.00694 45H9.93248C10.662 45 11.2534 44.4086 11.2534 43.6791V42.8699C13.8723 43.743 17.1385 45 22.1453 45H31.0674C33.2524 45 35.0302 43.2224 35.0302 41.0372C35.0302 40.5219 34.9313 40.0293 34.7516 39.5773C36.4326 39.1185 37.6721 37.578 37.6721 35.7535C37.6721 35.2382 37.5732 34.7456 37.3935 34.2936C39.0745 33.8348 40.314 32.2943 40.314 30.4698C40.314 29.4699 39.9488 28.5146 39.2821 27.7623C39.9227 27.0581 40.3139 26.1228 40.3139 25.0981ZM8.61157 42.3582H3.32785V23.7772H8.61157V42.3582ZM36.3511 31.7908C35.3551 31.7908 29.2396 31.7908 28.4255 31.7908C27.6961 31.7908 27.1046 32.3822 27.1046 33.1117C27.1046 33.8412 27.6961 34.4326 28.4255 34.4326H33.7093C34.4376 34.4326 35.0302 35.0252 35.0302 35.7535C35.0302 36.4819 34.4376 37.0744 33.7093 37.0744C33.1493 37.0744 28.9855 37.0744 28.4255 37.0744C27.6961 37.0744 27.1046 37.6658 27.1046 38.3953C27.1046 39.1248 27.6961 39.7162 28.4255 39.7162H31.0674C31.7957 39.7162 32.3883 40.3088 32.3883 41.0372C32.3883 41.7655 31.7957 42.3581 31.0674 42.3581H22.1452C17.5353 42.3581 14.6756 41.2258 11.2534 40.0851V25.9144C14.2067 24.4378 15.6726 23.8674 17.6978 21.8427C20.0416 19.4989 21.4571 13.8325 21.7597 10.5729C23.2651 10.6611 24.4627 11.9138 24.4627 13.4409C24.4627 15.4943 23.663 20.0668 22.2078 21.5221C21.8301 21.8998 21.717 22.4681 21.9215 22.9617C22.1259 23.4552 22.6075 23.7771 23.1418 23.7771H36.351C37.0793 23.7771 37.6719 24.3697 37.6719 25.098C37.6719 25.8264 37.0794 26.419 36.3511 26.419H28.4255C27.6961 26.419 27.1046 27.0104 27.1046 27.7399C27.1046 28.4694 27.6961 29.0608 28.4255 29.0608H36.3511C37.0547 29.0608 37.672 29.7193 37.672 30.4698C37.672 31.1982 37.0794 31.7908 36.3511 31.7908Z" fill="white"/>
<path d="M20.3604 3.37238L19.0395 0.73048C18.7133 0.0780679 17.9199 -0.186571 17.2673 0.139767C16.6148 0.466017 16.3504 1.25949 16.6766 1.91199L17.9975 4.55381C18.3238 5.20649 19.1173 5.47069 19.7697 5.14452C20.4222 4.81836 20.6866 4.02488 20.3604 3.37238Z" fill="white"/>
<path d="M29.0162 0.139828C28.3641 -0.186334 27.5703 0.0780408 27.2441 0.730541L25.9231 3.37244C25.5968 4.02494 25.8613 4.81842 26.5138 5.14467C27.1664 5.47101 27.9598 5.20628 28.2859 4.55396L29.6068 1.91214C29.9332 1.25955 29.6687 0.466166 29.0162 0.139828Z" fill="white"/>
<path d="M33.7092 7.92596H31.0674C30.3379 7.92596 29.7465 8.51738 29.7465 9.24687C29.7465 9.97636 30.3379 10.5678 31.0674 10.5678H33.7092C34.4387 10.5678 35.0301 9.97636 35.0301 9.24687C35.0301 8.51738 34.4387 7.92596 33.7092 7.92596Z" fill="white"/>
<path d="M15.2161 7.92596H12.5743C11.8448 7.92596 11.2534 8.51738 11.2534 9.24687C11.2534 9.97636 11.8448 10.5678 12.5743 10.5678H15.2161C15.9456 10.5678 16.5371 9.97636 16.5371 9.24687C16.5371 8.51738 15.9456 7.92596 15.2161 7.92596Z" fill="white"/>
</svg>
