<svg width="72" height="72" viewBox="0 0 72 72" fill="none" xmlns="http://www.w3.org/2000/svg">
<g clip-path="url(#clip0_182_7305)">
<path d="M55.1698 38.801L44.4382 36.4171V34.6371C47.8811 32.8365 50.2374 29.2316 50.2374 25.0844V12.0158C52.6207 9.55884 53.8269 6.23348 53.8269 2.10938C53.8269 0.944437 52.8824 0 51.7175 0H31.1152C25.3758 0 20.7062 4.66945 20.7062 10.4091C20.706 11.7911 20.7062 23.4447 20.7062 25.0844C20.7062 29.6411 23.5507 33.5433 27.5562 35.116V36.4174L16.8307 38.8007C12.0335 39.8665 8.57178 44.1302 8.57178 49.0964V69.8906C8.57178 71.0556 9.51621 72 10.6812 72C11.8461 72 12.7905 71.0556 12.7905 69.8906V49.0964C12.7905 46.1076 14.8282 43.5675 17.7459 42.9189L25.8031 41.1285L23.7015 45.3433C22.0075 48.741 25.0219 52.5617 28.7052 51.7403L33.1589 50.7476L29.7381 64.9692C29.5707 65.6647 29.7673 66.3978 30.2605 66.9163L34.4722 71.3444C35.2845 72.1983 36.6384 72.2199 37.4777 71.3966L41.9927 66.9684C42.5309 66.4407 42.7465 65.6657 42.5582 64.9358L38.9032 50.7613C43.2602 51.6995 43.4414 51.851 44.2932 51.851C47.5488 51.851 49.8174 48.3874 48.2997 45.3434L46.1988 41.13L54.2548 42.9195C57.1728 43.5677 59.2107 46.1081 59.2107 49.0971V69.8906C59.2107 71.0556 60.1551 72 61.3201 72C62.485 72 63.4295 71.0556 63.4295 69.8906V49.097C63.4296 44.183 60.019 39.8786 55.1698 38.801ZM40.2194 37.5L36.0007 44.0553L31.7749 37.4891V35.8594C39.7722 35.8476 39.4304 35.8848 40.2194 35.8298V37.5ZM24.9249 10.4091C24.9249 6.99581 27.7018 4.21875 31.1152 4.21875H49.4623C49.1159 6.56283 48.1503 8.36648 46.5383 9.69694C41.4896 13.8635 31.2002 12.4304 27.0108 11.621C26.3188 11.4871 25.6106 11.4913 24.9251 11.6335V10.4091H24.9249ZM24.9249 25.0844C24.9249 24.2398 24.9249 17.7119 24.9249 16.8699C24.931 16.8512 24.8709 16.3645 25.3097 15.9961C25.457 15.8726 25.7697 15.6786 26.2104 15.7631C32.406 16.9604 40.2618 17.5029 46.0187 14.9172V25.0844C46.0187 28.6995 43.0775 31.6406 39.4625 31.6406H31.4811C27.8661 31.6406 24.9249 28.6995 24.9249 25.0844ZM27.5069 47.5224C27.3511 47.3231 27.2537 47.6738 29.8985 42.3692L32.5905 46.5521C27.3514 47.7198 27.6618 47.7203 27.5069 47.5224ZM36.053 66.8848L34.1082 64.8402L36.0718 56.6768L38.169 64.8094L36.053 66.8848ZM44.4944 47.5224C44.3395 47.7205 44.65 47.72 39.4108 46.5522L42.1028 42.3693C44.7415 47.6612 44.6502 47.323 44.4944 47.5224Z" fill="black"/>
<path d="M21.2344 53.7622C20.0694 53.7622 19.125 54.7066 19.125 55.8716V69.8907C19.125 71.0557 20.0694 72.0001 21.2344 72.0001C22.3993 72.0001 23.3438 71.0557 23.3438 69.8907V55.8716C23.3438 54.7065 22.3993 53.7622 21.2344 53.7622Z" fill="black"/>
<path d="M50.7656 53.7622C49.6007 53.7622 48.6562 54.7066 48.6562 55.8716V69.8907C48.6562 71.0557 49.6007 72.0001 50.7656 72.0001C51.9306 72.0001 52.875 71.0557 52.875 69.8907V55.8716C52.875 54.7065 51.9306 53.7622 50.7656 53.7622Z" fill="black"/>
</g>
<defs>
<clipPath id="clip0_182_7305">
<rect width="72" height="72" fill="white"/>
</clipPath>
</defs>
</svg>
