<svg width="40" height="46" viewBox="0 0 40 46" fill="none" xmlns="http://www.w3.org/2000/svg">
<path d="M17.5012 16.9378C20.5044 16.9378 22.9476 14.4793 22.9476 11.4573C22.9476 8.43534 20.5044 5.97685 17.5012 5.97685C14.4979 5.97685 12.0547 8.43534 12.0547 11.4573C12.0547 14.4793 14.4979 16.9378 17.5012 16.9378ZM17.5012 8.67217C19.0274 8.67217 20.269 9.92163 20.269 11.4573C20.269 12.993 19.0274 14.2425 17.5012 14.2425C15.9749 14.2425 14.7333 12.993 14.7333 11.4573C14.7333 9.92163 15.9749 8.67217 17.5012 8.67217Z" fill="#A47845"/>
<path d="M40 20.3047C40 18.0754 38.1976 16.2617 35.9821 16.2617H27.8421C31.232 8.92113 26.033 0 17.5012 0C8.99893 0 3.75446 8.89354 7.16009 16.2617H4.01786C1.80241 16.2617 0 18.0754 0 20.3047V41.957C0 44.1863 1.80241 46 4.01786 46H35.9821C38.1976 46 40 44.1863 40 41.957C40 41.5973 40 20.6763 40 20.3047ZM37.3214 36.7546L32.5 32L37.3214 27.8095V36.7546ZM37.3214 20.3047V25.1416L14.8259 42.7465L6.87366 34.7445L14.11 27.4629L16.3704 31.0467C16.8955 31.8793 18.1063 31.8802 18.6319 31.0467L26.2574 18.957H35.9821C36.7206 18.957 37.3214 19.5616 37.3214 20.3047ZM17.5012 2.69531C24.0367 2.69531 28.6348 9.8723 24.8175 16.2101L17.5012 27.8095C16.7938 26.6879 10.1894 16.217 10.1825 16.2063C6.46705 10.4222 10.5813 2.69531 17.5012 2.69531ZM4.01786 18.957H8.745L12.6392 25.1312L2.67857 35.1541V20.3047C2.67857 19.5616 3.27937 18.957 4.01786 18.957ZM2.67857 41.957V38.9658L4.97955 36.6504L11.5926 43.3047H4.01786C3.27937 43.3047 2.67857 42.7001 2.67857 41.957ZM35.9821 43.3047H18.0592L30.5 33.5L37.3214 40.5663V41.957C37.3214 42.7001 36.7206 43.3047 35.9821 43.3047Z" fill="#A47845"/>
</svg>
