<svg width="46" height="46" viewBox="0 0 46 46" fill="none" xmlns="http://www.w3.org/2000/svg">
<path d="M36.5664 32.5234C33.3887 32.5234 29.8938 33.6986 28.132 36.2034L18.842 34.3741C18.9932 32.8453 18.4641 31.3031 17.1893 29.9993L22.9593 25.9246C24.5343 26.7088 26.4204 27.1328 28.3906 27.1328C32.8751 27.1328 37.8242 24.6798 37.8242 20.3945C37.8242 16.5181 33.7214 14.1222 29.7383 13.7232V10.7812H40.5195V0H27.043V13.7232C23.055 14.1226 18.957 16.5335 18.957 20.3945C18.957 21.8149 19.5434 23.15 20.635 24.2663L14.8649 28.341C13.29 27.5568 11.4038 27.1328 9.43359 27.1328C4.94913 27.1328 0 29.5858 0 33.8711C0 38.1581 4.95201 40.6094 9.43359 40.6094C12.6372 40.6094 16.117 39.4188 17.868 36.9294L27.158 38.7587C26.707 43.3189 31.8997 46 36.5664 46C41.0509 46 46 43.547 46 39.2617C46 34.9747 41.048 32.5234 36.5664 32.5234ZM29.7383 2.69531H37.8242V8.08594H29.7383V2.69531ZM27.043 16.4367V20.3945H29.7383V16.4367C32.7712 16.8233 35.1289 18.479 35.1289 20.3945C35.1289 22.5861 32.0431 24.4375 28.3906 24.4375C24.7381 24.4375 21.6523 22.5861 21.6523 20.3945C21.6523 18.479 24.01 16.8233 27.043 16.4367ZM9.43359 37.9141C5.78109 37.9141 2.69531 36.0627 2.69531 33.8711C2.69531 31.6795 5.78109 29.8281 9.43359 29.8281C13.0861 29.8281 16.1719 31.6795 16.1719 33.8711C16.1719 36.0627 13.0861 37.9141 9.43359 37.9141ZM36.5664 43.3047C32.9139 43.3047 29.8281 41.4533 29.8281 39.2617C29.8281 37.0702 32.9139 35.2188 36.5664 35.2188C40.2189 35.2188 43.3047 37.0702 43.3047 39.2617C43.3047 41.4533 40.2189 43.3047 36.5664 43.3047Z" fill="white"/>
</svg>
