<svg width="53" height="73" viewBox="0 0 53 73" fill="none" xmlns="http://www.w3.org/2000/svg">
<path d="M26.4998 0C11.9219 0 0.0620117 11.8599 0.0620117 26.4377C0.0620117 44.5291 23.7213 71.0885 24.7286 72.2103C25.6747 73.2641 27.3267 73.2622 28.2711 72.2103C29.2784 71.0885 52.9377 44.5291 52.9377 26.4377C52.9374 11.8599 41.0776 0 26.4998 0ZM26.4998 66.9731C18.5373 57.5147 4.82298 38.8542 4.82298 26.438C4.82298 14.4851 14.5471 4.76097 26.4998 4.76097C38.4526 4.76097 48.1767 14.4851 48.1767 26.4378C48.1766 38.8547 34.4644 57.5117 26.4998 66.9731Z" fill="black"/>
</svg>
