<svg width="89" height="64" viewBox="0 0 89 64" fill="none" xmlns="http://www.w3.org/2000/svg">
<path d="M62.3423 18.4584L62.6154 18.2847L65.782 16.2713C66.2585 15.9669 66.5464 15.4408 66.5464 14.8749C66.5464 14.309 66.2586 13.7831 65.7824 13.4786L62.3423 18.4584ZM62.3423 18.4584L62.6199 18.625M62.3423 18.4584L62.6199 18.625M62.6199 18.625L87.996 33.8514M62.6199 18.625L87.996 33.8514M87.996 33.8514C88.4921 34.1491 88.7967 34.6851 88.8 35.2646M87.996 33.8514L88.8 35.2646M88.8 35.2646C88.7996 35.8436 88.502 36.379 88.006 36.6835L88.8 35.2646ZM45.3868 0.49991L65.782 13.4784L88.0054 36.6839L45.3603 62.6416L45.3598 62.6419C45.0955 62.8037 44.7981 62.8831 44.5 62.8831C44.2019 62.8831 43.9045 62.8037 43.6402 62.6419L43.6398 62.6416L0.994018 36.6834L0.993753 36.6832C0.497668 36.3823 0.196771 35.8431 0.200029 35.2645V35.2633C0.200029 34.6857 0.507192 34.1495 1.00405 33.8514L26.3765 18.6288L26.6539 18.4624L26.3811 18.2886L23.2143 16.2715C23.2143 16.2715 23.2143 16.2714 23.2142 16.2714C22.7379 15.967 22.45 15.441 22.45 14.875C22.45 14.3091 22.7379 13.783 23.2144 13.4788L43.6097 0.49991C43.6097 0.499892 43.6098 0.499874 43.6098 0.499856C44.1526 0.155653 44.844 0.155672 45.3868 0.49991ZM44.6074 3.92617L44.5 3.85786L44.3927 3.92617L27.4493 14.7063L27.1841 14.875L27.4493 15.0438L44.3927 25.8239L44.5 25.8922L44.6074 25.8239L61.5507 15.0438L61.816 14.875L61.5507 14.7063L44.6074 3.92617ZM29.8779 20.5135L29.7737 20.4472L29.6677 20.5107L27.2238 21.9756L26.9461 22.142L27.2193 22.3159L44.3926 33.2443L44.5 33.3126L44.6074 33.2442L61.7769 22.3157L62.0497 22.1421L61.7725 21.9755L59.3287 20.507L59.2227 20.4433L59.1183 20.5097L45.3864 29.2503L45.3858 29.2507C45.1189 29.422 44.8081 29.5083 44.5 29.5083C44.1921 29.5083 43.8807 29.4221 43.6095 29.2501L29.8779 20.5135ZM5.33729 35.1031L5.05344 35.2733L5.33614 35.4455L23.5293 46.5223L23.6357 46.587L23.7407 46.5202L41.155 35.4397L41.4202 35.271L41.155 35.1022L23.8815 24.1107L23.7773 24.0444L23.6713 24.108L5.33729 35.1031ZM44.396 59.2269L44.5 59.2902L44.604 59.2269L61.9404 48.6731L62.2149 48.506L61.9438 48.3335L44.6074 37.3012L44.5 37.2328L44.3926 37.3012L27.0562 48.3333L26.7852 48.5058L27.0596 48.6729L44.396 59.2269ZM65.2595 46.5238L65.3645 46.5907L65.4709 46.5259L83.6641 35.4493L83.9467 35.2772L83.6629 35.1069L65.3289 24.108L65.223 24.0444L65.1187 24.1107L47.8452 35.1022L47.5801 35.271L47.8452 35.4397L65.2595 46.5238Z" fill="black" stroke="white" stroke-width="0.4"/>
</svg>
