<svg width="45" height="45" viewBox="0 0 45 45" fill="none" xmlns="http://www.w3.org/2000/svg">
<path d="M13.8064 43.4615L16.6772 44.2307C19.5532 45.0013 22.3586 44.5084 24.8645 42.8076L25.4519 44.9999L28.3228 44.2307C31.1987 43.4602 33.3818 41.6307 34.7015 38.9047L36.3064 40.5094L38.408 38.408C40.5134 36.3025 41.4892 33.6266 41.2692 30.6061L43.4615 31.1936L44.2307 28.3227C45.0013 25.4467 44.5084 22.6414 42.8076 20.1355L44.9999 19.5481L44.2307 16.6772C43.3131 13.253 41.095 11.3517 38.9069 10.2963L40.5095 8.6936L38.4081 6.59204C37.1582 5.34239 35.6903 4.4853 34.0449 4.0444C32.9497 3.75097 31.7991 3.64631 30.6063 3.73041L31.1936 1.5386L28.3228 0.769388C25.4468 -0.0012303 22.6414 0.491688 20.1356 2.19251L19.548 0L16.6771 0.769212C13.8012 1.53974 11.6182 3.36922 10.2984 6.09526L8.69351 4.49048L6.59195 6.59195C4.48653 8.69738 3.51071 11.3733 3.73076 14.3938L1.53843 13.8064L0.769214 16.6772C-0.00140423 19.5532 0.491514 22.3586 2.19234 24.8645L0 25.4519L0.769214 28.3228C1.68668 31.7468 3.90477 33.648 6.09306 34.7037L4.49048 36.3064L6.59195 38.408C7.84161 39.6576 9.30964 40.5147 10.9551 40.9556C12.0503 41.249 13.2009 41.3537 14.3937 41.2696L13.8064 43.4615ZM26.3095 38.015L24.701 39.5557C24.5529 39.6974 24.3999 39.8358 24.2462 39.9669C22.1372 41.7657 19.8202 42.3435 17.3595 41.6842L17.0352 41.5973L18.0408 37.8444L15.8783 38.3732C14.3602 38.7444 12.9334 38.7564 11.6374 38.4092C10.4446 38.0896 9.37423 37.4619 8.45597 36.5439L8.21861 36.3065L10.9685 33.5564L8.82928 32.9339C5.88215 32.0766 4.02709 30.2955 3.31571 27.6405L3.22879 27.3162L6.98478 26.3097L5.44416 24.7012C5.30241 24.5531 5.164 24.4001 5.03288 24.2464C3.23415 22.1374 2.65634 19.8203 3.31562 17.3597L3.40253 17.0354L7.15781 18.0416L6.62869 15.8788C6.57983 15.6792 6.53641 15.4773 6.49977 15.2789C5.99657 12.5533 6.6547 10.2577 8.45597 8.45623L8.69334 8.21887L11.4432 10.9685L12.0657 8.82981C12.1229 8.63349 12.1862 8.43717 12.2539 8.24629C13.1809 5.63415 14.8986 3.97524 17.3593 3.31588L17.6835 3.22897L18.69 6.98495L20.2986 5.44433C20.4466 5.30258 20.5996 5.16417 20.7533 5.03305C22.8624 3.23433 25.1794 2.65652 27.64 3.31579L27.9643 3.40271L26.9587 7.15561L29.1213 6.62684C30.6394 6.25564 32.0662 6.2436 33.3622 6.59081C34.5549 6.91043 35.6252 7.53798 36.5436 8.45623L36.7809 8.69351L34.0308 11.4438L36.1704 12.066C39.1174 12.923 40.9724 14.704 41.6839 17.3594L41.7709 17.6837L38.0149 18.6902L39.5555 20.2987C39.6972 20.4468 39.8357 20.5998 39.9668 20.7535C41.7655 22.8625 42.3433 25.1796 41.684 27.6402L41.5971 27.9645L37.8418 26.9583L38.371 29.1211C38.4198 29.3207 38.4632 29.5226 38.4999 29.721C39.0031 32.4466 38.345 34.7422 36.5437 36.5437L36.3063 36.781L33.5565 34.0314L32.9339 36.1701C32.8767 36.3664 32.8134 36.5627 32.7458 36.7536C31.8187 39.3658 30.101 41.0247 27.6404 41.684L27.3161 41.7709L26.3095 38.015Z" fill="white"/>
<path d="M20.0371 31.6914C25.1053 33.0494 30.3334 30.031 31.6914 24.9628C33.0494 19.8945 30.031 14.6665 24.9628 13.3085C19.8946 11.9505 14.6665 14.9689 13.3085 20.0371C11.9505 25.1053 14.9689 30.3334 20.0371 31.6914ZM24.2804 15.8551C27.9444 16.8369 30.1265 20.6164 29.1448 24.2804C28.163 27.9443 24.3835 30.1265 20.7195 29.1448C17.0555 28.1631 14.8734 24.3834 15.8551 20.7195C16.8368 17.0555 20.6164 14.8734 24.2804 15.8551Z" fill="white"/>
<path d="M21.4018 26.5981C23.6616 27.2036 25.9927 25.8578 26.5982 23.598C27.2037 21.3382 25.8579 19.0071 23.5981 18.4016C21.3383 17.7961 19.0072 19.1419 18.4017 21.4017C17.7962 23.6615 19.142 25.9926 21.4018 26.5981ZM22.9157 20.9482C23.7714 21.1774 24.2809 22.06 24.0516 22.9157C23.8224 23.7714 22.9398 24.2809 22.0841 24.0516C21.2284 23.8224 20.7189 22.9398 20.9482 22.0841C21.1774 21.2284 22.06 20.7189 22.9157 20.9482Z" fill="white"/>
</svg>
