<svg width="46" height="58" viewBox="0 0 46 58" fill="none" xmlns="http://www.w3.org/2000/svg">
<path d="M44.6104 12.4054L44.6102 12.4053L22.8113 0.7897L22.8108 0.789465C22.711 0.736156 22.5919 0.736944 22.493 0.791282L22.4924 0.791572L1.29709 12.407C1.18975 12.4659 1.12305 12.5783 1.12305 12.7015V27.8741C1.13562 40.0484 8.34846 51.0623 19.5029 55.94L44.6104 12.4054ZM44.6104 12.4054C44.7189 12.4632 44.7876 12.5771 44.7876 12.7015V27.5734C44.7876 27.5734 44.7876 27.5734 44.7876 27.5734C44.7864 39.896 37.395 51.0162 26.0336 55.7877L26.0336 55.7877L26.0267 55.7907L22.7116 57.2223L22.7109 57.2226C22.6264 57.2592 22.5298 57.2591 22.4452 57.2222L22.445 57.2221L19.5038 55.9404L44.6104 12.4054ZM44.1171 27.5736V27.5734V13.3519V12.9017L43.7198 12.69L23.0134 1.6564L22.6557 1.46579L22.3002 1.66059L2.18249 12.6863L1.79295 12.8998V13.344L1.79295 27.8744L1.79295 27.8752C1.80537 39.7831 8.86094 50.555 19.7713 55.3253L19.7718 55.3256L22.2803 56.4199L22.5786 56.5501L22.8774 56.4211L25.7644 55.1747L25.7838 55.1664L25.7878 55.1643C36.8912 50.4934 44.1146 39.6215 44.1171 27.5736ZM14.0836 27.6577L14.0836 27.6578L19.1277 33.5643L19.6033 34.1211L20.1714 33.659L32.7002 23.4666L32.7003 23.4665C32.8438 23.3497 33.0552 23.3715 33.1719 23.515L33.1719 23.515C33.2891 23.659 33.267 23.87 33.1239 23.9863L33.1235 23.9866L19.7722 34.8488L19.7719 34.849C19.6318 34.9631 19.4248 34.9451 19.3061 34.8061C19.3061 34.8061 19.3061 34.8061 19.306 34.8061L13.5734 28.0929L13.5731 28.0925C13.453 27.9521 13.4698 27.7406 13.6101 27.6209L13.6106 27.6205C13.7517 27.5 13.9632 27.5168 14.0836 27.6577ZM14.6539 27.1707C14.2645 26.7147 13.5796 26.6608 13.1235 27.0502L14.6539 27.1707Z" fill="black" stroke="black" stroke-width="1.5"/>
</svg>
