<svg width="62" height="72" viewBox="0 0 62 72" fill="none" xmlns="http://www.w3.org/2000/svg">
<path d="M61.9277 19.5354L61.9255 19.4794C61.8939 18.7878 61.8728 18.0561 61.86 17.242C61.8005 13.2721 58.6093 9.98834 54.5943 9.76642C46.2232 9.30444 39.7474 6.6051 34.2143 1.2718L34.167 1.22731C32.3623 -0.409103 29.6399 -0.409103 27.8346 1.22731L27.7873 1.2718C22.2542 6.6051 15.7784 9.30444 7.40731 9.76696C3.39285 9.98834 0.201058 13.2721 0.141622 17.2426C0.129401 18.0512 0.107737 18.7829 0.0760749 19.4794L0.0727421 19.6096C-0.0900137 28.0509 -0.292209 38.5566 3.26176 48.0921C5.21594 53.3359 8.17554 57.8941 12.0578 61.641C16.4794 65.9081 22.2709 69.2957 29.271 71.7094C29.4988 71.788 29.7354 71.8517 29.9765 71.8995C30.3164 71.9665 30.6586 72 31.0008 72C31.343 72 31.6857 71.9665 32.0251 71.8995C32.2662 71.8517 32.5045 71.7874 32.7333 71.7083C39.7252 69.2902 45.5105 65.9009 49.9283 61.6344C53.8088 57.8864 56.7684 53.3271 58.7243 48.0823C62.2916 38.5181 62.09 27.9927 61.9277 19.5354ZM54.7159 46.6205C50.9676 56.6708 43.3158 63.573 31.3235 67.7203C31.2808 67.7346 31.2352 67.7472 31.188 67.7565C31.0641 67.7807 30.938 67.7807 30.8125 67.756C30.7658 67.7467 30.7203 67.7346 30.6781 67.7203C18.673 63.5806 11.0163 56.6823 7.27066 46.6315C3.99499 37.8419 4.18052 28.1981 4.34439 19.6903L4.3455 19.6431C4.37883 18.912 4.40105 18.1462 4.41327 17.3047C4.43993 15.5419 5.85974 14.0835 7.64561 13.9852C12.3828 13.7237 16.5444 12.8184 20.3683 11.2177C24.1873 9.6192 27.579 7.36591 30.7364 4.32929C30.8969 4.19526 31.1052 4.19471 31.2652 4.32929C34.4231 7.36591 37.8149 9.6192 41.6333 11.2177C45.4572 12.8184 49.6189 13.7237 54.3565 13.9852C56.1424 14.0835 57.5622 15.5419 57.5883 17.3052C57.6011 18.1512 57.6233 18.9169 57.6567 19.6431C57.82 28.1608 58.0011 37.8123 54.7159 46.6205Z" fill="#AC4242"/>
<path d="M30.9998 18.0578C20.9944 18.0578 12.8549 26.1075 12.8549 36.0013C12.8549 45.8956 20.9944 53.9453 30.9998 53.9453C41.0046 53.9453 49.1446 45.8956 49.1446 36.0013C49.1446 26.1075 41.0046 18.0578 30.9998 18.0578ZM30.9998 49.7199C23.3502 49.7199 17.1272 43.5659 17.1272 36.0013C17.1272 28.4366 23.3502 22.2826 30.9998 22.2826C38.6488 22.2826 44.8718 28.4366 44.8718 36.0013C44.8718 43.5659 38.6488 49.7199 30.9998 49.7199Z" fill="#AC4242"/>
<path d="M36.2146 30.4306L27.7869 38.7649L25.4994 36.5028C24.6651 35.6777 23.3125 35.6777 22.4781 36.5028C21.6443 37.3279 21.6443 38.6655 22.4781 39.49L26.2765 43.2462C26.6937 43.6587 27.2403 43.8647 27.7869 43.8647C28.3335 43.8647 28.8801 43.6587 29.2972 43.2462L39.2359 33.4178C40.0697 32.5928 40.0697 31.2552 39.2359 30.4306C38.4016 29.605 37.049 29.605 36.2146 30.4306Z" fill="#AC4242"/>
</svg>
