<svg width="89" height="455" viewBox="0 0 89 455" fill="none" xmlns="http://www.w3.org/2000/svg">
<path fill-rule="evenodd" clip-rule="evenodd" d="M56.5717 435.802L56.5717 420.251L40.1857 420.251L40.1857 435.802L17.5574 435.802L17.5574 415.451L0.000898924 418.715L0.000897338 455L94.8058 455L94.8058 435.802L56.5717 435.802ZM92.8267 437.789L54.5926 437.789L54.5926 422.239L42.1649 422.239L42.1649 437.789L15.5782 437.789L15.5782 417.841L1.98006 420.369L1.98006 453.012L92.8267 453.012L92.8267 437.789ZM77.2485 390.494L2.81965e-06 390.494L1.98047e-06 409.692L94.8049 409.692L94.8049 374.943L77.2485 371.68L77.2485 390.494ZM79.2276 374.069L79.2276 392.481L1.97917 392.481L1.97917 407.705L92.8258 407.705L92.8258 376.597L79.2276 374.069ZM77.2485 346.53L56.5708 346.53L56.5708 330.979L40.1848 330.979L40.1848 346.53L17.5565 346.53L17.5565 326.179L5.48827e-06 329.443L3.90221e-06 365.728L94.8049 365.728L94.8049 330.211L77.2485 326.947L77.2485 346.53ZM79.2276 329.337L79.2276 348.517L54.5917 348.517L54.5917 332.966L42.164 332.966L42.164 348.517L15.5773 348.517L15.5773 328.569L1.97917 331.096L1.97917 363.74L92.8258 363.74L92.8258 331.864L79.2276 329.337ZM45.4419 285.427L1.97917 273.311L1.97917 287.525L33.7784 294.48L33.7572 298.369L1.97917 304.953L1.97917 319.331L45.4379 307.032L92.8258 319.751L92.8258 304.944L61.0371 298.174L61.0371 294.286L92.8258 287.516L92.8258 272.709L45.4419 285.427ZM94.8049 270.12L94.8049 289.127L61.4476 296.23L94.8049 303.333L94.8049 322.34L45.4518 309.093L5.81555e-06 321.956L6.62956e-06 303.333L33.3573 296.422L7.25056e-06 289.127L8.05618e-06 270.696L45.4518 283.367L94.8049 270.12ZM83.1006 234.22L94.8049 232.492L94.8049 213.677L9.81007e-06 230.572L8.93731e-06 250.538L94.8049 267.433L94.8049 248.81L83.1006 247.082L83.1006 234.22ZM92.8258 250.527L81.1215 248.799L81.1215 232.503L92.8258 230.775L92.8258 216.049L1.97918 232.238L1.97918 248.872L92.8258 265.061L92.8258 250.527ZM70.0593 247.234L34.077 242.526L34.0879 238.583L70.0593 234.081L70.0593 247.234ZM60.5927 164.156L60.5495 164.119C59.3346 163.072 57.8371 162.486 56.1807 162.486L12.2895 162.486C8.89413 162.486 6.35197 163.365 4.70151 164.989L4.66792 165.022L4.63279 165.054C3.07373 166.449 1.97918 169.052 1.97918 173.169L1.97918 206.698L92.8258 206.698L92.8258 192.051L62.3946 192.051L62.3946 186.085L92.6307 177.062L92.6307 161.883L62.3946 171.674L62.3946 168.945C62.3946 166.416 61.7223 165.021 60.638 164.191L60.5927 164.156ZM94.6099 159.154L94.6099 178.544L64.3737 187.568L64.3737 190.063L94.8049 190.063L94.8049 208.686L1.07667e-05 208.686L1.23192e-05 173.169C1.25122e-05 168.753 1.17045 165.49 3.31624 163.57C5.46203 161.458 8.58318 160.498 12.2895 160.498L56.1807 160.498C58.3265 160.498 60.2772 161.266 61.8378 162.61C63.1491 163.614 63.9163 165.046 64.2206 166.906C64.3238 167.537 64.3737 168.216 64.3737 168.945L94.6099 159.154ZM14.602 191.859L14.602 180.656C14.602 179.762 14.8341 178.688 15.7167 177.886C16.5561 177.124 17.6253 176.941 18.5318 176.941L47.4025 176.941C48.309 176.941 49.3782 177.124 50.2176 177.886C51.1002 178.688 51.3324 179.762 51.3324 180.656L51.3324 191.859L14.602 191.859ZM79.3658 106.042L79.3658 105.659L12.2895 105.659C8.89415 105.659 6.35198 106.538 4.70152 108.162L4.66792 108.195L4.6328 108.227C3.07373 109.622 1.97918 112.225 1.97918 116.342L1.97918 139.572C1.97918 143.625 3.04254 146.119 4.70152 147.751C6.35199 149.376 8.89416 150.255 12.2895 150.255L81.345 150.255C82.9656 150.255 84.5608 150.077 85.9459 149.736C87.2389 149.418 88.5285 148.777 89.4565 148.016C90.3391 147.292 91.1469 146.219 91.832 144.702C92.4579 143.316 92.8258 141.318 92.8258 138.996L92.8258 117.302C92.8258 114.824 92.4684 113.024 91.8501 111.635C91.1072 110.181 90.2909 108.966 89.4565 108.282C88.5285 107.521 87.2389 106.879 85.9459 106.561C84.5609 106.221 82.9656 106.042 81.345 106.042L79.3658 106.042ZM93.6345 110.774C94.4148 112.502 94.8049 114.614 94.8049 117.302L94.8049 138.996C94.8049 141.492 94.4148 143.795 93.6345 145.523C92.8542 147.251 91.8789 148.595 90.7084 149.555C89.538 150.515 87.9774 151.283 86.4168 151.667C84.8563 152.051 83.1006 152.243 81.345 152.243L12.2895 152.243C8.58318 152.243 5.46203 151.283 3.31624 149.171C1.17045 147.059 1.35948e-05 143.987 1.37878e-05 139.572L1.48032e-05 116.342C1.49962e-05 111.926 1.17045 108.663 3.31624 106.743C5.46203 104.631 8.58318 103.671 12.2895 103.671L81.345 103.671L81.345 104.055C83.1006 104.055 84.8563 104.247 86.4168 104.631C87.9774 105.015 89.538 105.783 90.7084 106.743C91.8789 107.703 92.8542 109.238 93.6345 110.774ZM14.602 129.905L14.797 129.905L14.797 124.405C14.797 123.512 15.0265 122.48 15.8298 121.69C16.6258 120.906 17.6515 120.69 18.5318 120.69L76.078 120.69C77.2979 120.69 78.0074 121.029 78.5095 121.276L78.796 121.417L79.0239 121.642C79.4953 122.106 79.7096 122.705 79.8136 123.08C79.9394 123.534 80.0079 124.051 80.0079 124.597L80.0079 131.7L80.008 131.769C80.0085 132.092 80.0093 132.596 79.926 133.047C79.8315 133.558 79.5351 134.516 78.5095 135.021C78.0073 135.268 77.2978 135.608 76.078 135.608L18.3368 135.608C17.4564 135.608 16.4307 135.391 15.6347 134.608C14.8314 133.817 14.602 132.785 14.602 131.892L14.602 129.905ZM16.5811 131.892C16.5811 132.276 16.6461 132.596 16.7762 132.852C17.0363 133.364 17.5565 133.62 18.3368 133.62L76.078 133.62C76.8583 133.62 77.2485 133.428 77.6386 133.236C78.0288 133.044 78.0288 132.468 78.0288 131.7L78.0288 124.597C78.0288 123.829 77.8337 123.253 77.6386 123.061C77.2485 122.869 76.8583 122.677 76.078 122.677L18.5318 122.677C17.3614 122.677 16.7762 123.253 16.7762 124.405L16.7762 131.892L16.5811 131.892ZM92.6312 83.5805L92.6313 62.3202L79.0331 59.7923L79.0331 75.2575C79.0331 76.1501 78.8036 77.1823 78.0003 77.9729C77.2044 78.7563 76.1787 78.9729 75.2983 78.9729L19.5078 78.9729C18.6274 78.9729 17.6017 78.7563 16.8057 77.9729C16.0024 77.1823 15.7729 76.1501 15.7729 75.2575L15.7729 59.7924L2.17481 62.3202L2.17481 85.2406C2.17481 87.8653 2.99657 90.0539 4.57271 91.7602C6.01345 93.3199 8.31208 94.1961 11.7049 94.1961L80.1751 94.1961C85.1773 94.1961 88.3042 93.101 90.1341 91.4706C91.4803 90.1233 92.5111 87.5803 92.7656 83.5805L92.6312 83.5805ZM91.4893 92.92C93.3605 91.0784 94.49 87.9228 94.7484 83.5805C94.7863 82.9434 94.8055 82.2807 94.8055 81.5929L94.6104 81.5929L94.6104 60.6668L77.0539 57.4031L77.0539 75.2575C77.0539 76.4094 76.4687 76.9854 75.2983 76.9854L19.5078 76.9854C18.3373 76.9854 17.7521 76.4094 17.7521 75.2575L17.7521 57.4031L0.195641 60.6668L0.195639 85.2406C0.195639 88.3124 1.171 91.0001 3.12172 93.1119C5.07243 95.2238 7.99851 96.1837 11.7049 96.1837L80.1751 96.1837C85.442 96.1837 89.1484 95.0318 91.4893 92.92ZM42.7492 27.4157L42.7492 31.8692L40.77 31.8692L40.77 33.4728L1.97918 33.4728L1.97918 48.504L93.0208 48.504L93.0208 33.4728L54.0065 33.4728L54.0065 26.1859L93.0208 18.8905L93.0208 2.465L43.8557 13.1765L2.17426 2.55493L2.17426 17.8165L42.7492 27.4157ZM0.195092 19.3903L40.77 28.9895L40.77 31.4853L1.85124e-05 31.4853L1.76816e-05 50.4915L95 50.4916L95 31.4853L55.9856 31.4853L55.9856 27.8376L95 20.5422L95 4.15258e-06L43.8912 11.135L0.195092 8.52691e-09L0.195092 19.3903ZM68.0801 236.331L34.3327 240.555L68.0801 244.971L68.0801 236.331ZM49.3532 189.871L16.5811 189.871L16.5811 180.656C16.5811 179.504 17.1663 178.928 18.5318 178.928L47.4025 178.928C48.768 178.928 49.3532 179.504 49.3532 180.656L49.3532 189.871Z" fill="white"/>
</svg>
