<svg width="73" height="372" viewBox="0 0 73 372" fill="none" xmlns="http://www.w3.org/2000/svg">
<path fill-rule="evenodd" clip-rule="evenodd" d="M46.4484 356.304L46.4484 343.59L32.9946 343.59L32.9946 356.304L14.4155 356.304L14.4155 339.666L0.000738059 342.334L0.000736762 372L77.8406 372L77.8406 356.304L46.4484 356.304ZM75.8406 358.304L44.4484 358.304L44.4484 345.59L34.9946 345.59L34.9946 358.304L12.4155 358.304L12.4155 342.07L2.00074 343.998L2.00074 370L75.8406 370L75.8406 358.304ZM63.4251 319.261L2.3053e-06 319.261L1.6192e-06 334.957L77.8398 334.957L77.8398 306.547L63.4251 303.879L63.4251 319.261ZM65.4251 306.283L65.4251 321.261L2 321.261L2 332.957L75.8398 332.957L75.8398 308.211L65.4251 306.283ZM63.4251 283.316L46.4476 283.316L46.4476 270.603L32.9938 270.603L32.9938 283.316L14.4148 283.316L14.4148 266.678L4.48711e-06 269.347L3.19038e-06 299.013L77.8398 299.013L77.8398 269.975L63.4251 267.306L63.4251 283.316ZM65.4251 269.711L65.4251 285.316L44.4476 285.316L44.4476 272.603L34.9938 272.603L34.9938 285.316L12.4148 285.316L12.4148 269.083L2 271.011L2 297.013L75.8398 297.013L75.8398 271.638L65.4251 269.711ZM37.3083 233.749L2.00001 223.947L2.00001 234.773L27.8137 240.395L27.7922 244.308L2.00001 249.629L2 260.584L37.3043 250.635L75.8398 260.934L75.8398 249.62L50.0369 244.149L50.0369 240.236L75.8398 234.764L75.8398 223.45L37.3083 233.749ZM77.8398 220.846L77.8398 236.385L50.4518 242.192L77.8398 248L77.8398 263.539L37.3183 252.709L4.75469e-06 263.225L5.42021e-06 248L27.3881 242.349L5.92793e-06 236.385L6.58659e-06 221.316L37.3183 231.676L77.8398 220.846ZM68.23 191.494L77.8398 190.081L77.8398 174.699L8.02054e-06 188.511L7.30699e-06 204.836L77.8398 218.648L77.8398 203.423L68.23 202.01L68.23 191.494ZM75.8398 205.15L66.23 203.738L66.23 189.766L75.8398 188.354L75.8398 177.085L2.00001 190.188L2.00001 203.159L75.8398 216.262L75.8398 205.15ZM2.7228 133.732C0.960997 135.301 1.02298e-05 137.97 1.0072e-05 141.58L8.8027e-06 170.618L77.8398 170.618L77.8398 155.392L52.8542 155.392L52.8542 153.352L77.6797 145.975L77.6797 130.122L52.8542 138.127C52.8542 137.385 52.7906 136.705 52.6584 136.088C52.3711 134.747 51.7594 133.7 50.7721 132.947C49.4908 131.848 47.8891 131.22 46.1273 131.22L10.0904 131.22C7.04724 131.22 4.48461 132.005 2.7228 133.732ZM75.6797 132.868L50.8542 140.873L50.8542 138.127C50.8542 136.125 50.3227 135.119 49.5597 134.538L49.5139 134.503L49.4702 134.465C48.5383 133.666 47.3945 133.22 46.1273 133.22L10.0904 133.22C7.36147 133.22 5.38393 133.924 4.12267 135.16L4.08871 135.193L4.05322 135.225C2.88432 136.266 2.00001 138.27 2.00001 141.58L2.00001 168.618L75.8398 168.618L75.8398 157.392L50.8542 157.392L50.8542 151.86L75.6797 144.483L75.6797 132.868ZM57.8973 202.561L27.9305 198.657L27.9416 194.689L57.8973 190.956L57.8973 202.561ZM11.614 157.236L11.614 147.701C11.614 146.91 11.8209 145.911 12.6526 145.159C13.4408 144.446 14.4289 144.289 15.2156 144.289L38.9199 144.289C39.7067 144.289 40.6947 144.446 41.4829 145.159C42.3147 145.911 42.5216 146.91 42.5216 147.701L42.5216 157.236L11.614 157.236ZM64.7885 87.0734L64.7885 86.7595L10.0904 86.7595C7.36149 86.7595 5.38394 87.4633 4.12267 88.6993L4.08872 88.7326L4.05322 88.7642C2.88432 89.8056 2.00001 91.8092 2.00001 95.119L2.00001 114.111C2.00001 117.357 2.85279 119.287 4.12267 120.531C5.38394 121.767 7.36149 122.471 10.0904 122.471L66.7885 122.471C68.0935 122.471 69.3729 122.328 70.4768 122.057C71.4878 121.81 72.4953 121.309 73.2113 120.724C73.8815 120.177 74.5129 119.352 75.0574 118.151C75.542 117.083 75.8398 115.507 75.8398 113.641L75.8398 95.9038C75.8398 93.918 75.5529 92.5051 75.0755 91.4334C74.4732 90.2605 73.8333 89.3279 73.2113 88.82C72.4953 88.2352 71.4878 87.7346 70.4768 87.4869C69.3729 87.2164 68.0935 87.0734 66.7885 87.0734L64.7885 87.0734ZM76.8789 90.5671C77.5195 91.9798 77.8398 93.7064 77.8398 95.9038L77.8398 113.641C77.8398 115.681 77.5195 117.565 76.8789 118.977C76.2382 120.39 75.4374 121.489 74.4764 122.273C73.5154 123.058 72.2341 123.686 70.9528 124C69.6715 124.314 68.23 124.471 66.7885 124.471L10.0904 124.471C7.04724 124.471 4.48461 123.686 2.7228 121.96C0.960998 120.233 1.11149e-05 117.722 1.12727e-05 114.111L1.21029e-05 95.119C1.22607e-05 91.5089 0.960999 88.8405 2.72281 87.2709C4.48461 85.5443 7.04724 84.7595 10.0904 84.7595L66.7885 84.7595L66.7885 85.0734C68.23 85.0734 69.6715 85.2304 70.9528 85.5443C72.2341 85.8582 73.5154 86.4861 74.4764 87.2709C75.4374 88.0557 76.2382 89.3114 76.8789 90.5671ZM11.614 105.833L11.7741 105.833L11.7741 101.711C11.7741 100.922 11.9783 99.9647 12.7346 99.2235C13.4835 98.4896 14.4369 98.2988 15.2156 98.2988L62.4641 98.2988C63.5489 98.2988 64.192 98.6043 64.6254 98.8167L64.915 98.9586L65.1453 99.1843C65.6031 99.633 65.8012 100.2 65.8924 100.528C66.0057 100.935 66.0657 101.391 66.0657 101.868L66.0657 107.676L66.0658 107.734C66.0663 107.994 66.0673 108.44 65.9921 108.845C65.9059 109.31 65.6249 110.238 64.6254 110.728C64.1919 110.94 63.5489 111.246 62.4641 111.246L15.0555 111.246C14.2767 111.246 13.3233 111.055 12.5745 110.321C11.8181 109.58 11.614 108.622 11.614 107.833L11.614 105.833ZM13.614 107.833C13.614 108.147 13.6674 108.408 13.7741 108.618C13.9877 109.036 14.4148 109.246 15.0555 109.246L62.4641 109.246C63.1047 109.246 63.4251 109.089 63.7454 108.932C64.0657 108.775 64.0657 108.304 64.0657 107.676L64.0657 101.868C64.0657 101.241 63.9056 100.77 63.7454 100.613C63.4251 100.456 63.1047 100.299 62.4641 100.299L15.2156 100.299C14.2546 100.299 13.7741 100.77 13.7741 101.711L13.7741 107.833L13.614 107.833ZM75.6801 68.7089L75.6801 51.2639L65.2653 49.3359L65.2653 61.5292C65.2653 62.3187 65.0612 63.2759 64.3049 64.0171C63.556 64.751 62.6026 64.9419 61.8239 64.9419L16.0169 64.9419C15.2381 64.9419 14.2848 64.751 13.5359 64.0171C12.7796 63.2759 12.5754 62.3187 12.5754 61.5292L12.5754 49.3359L2.16063 51.2639L2.16063 69.6913C2.16063 71.7528 2.80624 73.448 4.02936 74.7665C5.11566 75.9375 6.88408 76.6381 9.61032 76.6381L65.828 76.6381C69.8827 76.6381 72.341 75.7545 73.7475 74.5117C74.7155 73.5417 75.516 71.6907 75.7621 68.7089L75.6801 68.7089ZM0.160631 49.6001L14.5754 46.9317L14.5754 61.5292C14.5754 62.4709 15.0559 62.9419 16.0169 62.9419L61.8239 62.9419C62.7849 62.9419 63.2653 62.471 63.2653 61.5292L63.2653 46.9317L77.6801 49.6001L77.6801 66.7089L77.8403 66.7089C77.8403 67.4075 77.816 68.0744 77.7681 68.7089C77.5146 72.0662 76.5993 74.5176 75.1175 75.9697C73.1955 77.6963 70.1524 78.6381 65.828 78.6381L9.61032 78.6381C6.5672 78.6381 4.16474 77.8532 2.56309 76.1267C0.961451 74.4001 0.16063 72.2026 0.16063 69.6913L0.160631 49.6001ZM35.4743 22.1177L35.4743 26.0557L33.4743 26.0557L33.4743 27.7418L2.00002 27.7418L2.00001 39.281L76 39.281L76 27.7418L43.9671 27.7418L43.9671 21.0975L76 15.1329L76 2.48041L36.0012 11.1581L2.16018 2.57089L2.16018 14.2696L35.4743 22.1177ZM0.16018 15.8531L33.4743 23.7013L33.4743 25.7418L1.51354e-05 25.7418L1.44562e-05 41.281L78 41.281L78 25.7418L45.9671 25.7418L45.9671 22.7595L78 16.7949L78 3.40949e-06L36.037 9.10379L0.160181 7.00101e-09L0.16018 15.8531ZM55.8973 193.22L28.1889 196.674L55.8973 200.284L55.8973 193.22ZM40.5216 155.236L13.614 155.236L13.614 147.701C13.614 146.76 14.0945 146.289 15.2156 146.289L38.9199 146.289C40.0411 146.289 40.5216 146.76 40.5216 147.701L40.5216 155.236Z" fill="white"/>
</svg>
