<svg width="45" height="33" viewBox="0 0 45 33" fill="none" xmlns="http://www.w3.org/2000/svg">
<path d="M33.9863 20.7541C30.8585 20.7541 28.314 23.2986 28.314 26.4264C28.314 29.5541 30.8585 32.0987 33.9863 32.0987C37.1146 32.0987 39.6586 29.5541 39.6586 26.4264C39.6586 23.2986 37.1141 20.7541 33.9863 20.7541ZM33.9863 29.2625C32.4222 29.2625 31.1502 27.9905 31.1502 26.4264C31.1502 24.8623 32.4222 23.5902 33.9863 23.5902C35.5504 23.5902 36.8225 24.8623 36.8225 26.4264C36.8225 27.9906 35.5504 29.2625 33.9863 29.2625Z" fill="white"/>
<path d="M14.6061 20.7541C11.4784 20.7541 8.93384 23.2986 8.93384 26.4264C8.93384 29.5541 11.4784 32.0987 14.6061 32.0987C17.7339 32.0987 20.2784 29.5541 20.2784 26.4264C20.2784 23.2986 17.7339 20.7541 14.6061 20.7541ZM14.6061 29.2625C13.042 29.2625 11.77 27.9905 11.77 26.4264C11.77 24.8623 13.042 23.5902 14.6061 23.5902C16.1698 23.5902 17.4423 24.8623 17.4423 26.4264C17.4423 27.9906 16.1702 29.2625 14.6061 29.2625Z" fill="white"/>
<path d="M37.8062 4.51827C37.5651 4.03945 37.0749 3.73737 36.5389 3.73737H29.0704V6.57351H35.6644L39.5258 14.2537L42.0603 12.9793L37.8062 4.51827Z" fill="white"/>
<path d="M29.7322 25.0557H19.0021V27.8919H29.7322V25.0557Z" fill="white"/>
<path d="M10.3518 25.0557H5.43591C4.65263 25.0557 4.01788 25.6906 4.01788 26.4738C4.01788 27.257 4.65272 27.8918 5.43591 27.8918H10.3519C11.1352 27.8918 11.7699 27.2569 11.7699 26.4738C11.7699 25.6905 11.1351 25.0557 10.3518 25.0557Z" fill="white"/>
<path d="M44.7022 16.3865L41.9129 12.7941C41.6449 12.4481 41.2313 12.2457 40.7931 12.2457H30.4884V2.31927C30.4884 1.53599 29.8536 0.901245 29.0704 0.901245H5.43591C4.65263 0.901245 4.01788 1.53608 4.01788 2.31927C4.01788 3.10247 4.65272 3.7373 5.43591 3.7373H27.6523V13.6638C27.6523 14.447 28.2871 15.0818 29.0703 15.0818H40.0987L42.1638 17.7421V25.0555H38.2405C37.4572 25.0555 36.8225 25.6904 36.8225 26.4736C36.8225 27.2568 37.4573 27.8916 38.2405 27.8916H43.5819C44.3652 27.8916 44.9999 27.2567 45 26.4736V17.2563C45 16.9415 44.8951 16.6352 44.7022 16.3865Z" fill="white"/>
<path d="M10.2573 17.8709H3.73419C2.95091 17.8709 2.31616 18.5057 2.31616 19.2889C2.31616 20.0722 2.951 20.707 3.73419 20.707H10.2573C11.0405 20.707 11.6753 20.0721 11.6753 19.2889C11.6754 18.5057 11.0405 17.8709 10.2573 17.8709Z" fill="white"/>
<path d="M13.5189 12.293H1.41803C0.634834 12.293 0 12.9279 0 13.7111C0 14.4944 0.634834 15.1292 1.41803 15.1292H13.5189C14.3022 15.1292 14.9369 14.4943 14.9369 13.7111C14.9369 12.928 14.3022 12.293 13.5189 12.293Z" fill="white"/>
<path d="M15.8351 6.71545H3.73419C2.95091 6.71545 2.31616 7.35029 2.31616 8.13348C2.31616 8.91676 2.951 9.55151 3.73419 9.55151H15.8351C16.6183 9.55151 17.2531 8.91668 17.2531 8.13348C17.2532 7.35029 16.6183 6.71545 15.8351 6.71545Z" fill="white"/>
</svg>
