<svg width="80" height="52" viewBox="0 0 80 52" fill="none" xmlns="http://www.w3.org/2000/svg">
<path d="M73.9947 22.5644L73.9145 22.2411L71.8428 13.8897L71.7185 13.3885L72.2234 13.2804C72.5618 13.2079 72.8195 12.9032 72.8195 12.5349V11.1884C72.8195 8.53728 70.6796 6.38639 68.0586 6.38639H58.6223H58.1223V5.88639V3.10895C58.1223 1.94278 57.1813 1 56.0336 1H7.93314C6.78544 1 5.84439 1.94278 5.84439 3.10895V26.0002C5.84439 26.4249 6.185 26.7627 6.59704 26.7627C7.00901 26.7627 7.3497 26.425 7.3497 26.0002V3.10895C7.3497 2.79002 7.60725 2.52486 7.93314 2.52486H56.0334C56.3593 2.52486 56.6168 2.79002 56.6168 3.10895V26.0006C56.6168 26.4252 56.9575 26.763 57.3695 26.763C57.7814 26.763 58.1221 26.4253 58.1221 26.0006V24.5695V24.0695H58.6221H73.3986L73.9947 22.5644ZM73.9947 22.5644L74.324 22.6149M73.9947 22.5644L74.324 22.6149M74.324 22.6149C77.2476 23.0634 79.5001 25.6167 79.5 28.6931V42.1585C79.5 42.5832 79.1593 42.9209 78.7473 42.9209H74.6531H74.1475L74.1531 43.4265C74.1534 43.4458 74.1541 43.4647 74.1545 43.4768L74.1547 43.481C74.1552 43.495 74.1553 43.5009 74.1553 43.505C74.1553 47.641 70.8166 51 66.7222 51C62.6277 51 59.289 47.641 59.289 43.505C59.289 43.501 59.2892 43.4951 59.2897 43.481C59.2901 43.4695 59.2909 43.4482 59.2912 43.4265L59.2968 42.9209H58.7912H30.5615H30.0559L30.0615 43.4264C30.0617 43.446 30.0624 43.4652 30.0629 43.4772L30.063 43.481C30.0635 43.495 30.0637 43.5009 30.0637 43.505C30.0637 47.641 26.7249 51 22.6305 51C18.5361 51 15.1974 47.641 15.1974 43.505C15.1974 43.5009 15.1975 43.4951 15.198 43.481C15.1982 43.4748 15.1986 43.4656 15.1989 43.4551C15.1992 43.4462 15.1994 43.4364 15.1995 43.4265L15.2052 42.9209H14.6996H7.9333C6.78559 42.9209 5.84454 41.9781 5.84454 40.8119V38.0347V37.5347H5.34454H1.25266C0.84058 37.5347 0.5 37.197 0.5 36.7722C0.5 36.3475 0.840695 36.0098 1.25266 36.0098H13.2777C13.6898 36.0098 14.0303 36.3474 14.0303 36.7722C14.0303 37.197 13.6896 37.5347 13.2777 37.5347H7.8497H7.3497V38.0347V40.8119C7.3497 41.1308 7.60722 41.396 7.93314 41.396H15.1333H15.4902L15.6062 41.0585C16.6156 38.1206 19.3854 36.0098 22.6305 36.0098C25.8757 36.0098 28.6452 38.1205 29.6549 41.0585L29.7708 41.396H30.1277H56.1165H56.6165V40.896V31.3863C56.6165 30.9616 56.9572 30.6239 57.3692 30.6239C57.7812 30.6239 58.1218 30.9616 58.1218 31.3863V40.8963V41.3963H58.6218H59.225H59.5819L59.6978 41.0588C60.7073 38.1209 63.477 36.0101 66.7222 36.0101C69.9673 36.0101 72.7369 38.1208 73.7465 41.0588L73.8625 41.3963H74.2194H77.4947H77.9947V40.8963V35.3419V34.8419H77.4947H76.075C74.1906 34.8419 72.6501 33.2951 72.6501 31.3865V28.6934C72.6501 28.2687 72.9908 27.931 73.4028 27.931H77.2978H77.9828L77.774 27.2786C77.1808 25.4248 75.4536 24.0737 73.4116 24.0696L74.324 22.6149ZM58.6223 7.91109H58.1223V8.41109V11.2725V11.7725H58.6223H70.8144H71.3144V11.2725V11.1884C71.3144 9.38452 69.8579 7.91109 68.0586 7.91109H58.6223ZM58.1223 22.0448V22.5448H58.6223H71.7987H72.4379L72.284 21.9244L70.2381 13.6768L70.1439 13.2972H69.7528H58.6223H58.1223V13.7972V22.0448ZM77.495 33.3171H77.995L77.995 32.817L77.9948 29.9555L77.9948 29.4555H77.4948H74.6556H74.1556V29.9555V31.3863C74.1556 32.4477 75.0127 33.3171 76.0753 33.3171H77.495ZM16.7025 43.5053C16.7025 46.7943 19.3578 49.4756 22.6305 49.4756C25.9033 49.4756 28.5585 46.7943 28.5585 43.5053C28.5585 40.2163 25.9033 37.535 22.6305 37.535C19.3577 37.535 16.7025 40.2163 16.7025 43.5053ZM60.7945 43.5053C60.7945 46.7943 63.4497 49.4756 66.7225 49.4756C69.9952 49.4756 72.6505 46.7943 72.6505 43.5053C72.6505 40.2163 69.9952 37.535 66.7225 37.535C63.4497 37.535 60.7945 40.2163 60.7945 43.5053Z" fill="#161616" stroke="#161616"/>
</svg>
