<svg width="38" height="38" viewBox="0 0 38 38" fill="none" xmlns="http://www.w3.org/2000/svg">
<path d="M13.0621 14.25H1.18747C0.531988 14.25 6.30233e-06 13.718 6.30233e-06 13.0625V1.1875C6.30233e-06 0.532 0.531988 0 1.18747 0H13.0621C13.7175 0 14.2495 0.532 14.2495 1.1875V13.0625C14.2495 13.718 13.7175 14.25 13.0621 14.25ZM2.37493 11.875H11.8746V2.375H2.37493V11.875Z" fill="white"/>
<path d="M30.0824 26.9167C29.7784 26.9167 29.4744 26.8011 29.2433 26.5683L22.5143 19.8392C22.0504 19.3752 22.0504 18.6232 22.5143 18.1592L29.2433 11.4301C29.7072 10.9662 30.4592 10.9662 30.9231 11.4301L37.6521 18.1592C38.116 18.6232 38.116 19.3752 37.6521 19.8392L30.9231 26.5683C30.6904 26.8011 30.3864 26.9167 30.0824 26.9167ZM25.0333 19L30.0824 24.0492L35.1315 19L30.0824 13.9507L25.0333 19Z" fill="white"/>
<path d="M7.12476 38C3.19664 38 0 34.8032 0 30.875C0 26.9467 3.19664 23.75 7.12476 23.75C11.0529 23.75 14.2495 26.9467 14.2495 30.875C14.2495 34.8032 11.0529 38 7.12476 38ZM7.12476 26.125C4.50601 26.125 2.37492 28.2562 2.37492 30.875C2.37492 33.4938 4.50601 35.625 7.12476 35.625C9.7435 35.625 11.8746 33.4938 11.8746 30.875C11.8746 28.2562 9.7435 26.125 7.12476 26.125Z" fill="white"/>
<path d="M30.0826 13.0625C29.4271 13.0625 28.8951 12.5305 28.8951 11.875V8.3125H13.4581C12.8026 8.3125 12.2707 7.7805 12.2707 7.125C12.2707 6.4695 12.8026 5.9375 13.4581 5.9375H30.0826C30.738 5.9375 31.27 6.4695 31.27 7.125V11.875C31.27 12.5305 30.738 13.0625 30.0826 13.0625Z" fill="white"/>
<path d="M30.0826 32.0625H13.4581C12.8026 32.0625 12.2707 31.5305 12.2707 30.875C12.2707 30.2195 12.8026 29.6875 13.4581 29.6875H28.8951V26.125C28.8951 25.4695 29.4271 24.9375 30.0826 24.9375C30.738 24.9375 31.27 25.4695 31.27 26.125V30.875C31.27 31.5305 30.738 32.0625 30.0826 32.0625Z" fill="white"/>
</svg>
