<svg width="60" height="60" viewBox="0 0 60 60" fill="none" xmlns="http://www.w3.org/2000/svg">
<path d="M56.4492 14.3022L56.7344 14.3428V14.0547V3.51562V3.26562H56.4844H45.9453H45.6572L45.6978 3.55085C46.4884 9.10651 50.8935 13.5116 56.4492 14.3022ZM31.5078 39.8186V40.4221L31.9346 39.9953L39.9953 31.9346L40.4221 31.5078H39.8186H35.6996H35.5961L35.5228 31.581L31.581 35.5228L31.5078 35.5961V35.6996V39.8186ZM20.1814 31.5078H19.5779L20.0047 31.9346L28.0654 39.9953L28.4922 40.4221V39.8186V35.6996V35.5961L28.419 35.5228L24.4772 31.581L24.4039 31.5078H24.3004H20.1814ZM28.4922 20.1814V19.5779L28.0654 20.0047L20.0047 28.0654L19.5779 28.4922H20.1814H24.3004H24.4039L24.4772 28.419L28.419 24.4772L28.4922 24.4039V24.3004V20.1814ZM29.8232 32.662L30 32.8388L30.1768 32.662L32.662 30.1768L32.8388 30L32.662 29.8232L30.1768 27.338L30 27.1612L29.8232 27.338L27.338 29.8232L27.1612 30L27.338 30.1768L29.8232 32.662ZM35.5228 28.419L35.5961 28.4922H35.6996H39.8186H40.4221L39.9953 28.0654L31.9346 20.0047L31.5078 19.5779V20.1814V24.3004V24.4039L31.581 24.4772L35.5228 28.419ZM36.8549 20.3063L36.6782 20.4831L36.8549 20.6599L39.3401 23.1451L39.5169 23.3218L39.6937 23.1451L48.4837 14.3556L48.6804 14.1588L48.4638 13.9841C48.0168 13.6237 47.5854 13.2383 47.1735 12.8265C46.7616 12.4141 46.3762 11.9831 46.0159 11.5362L45.8412 11.3196L45.6444 11.5163L36.8549 20.3063ZM44.0658 8.8308L44.1917 8.70486L44.1138 8.54468C43.3431 6.95989 42.8475 5.25491 42.6516 3.48807L42.6269 3.26562H42.4031H31.7578H31.5078V3.51562V15.2092V15.3128L31.581 15.386L34.3688 18.1738L34.5456 18.3505L34.7224 18.1738L44.0658 8.8308ZM28.419 15.386L28.4922 15.3128V15.2092V3.51562V3.26562H28.2422H17.5969H17.3731L17.3484 3.48807C17.1525 5.25491 16.6569 6.95989 15.8862 8.54468L15.8083 8.70486L15.9342 8.8308L25.2776 18.1738L25.4544 18.3505L25.6312 18.1738L28.419 15.386ZM14.3556 11.5163L14.1588 11.3196L13.9841 11.5362C13.6238 11.9831 13.2384 12.4141 12.8265 12.8265C12.4141 13.2384 11.9831 13.6238 11.5362 13.9841L11.3196 14.1588L11.5163 14.3556L20.3063 23.1451L20.4831 23.3218L20.6599 23.1451L23.1451 20.6599L23.3218 20.4831L23.1451 20.3063L14.3556 11.5163ZM8.8308 15.9342L8.70486 15.8083L8.54468 15.8862C6.95989 16.6569 5.25491 17.1525 3.48807 17.3484L3.26562 17.3731V17.5969V28.2422V28.4922H3.51562H15.2092H15.3128L15.386 28.419L18.1738 25.6312L18.3505 25.4544L18.1738 25.2776L8.8308 15.9342ZM15.386 31.581L15.3128 31.5078H15.2092H3.51562H3.26562V31.7578V42.4026V42.6264L3.488 42.6511C5.25489 42.8475 6.95989 43.3431 8.54468 44.1138L8.70486 44.1917L8.8308 44.0658L18.1738 34.7224L18.3505 34.5456L18.1738 34.3688L15.386 31.581ZM20.6599 36.8549L20.4831 36.6782L20.3063 36.8549L11.5163 45.6444L11.3196 45.8412L11.5362 46.0159C11.9831 46.3762 12.414 46.7616 12.8264 47.1734C13.2383 47.5858 13.6238 48.0168 13.9841 48.4638L14.1588 48.6804L14.3556 48.4837L23.1451 39.6937L23.3218 39.5169L23.1451 39.3401L20.6599 36.8549ZM15.9342 51.1692L15.8083 51.2951L15.8862 51.4553C16.6569 53.0401 17.1525 54.7451 17.3484 56.5119L17.3731 56.7344H17.5969H28.2422H28.4922V56.4844V44.7908V44.6872L28.419 44.614L25.6312 41.8262L25.4544 41.6495L25.2776 41.8262L15.9342 51.1692ZM31.581 44.614L31.5078 44.6872V44.7908V56.4844V56.7344H31.7578H42.4031H42.6269L42.6516 56.5119C42.8475 54.7451 43.3431 53.0401 44.1138 51.4553L44.1917 51.2951L44.0658 51.1692L34.7224 41.8262L34.5456 41.6495L34.3688 41.8262L31.581 44.614ZM45.6444 48.4837L45.8412 48.6804L46.0159 48.4638C46.3762 48.0169 46.7616 47.5859 47.1735 47.1735C47.5859 46.7616 48.0169 46.3762 48.4638 46.0159L48.6804 45.8412L48.4837 45.6444L39.6937 36.8549L39.5169 36.6782L39.3401 36.8549L36.8549 39.3401L36.6782 39.5169L36.8549 39.6937L45.6444 48.4837ZM51.1692 44.0658L51.2951 44.1917L51.4553 44.1138C53.0401 43.3431 54.7451 42.8475 56.5119 42.6516L56.7344 42.6269V42.4031V31.7578V31.5078H56.4844H44.7908H44.6872L44.614 31.581L41.8262 34.3688L41.6495 34.5456L41.8262 34.7224L51.1692 44.0658ZM44.614 28.419L44.6872 28.4922H44.7908H56.4844H56.7344V28.2422V17.5974V17.3736L56.512 17.3489C54.7451 17.1525 53.0401 16.6569 51.4553 15.8862L51.2951 15.8083L51.1692 15.9342L41.8262 25.2776L41.6495 25.4544L41.8262 25.6312L44.614 28.419ZM14.3022 3.55085L14.3428 3.26562H14.0547H3.51562H3.26562V3.51562V14.0547V14.3428L3.55085 14.3022C9.10651 13.5116 13.5116 9.10651 14.3022 3.55085ZM3.55085 45.6978L3.26562 45.6572V45.9453V56.4844V56.7344H3.51562H14.0547H14.3428L14.3022 56.4492C13.5116 50.8935 9.10651 46.4884 3.55085 45.6978ZM45.6978 56.4492L45.6572 56.7344H45.9453H56.4844H56.7344V56.4844V45.9453V45.6572L56.4492 45.6978C50.8935 46.4884 46.4884 50.8935 45.6978 56.4492ZM0.25 0.25H59.75V59.75H0.25V0.25Z" fill="black" stroke="white" stroke-width="0.5"/>
</svg>
