<svg width="38" height="46" viewBox="0 0 38 46" fill="none" xmlns="http://www.w3.org/2000/svg">
<mask id="path-1-outside-1_152_314" maskUnits="userSpaceOnUse" x="0" y="0" width="38" height="46" fill="black">
<rect fill="white" width="38" height="46"/>
<path d="M27.5714 37.8672C27.0983 37.8672 26.7143 38.2522 26.7143 38.7266C26.7143 39.2009 27.0983 39.5859 27.5714 39.5859C28.0446 39.5859 28.4286 39.2009 28.4286 38.7266C28.4286 38.2522 28.0446 37.8672 27.5714 37.8672Z"/>
<path d="M10.4286 37.8672C9.95543 37.8672 9.57143 38.2522 9.57143 38.7266C9.57143 39.2009 9.95543 39.5859 10.4286 39.5859C10.9017 39.5859 11.2857 39.2009 11.2857 38.7266C11.2857 38.2522 10.9017 37.8672 10.4286 37.8672Z"/>
<path d="M35.4267 33.4165C34.4618 31.9191 33.1359 30.7293 31.5827 29.9609C31.4517 29.839 31.2833 29.7573 31.096 29.7364C29.9725 29.2582 28.7883 29.0156 27.5714 29.0156H25V26.7483C26.4881 25.4682 27.5579 23.7727 28.0766 21.8828H28.4286C30.3191 21.8828 31.8571 20.3407 31.8571 18.4453C31.8571 17.5471 31.5114 16.7286 30.9467 16.1155C31.0006 16.0697 31.0532 16.0219 31.1038 15.9713C31.5896 15.4842 31.8571 14.8368 31.8571 14.1484C31.8571 13.0172 31.1263 12.0545 30.1135 11.7082C29.8106 7.75641 27.0444 4.37941 23.2357 3.321C23.01 2.13919 22.0372 1 20.7143 1H17.2857C15.9628 1 14.99 2.13919 14.7643 3.321C10.956 4.37932 8.18997 7.75572 7.88663 11.707C7.51789 11.8323 7.17974 12.0414 6.8962 12.3256C6.41037 12.8127 6.14286 13.4601 6.14286 14.1484C6.14286 14.9359 6.4972 15.6416 7.054 16.1149C6.48897 16.7279 6.14286 17.5467 6.14286 18.4453C6.14286 20.3407 7.68091 21.8828 9.57143 21.8828H9.92097C10.354 23.4604 11.1751 24.9087 12.3205 26.105C12.5357 26.33 12.7639 26.5443 13 26.7477V29.0156H10.4286C9.2116 29.0156 8.02737 29.2582 6.904 29.7363C6.7168 29.7573 6.54829 29.8389 6.4174 29.9609C4.864 30.7293 3.53817 31.9191 2.57329 33.4164C1.54403 35.0137 1 36.8499 1 38.7266V44.1406C1 44.6152 1.38374 45 1.85714 45H36.1429C36.6163 45 37 44.6152 37 44.1406V38.7266C37 36.8499 36.456 35.0137 35.4267 33.4165ZM6.14286 43.2812H2.71429V38.7266C2.71429 36.1126 4.04989 33.6072 6.14286 32.1199V43.2812ZM28.4286 20.1641H28.3895C28.415 19.8781 28.4286 19.5912 28.4286 19.3047V16.7266C29.3738 16.7266 30.1429 17.4976 30.1429 18.4453C30.1429 19.393 29.3738 20.1641 28.4286 20.1641ZM14.7143 5.13695V8.99219C14.7143 9.46682 15.098 9.85156 15.5714 9.85156C16.0448 9.85156 16.4286 9.46682 16.4286 8.99219V4.01323C16.4286 4.01099 16.4286 4.00876 16.4286 4.00652V3.83594C16.4286 3.30347 16.8772 2.71875 17.2857 2.71875H20.7143C21.1228 2.71875 21.5714 3.30347 21.5714 3.83594V4.00652C21.5714 4.00876 21.5714 4.01099 21.5714 4.01323V8.99219C21.5714 9.46682 21.9552 9.85156 22.4286 9.85156C22.902 9.85156 23.2857 9.46682 23.2857 8.99219V5.13695C26.0534 6.11895 28.0514 8.63005 28.3807 11.5703H9.61934C9.94857 8.63005 11.9466 6.11895 14.7143 5.13695ZM9.57143 20.1641C8.62617 20.1641 7.85714 19.393 7.85714 18.4453C7.85714 17.4976 8.62617 16.7266 9.57143 16.7266V19.3047C9.57143 19.5912 9.58497 19.8782 9.61051 20.1641H9.57143ZM8.71429 15.0078C8.24166 15.0078 7.85714 14.6223 7.85714 14.1484C7.85714 13.9192 7.94637 13.7034 8.10837 13.541C8.27046 13.3785 8.4856 13.2891 8.71429 13.2891H29.2857C29.7583 13.2891 30.1429 13.6746 30.1429 14.1484C30.1429 14.3777 30.0536 14.5935 29.8916 14.7558C29.7296 14.9184 29.5144 15.0078 29.2857 15.0078H8.71429ZM11.4415 20.8673C11.4397 20.8579 11.4381 20.8486 11.4361 20.8394C11.3365 20.3351 11.2857 19.8189 11.2857 19.3047V16.7266H26.7143V19.3047C26.7143 19.8184 26.6635 20.3343 26.5639 20.8391C26.5619 20.8484 26.5603 20.8577 26.5585 20.8671C26.1755 22.7841 25.1154 24.5001 23.5717 25.7003C22.2306 26.7448 20.6497 27.2969 19 27.2969C17.3503 27.2969 15.7694 26.7448 14.4271 25.6994C14.1198 25.461 13.8273 25.1973 13.5575 24.9151C12.4762 23.7857 11.7449 22.3866 11.4415 20.8673ZM18.1429 43.2812H11.2857V41.3047C11.2857 40.8301 10.902 40.4453 10.4286 40.4453C9.95517 40.4453 9.57143 40.8301 9.57143 41.3047V43.2812H7.85714V31.2048C8.41343 30.9945 8.98651 30.8543 9.57143 30.7853V36.1484C9.57143 36.6231 9.95517 37.0078 10.4286 37.0078C10.902 37.0078 11.2857 36.6231 11.2857 36.1484V30.7344H13.4899L18.1429 35.6328V43.2812ZM14.7143 29.5312V27.9306C16.0369 28.6434 17.4937 29.0156 19 29.0156C20.5063 29.0156 21.9632 28.6433 23.2857 27.9307V29.5312L19 34.043L14.7143 29.5312ZM30.1429 43.2812H28.4286V41.3047C28.4286 40.8301 28.0448 40.4453 27.5714 40.4453C27.098 40.4453 26.7143 40.8301 26.7143 41.3047V43.2812H19.8571V35.6328L24.5101 30.7344H26.7143V36.1484C26.7143 36.6231 27.098 37.0078 27.5714 37.0078C28.0448 37.0078 28.4286 36.6231 28.4286 36.1484V30.7853C29.0135 30.8543 29.5865 30.9946 30.1429 31.2049V43.2812ZM35.2857 43.2812H31.8571V32.1198C33.9501 33.6071 35.2857 36.1125 35.2857 38.7266V43.2812Z"/>
</mask>
<path d="M27.5714 37.8672C27.0983 37.8672 26.7143 38.2522 26.7143 38.7266C26.7143 39.2009 27.0983 39.5859 27.5714 39.5859C28.0446 39.5859 28.4286 39.2009 28.4286 38.7266C28.4286 38.2522 28.0446 37.8672 27.5714 37.8672Z" fill="white"/>
<path d="M10.4286 37.8672C9.95543 37.8672 9.57143 38.2522 9.57143 38.7266C9.57143 39.2009 9.95543 39.5859 10.4286 39.5859C10.9017 39.5859 11.2857 39.2009 11.2857 38.7266C11.2857 38.2522 10.9017 37.8672 10.4286 37.8672Z" fill="white"/>
<path d="M35.4267 33.4165C34.4618 31.9191 33.1359 30.7293 31.5827 29.9609C31.4517 29.839 31.2833 29.7573 31.096 29.7364C29.9725 29.2582 28.7883 29.0156 27.5714 29.0156H25V26.7483C26.4881 25.4682 27.5579 23.7727 28.0766 21.8828H28.4286C30.3191 21.8828 31.8571 20.3407 31.8571 18.4453C31.8571 17.5471 31.5114 16.7286 30.9467 16.1155C31.0006 16.0697 31.0532 16.0219 31.1038 15.9713C31.5896 15.4842 31.8571 14.8368 31.8571 14.1484C31.8571 13.0172 31.1263 12.0545 30.1135 11.7082C29.8106 7.75641 27.0444 4.37941 23.2357 3.321C23.01 2.13919 22.0372 1 20.7143 1H17.2857C15.9628 1 14.99 2.13919 14.7643 3.321C10.956 4.37932 8.18997 7.75572 7.88663 11.707C7.51789 11.8323 7.17974 12.0414 6.8962 12.3256C6.41037 12.8127 6.14286 13.4601 6.14286 14.1484C6.14286 14.9359 6.4972 15.6416 7.054 16.1149C6.48897 16.7279 6.14286 17.5467 6.14286 18.4453C6.14286 20.3407 7.68091 21.8828 9.57143 21.8828H9.92097C10.354 23.4604 11.1751 24.9087 12.3205 26.105C12.5357 26.33 12.7639 26.5443 13 26.7477V29.0156H10.4286C9.2116 29.0156 8.02737 29.2582 6.904 29.7363C6.7168 29.7573 6.54829 29.8389 6.4174 29.9609C4.864 30.7293 3.53817 31.9191 2.57329 33.4164C1.54403 35.0137 1 36.8499 1 38.7266V44.1406C1 44.6152 1.38374 45 1.85714 45H36.1429C36.6163 45 37 44.6152 37 44.1406V38.7266C37 36.8499 36.456 35.0137 35.4267 33.4165ZM6.14286 43.2812H2.71429V38.7266C2.71429 36.1126 4.04989 33.6072 6.14286 32.1199V43.2812ZM28.4286 20.1641H28.3895C28.415 19.8781 28.4286 19.5912 28.4286 19.3047V16.7266C29.3738 16.7266 30.1429 17.4976 30.1429 18.4453C30.1429 19.393 29.3738 20.1641 28.4286 20.1641ZM14.7143 5.13695V8.99219C14.7143 9.46682 15.098 9.85156 15.5714 9.85156C16.0448 9.85156 16.4286 9.46682 16.4286 8.99219V4.01323C16.4286 4.01099 16.4286 4.00876 16.4286 4.00652V3.83594C16.4286 3.30347 16.8772 2.71875 17.2857 2.71875H20.7143C21.1228 2.71875 21.5714 3.30347 21.5714 3.83594V4.00652C21.5714 4.00876 21.5714 4.01099 21.5714 4.01323V8.99219C21.5714 9.46682 21.9552 9.85156 22.4286 9.85156C22.902 9.85156 23.2857 9.46682 23.2857 8.99219V5.13695C26.0534 6.11895 28.0514 8.63005 28.3807 11.5703H9.61934C9.94857 8.63005 11.9466 6.11895 14.7143 5.13695ZM9.57143 20.1641C8.62617 20.1641 7.85714 19.393 7.85714 18.4453C7.85714 17.4976 8.62617 16.7266 9.57143 16.7266V19.3047C9.57143 19.5912 9.58497 19.8782 9.61051 20.1641H9.57143ZM8.71429 15.0078C8.24166 15.0078 7.85714 14.6223 7.85714 14.1484C7.85714 13.9192 7.94637 13.7034 8.10837 13.541C8.27046 13.3785 8.4856 13.2891 8.71429 13.2891H29.2857C29.7583 13.2891 30.1429 13.6746 30.1429 14.1484C30.1429 14.3777 30.0536 14.5935 29.8916 14.7558C29.7296 14.9184 29.5144 15.0078 29.2857 15.0078H8.71429ZM11.4415 20.8673C11.4397 20.8579 11.4381 20.8486 11.4361 20.8394C11.3365 20.3351 11.2857 19.8189 11.2857 19.3047V16.7266H26.7143V19.3047C26.7143 19.8184 26.6635 20.3343 26.5639 20.8391C26.5619 20.8484 26.5603 20.8577 26.5585 20.8671C26.1755 22.7841 25.1154 24.5001 23.5717 25.7003C22.2306 26.7448 20.6497 27.2969 19 27.2969C17.3503 27.2969 15.7694 26.7448 14.4271 25.6994C14.1198 25.461 13.8273 25.1973 13.5575 24.9151C12.4762 23.7857 11.7449 22.3866 11.4415 20.8673ZM18.1429 43.2812H11.2857V41.3047C11.2857 40.8301 10.902 40.4453 10.4286 40.4453C9.95517 40.4453 9.57143 40.8301 9.57143 41.3047V43.2812H7.85714V31.2048C8.41343 30.9945 8.98651 30.8543 9.57143 30.7853V36.1484C9.57143 36.6231 9.95517 37.0078 10.4286 37.0078C10.902 37.0078 11.2857 36.6231 11.2857 36.1484V30.7344H13.4899L18.1429 35.6328V43.2812ZM14.7143 29.5312V27.9306C16.0369 28.6434 17.4937 29.0156 19 29.0156C20.5063 29.0156 21.9632 28.6433 23.2857 27.9307V29.5312L19 34.043L14.7143 29.5312ZM30.1429 43.2812H28.4286V41.3047C28.4286 40.8301 28.0448 40.4453 27.5714 40.4453C27.098 40.4453 26.7143 40.8301 26.7143 41.3047V43.2812H19.8571V35.6328L24.5101 30.7344H26.7143V36.1484C26.7143 36.6231 27.098 37.0078 27.5714 37.0078C28.0448 37.0078 28.4286 36.6231 28.4286 36.1484V30.7853C29.0135 30.8543 29.5865 30.9946 30.1429 31.2049V43.2812ZM35.2857 43.2812H31.8571V32.1198C33.9501 33.6071 35.2857 36.1125 35.2857 38.7266V43.2812Z" fill="white"/>
<path d="M27.5714 37.8672C27.0983 37.8672 26.7143 38.2522 26.7143 38.7266C26.7143 39.2009 27.0983 39.5859 27.5714 39.5859C28.0446 39.5859 28.4286 39.2009 28.4286 38.7266C28.4286 38.2522 28.0446 37.8672 27.5714 37.8672Z" stroke="white" stroke-width="0.6" mask="url(#path-1-outside-1_152_314)"/>
<path d="M10.4286 37.8672C9.95543 37.8672 9.57143 38.2522 9.57143 38.7266C9.57143 39.2009 9.95543 39.5859 10.4286 39.5859C10.9017 39.5859 11.2857 39.2009 11.2857 38.7266C11.2857 38.2522 10.9017 37.8672 10.4286 37.8672Z" stroke="white" stroke-width="0.6" mask="url(#path-1-outside-1_152_314)"/>
<path d="M35.4267 33.4165C34.4618 31.9191 33.1359 30.7293 31.5827 29.9609C31.4517 29.839 31.2833 29.7573 31.096 29.7364C29.9725 29.2582 28.7883 29.0156 27.5714 29.0156H25V26.7483C26.4881 25.4682 27.5579 23.7727 28.0766 21.8828H28.4286C30.3191 21.8828 31.8571 20.3407 31.8571 18.4453C31.8571 17.5471 31.5114 16.7286 30.9467 16.1155C31.0006 16.0697 31.0532 16.0219 31.1038 15.9713C31.5896 15.4842 31.8571 14.8368 31.8571 14.1484C31.8571 13.0172 31.1263 12.0545 30.1135 11.7082C29.8106 7.75641 27.0444 4.37941 23.2357 3.321C23.01 2.13919 22.0372 1 20.7143 1H17.2857C15.9628 1 14.99 2.13919 14.7643 3.321C10.956 4.37932 8.18997 7.75572 7.88663 11.707C7.51789 11.8323 7.17974 12.0414 6.8962 12.3256C6.41037 12.8127 6.14286 13.4601 6.14286 14.1484C6.14286 14.9359 6.4972 15.6416 7.054 16.1149C6.48897 16.7279 6.14286 17.5467 6.14286 18.4453C6.14286 20.3407 7.68091 21.8828 9.57143 21.8828H9.92097C10.354 23.4604 11.1751 24.9087 12.3205 26.105C12.5357 26.33 12.7639 26.5443 13 26.7477V29.0156H10.4286C9.2116 29.0156 8.02737 29.2582 6.904 29.7363C6.7168 29.7573 6.54829 29.8389 6.4174 29.9609C4.864 30.7293 3.53817 31.9191 2.57329 33.4164C1.54403 35.0137 1 36.8499 1 38.7266V44.1406C1 44.6152 1.38374 45 1.85714 45H36.1429C36.6163 45 37 44.6152 37 44.1406V38.7266C37 36.8499 36.456 35.0137 35.4267 33.4165ZM6.14286 43.2812H2.71429V38.7266C2.71429 36.1126 4.04989 33.6072 6.14286 32.1199V43.2812ZM28.4286 20.1641H28.3895C28.415 19.8781 28.4286 19.5912 28.4286 19.3047V16.7266C29.3738 16.7266 30.1429 17.4976 30.1429 18.4453C30.1429 19.393 29.3738 20.1641 28.4286 20.1641ZM14.7143 5.13695V8.99219C14.7143 9.46682 15.098 9.85156 15.5714 9.85156C16.0448 9.85156 16.4286 9.46682 16.4286 8.99219V4.01323C16.4286 4.01099 16.4286 4.00876 16.4286 4.00652V3.83594C16.4286 3.30347 16.8772 2.71875 17.2857 2.71875H20.7143C21.1228 2.71875 21.5714 3.30347 21.5714 3.83594V4.00652C21.5714 4.00876 21.5714 4.01099 21.5714 4.01323V8.99219C21.5714 9.46682 21.9552 9.85156 22.4286 9.85156C22.902 9.85156 23.2857 9.46682 23.2857 8.99219V5.13695C26.0534 6.11895 28.0514 8.63005 28.3807 11.5703H9.61934C9.94857 8.63005 11.9466 6.11895 14.7143 5.13695ZM9.57143 20.1641C8.62617 20.1641 7.85714 19.393 7.85714 18.4453C7.85714 17.4976 8.62617 16.7266 9.57143 16.7266V19.3047C9.57143 19.5912 9.58497 19.8782 9.61051 20.1641H9.57143ZM8.71429 15.0078C8.24166 15.0078 7.85714 14.6223 7.85714 14.1484C7.85714 13.9192 7.94637 13.7034 8.10837 13.541C8.27046 13.3785 8.4856 13.2891 8.71429 13.2891H29.2857C29.7583 13.2891 30.1429 13.6746 30.1429 14.1484C30.1429 14.3777 30.0536 14.5935 29.8916 14.7558C29.7296 14.9184 29.5144 15.0078 29.2857 15.0078H8.71429ZM11.4415 20.8673C11.4397 20.8579 11.4381 20.8486 11.4361 20.8394C11.3365 20.3351 11.2857 19.8189 11.2857 19.3047V16.7266H26.7143V19.3047C26.7143 19.8184 26.6635 20.3343 26.5639 20.8391C26.5619 20.8484 26.5603 20.8577 26.5585 20.8671C26.1755 22.7841 25.1154 24.5001 23.5717 25.7003C22.2306 26.7448 20.6497 27.2969 19 27.2969C17.3503 27.2969 15.7694 26.7448 14.4271 25.6994C14.1198 25.461 13.8273 25.1973 13.5575 24.9151C12.4762 23.7857 11.7449 22.3866 11.4415 20.8673ZM18.1429 43.2812H11.2857V41.3047C11.2857 40.8301 10.902 40.4453 10.4286 40.4453C9.95517 40.4453 9.57143 40.8301 9.57143 41.3047V43.2812H7.85714V31.2048C8.41343 30.9945 8.98651 30.8543 9.57143 30.7853V36.1484C9.57143 36.6231 9.95517 37.0078 10.4286 37.0078C10.902 37.0078 11.2857 36.6231 11.2857 36.1484V30.7344H13.4899L18.1429 35.6328V43.2812ZM14.7143 29.5312V27.9306C16.0369 28.6434 17.4937 29.0156 19 29.0156C20.5063 29.0156 21.9632 28.6433 23.2857 27.9307V29.5312L19 34.043L14.7143 29.5312ZM30.1429 43.2812H28.4286V41.3047C28.4286 40.8301 28.0448 40.4453 27.5714 40.4453C27.098 40.4453 26.7143 40.8301 26.7143 41.3047V43.2812H19.8571V35.6328L24.5101 30.7344H26.7143V36.1484C26.7143 36.6231 27.098 37.0078 27.5714 37.0078C28.0448 37.0078 28.4286 36.6231 28.4286 36.1484V30.7853C29.0135 30.8543 29.5865 30.9946 30.1429 31.2049V43.2812ZM35.2857 43.2812H31.8571V32.1198C33.9501 33.6071 35.2857 36.1125 35.2857 38.7266V43.2812Z" stroke="white" stroke-width="0.6" mask="url(#path-1-outside-1_152_314)"/>
</svg>
