<svg width="68" height="72" viewBox="0 0 68 72" fill="none" xmlns="http://www.w3.org/2000/svg">
<path d="M65.875 42.3281H63.75V36.1406C63.75 33.3906 61.9736 31.0445 59.5 30.1739V23.4844C59.5 19.995 56.6402 17.1562 53.125 17.1562H8.5C3.8131 17.1562 0 20.9413 0 25.5938V63.5625C0 68.2149 3.8131 72 8.5 72H57.375C60.8902 72 63.75 69.1612 63.75 65.6719V59.2031H65.875C67.0486 59.2031 68 58.2587 68 57.0938V44.4375C68 43.2726 67.0486 42.3281 65.875 42.3281ZM8.5 21.375H53.125C54.2967 21.375 55.25 22.3213 55.25 23.4844V29.8125H8.5C6.15655 29.8125 4.25 27.92 4.25 25.5938C4.25 23.2675 6.15655 21.375 8.5 21.375ZM59.5 65.6719C59.5 66.835 58.5467 67.7812 57.375 67.7812H8.5C6.15655 67.7812 4.25 65.8887 4.25 63.5625V32.8961C5.50134 33.6165 6.95229 34.0312 8.5 34.0312H57.375C58.5467 34.0312 59.5 34.9775 59.5 36.1406V42.3281H51C50.4363 42.3281 49.8959 42.5505 49.4975 42.946L43.1225 49.2742C42.2926 50.0979 42.2926 51.4335 43.1225 52.2572L49.4975 58.5854C49.8959 58.9808 50.4363 59.2031 51 59.2031H59.5V65.6719ZM63.75 54.9844H51.8802L47.6302 50.7656L51.8802 46.5469H63.75V54.9844Z" fill="black"/>
<path d="M31.875 8.85938C33.0486 8.85938 34 7.91494 34 6.75V2.10938C34 0.944437 33.0486 0 31.875 0C30.7014 0 29.75 0.944437 29.75 2.10938V6.75C29.75 7.91494 30.7014 8.85938 31.875 8.85938Z" fill="black"/>
<path d="M17.3562 9.61677L20.9374 12.5997C21.8422 13.3533 23.1816 13.2263 23.9311 12.3397C24.6855 11.4473 24.5683 10.1168 23.6692 9.368L20.088 6.38507C19.1887 5.6361 17.8485 5.75268 17.0943 6.64508C16.3399 7.53735 16.4571 8.86794 17.3562 9.61677Z" fill="black"/>
<path d="M42.8123 12.5997L46.3935 9.61673C47.2927 8.8679 47.4099 7.53731 46.6555 6.64505C45.9012 5.75264 44.5606 5.6362 43.6618 6.38503L40.0806 9.36797C39.1814 10.1168 39.0643 11.4474 39.8186 12.3397C40.5707 13.2294 41.9108 13.3506 42.8123 12.5997Z" fill="black"/>
<path d="M23.375 50.7656H10.625C9.45143 50.7656 8.5 51.7101 8.5 52.875V61.3125C8.5 62.4774 9.45143 63.4219 10.625 63.4219H23.375C24.5486 63.4219 25.5 62.4774 25.5 61.3125V52.875C25.5 51.7101 24.5486 50.7656 23.375 50.7656ZM21.25 59.2031H12.75V54.9844H21.25V59.2031Z" fill="black"/>
</svg>
