<svg width="61" height="61" viewBox="0 0 61 61" fill="none" xmlns="http://www.w3.org/2000/svg">
<path d="M58.1367 0C56.9537 0 5.14971 0 2.36328 0C1.05804 0 0 1.05804 0 2.36328V58.1367C0 59.442 1.05804 60.5 2.36328 60.5H58.1367C59.442 60.5 60.5 59.442 60.5 58.1367C60.5 56.5999 60.5 4.78777 60.5 2.36328C60.5 1.05804 59.442 0 58.1367 0ZM4.72656 4.72656H18.5911V18.5911H4.72656V4.72656ZM18.5911 55.7734H4.72656V41.9089H18.5911V55.7734ZM4.72656 37.1823V23.3177H37.1823V37.1823C35.4422 37.1823 6.49217 37.1823 4.72656 37.1823ZM55.7734 55.7734H23.3177V41.9089H55.7734V55.7734ZM55.7734 37.1823H41.9089V23.3177H55.7734V37.1823ZM55.7734 18.5911C54.0335 18.5911 25.0834 18.5911 23.3177 18.5911V4.72656H55.7734V18.5911Z" fill="white"/>
</svg>
