<svg width="43" height="39" viewBox="0 0 43 39" fill="none" xmlns="http://www.w3.org/2000/svg">
<path d="M5.00412 38.4806C5.35406 38.8273 5.81204 39 6.27046 39C6.72932 39 7.1873 38.8273 7.53724 38.4806L28.2186 18.0181L32.7752 22.5261C33.1252 22.8728 33.5832 23.0455 34.0416 23.0455C34.5004 23.0455 34.9584 22.8728 35.3083 22.5261L42.4751 15.4352C43.175 14.7432 43.175 13.6209 42.4751 12.9289L29.9342 0.520652C29.8511 0.437123 29.7588 0.363548 29.6595 0.298196C29.617 0.269631 29.5707 0.251021 29.5269 0.226352C29.4683 0.194325 29.4128 0.159701 29.3511 0.135032C29.2929 0.110795 29.2321 0.0978116 29.1722 0.080067C29.1201 0.0649192 29.0707 0.0454434 29.0169 0.0346236C28.9014 0.012551 28.7842 0 28.6665 0H21.4998C21.3826 0 21.2653 0.012551 21.149 0.0346236C21.0952 0.0454434 21.0457 0.0649192 20.9937 0.080067C20.9338 0.0978116 20.873 0.110795 20.8148 0.135032C20.7527 0.159701 20.6971 0.194325 20.6389 0.226352C20.5952 0.250155 20.5488 0.269631 20.5064 0.298196C20.408 0.363548 20.3157 0.437123 20.2317 0.520652L16.6492 4.06524C15.9493 4.75728 15.9493 5.87952 16.6492 6.57156L21.2054 11.0795L17.0971 15.1448C16.3972 15.8368 16.3972 16.9591 17.0971 17.6511C17.4471 17.9978 17.905 18.1705 18.3635 18.1705C18.8223 18.1705 19.2803 17.9978 19.6302 17.6511L23.7385 13.5863L25.6846 15.5114L6.27046 34.7201L4.3248 32.7955L14.704 22.5261C15.4039 21.8341 15.4039 20.7118 14.704 20.0198C14.0045 19.3273 12.8703 19.3273 12.1709 20.0198L0.524908 31.5425C-0.174969 32.2346 -0.174969 33.3568 0.524908 34.0488L5.00412 38.4806ZM22.2416 3.54545H27.9251L38.6752 14.1818L34.0416 18.7655L20.45 5.31818L22.2416 3.54545Z" fill="#57AB27"/>
</svg>
