<svg width="78" height="85" viewBox="0 0 78 85" fill="none" xmlns="http://www.w3.org/2000/svg">
<g filter="url(#filter0_d_52_271)">
<path d="M55.9706 17.1245C51.4376 12.5302 45.4107 10 39 10C32.5893 10 26.5624 12.5302 22.0295 17.1245C17.4964 21.719 15 27.8274 15 34.3249C15 45.7876 22.9066 55.6837 33.8907 58.0953L39 65L44.1095 58.0952C55.0934 55.6836 63 45.7876 63 34.3249C63 27.8274 60.5036 21.719 55.9706 17.1245Z" fill="#57AB27"/>
<path d="M38.2795 30.1852C37.8957 29.8014 37.279 29.7957 36.9022 30.1726L34.1726 32.9021C33.7958 33.279 33.8014 33.8956 34.1853 34.2795L39.7454 39.8396C40.1293 40.2235 40.7459 40.2291 41.1228 39.8523L43.8523 37.1227C44.2292 36.7459 44.2236 36.1292 43.8397 35.7454L38.2795 30.1852Z" fill="white"/>
<path d="M43.8144 32.9905L49.2356 38.4117C49.6194 38.7955 50.2361 38.8012 50.613 38.4243L53.3425 35.6948C53.7194 35.3179 53.7137 34.7013 53.3299 34.3174L47.9087 28.8963C47.5249 28.5124 46.9082 28.5068 46.5313 28.8836L43.8018 31.6132C43.4249 31.99 43.4306 32.6067 43.8144 32.9905Z" fill="white"/>
<path d="M35.6132 24.7893L41.0344 30.2105C41.4182 30.5943 42.0349 30.6 42.4118 30.2231L45.1413 27.4936C45.5181 27.1167 45.5125 26.5 45.1286 26.1162L39.7075 20.695C39.3236 20.3112 38.7069 20.3055 38.3301 20.6824L35.6005 23.4119C35.2236 23.7887 35.2293 24.4054 35.6132 24.7893Z" fill="white"/>
<path d="M42.4117 45.2355L36.9906 39.8144C36.6067 39.4306 35.9901 39.4249 35.6132 39.8018L32.8837 42.5313C32.5068 42.9082 32.5124 43.5248 32.8963 43.9087L38.3174 49.3298C38.7013 49.7137 39.318 49.7193 39.6948 49.3425L42.4244 46.6129C42.8012 46.2361 42.7955 45.6194 42.4117 45.2355Z" fill="white"/>
<path d="M34.2105 37.0343L28.7893 31.6132C28.4055 31.2293 27.7888 31.2237 27.4119 31.6005L24.6824 34.33C24.3055 34.7069 24.3112 35.3236 24.695 35.7074L30.1162 41.1286C30.5001 41.5125 31.1167 41.5181 31.4936 41.1412L34.2231 38.4117C34.6 38.0349 34.5943 37.4181 34.2105 37.0343Z" fill="white"/>
<path d="M46.6198 38.5254C46.2359 38.1416 45.6193 38.1359 45.2424 38.5128L42.5129 41.2423C42.136 41.6192 42.1416 42.2359 42.5255 42.6197L44.4715 44.5658L48.5658 40.4715L46.6198 38.5254Z" fill="white"/>
<path d="M32.7825 31.5121L35.5121 28.7825C35.8889 28.4057 35.8833 27.789 35.4994 27.4052L33.5534 25.4591L29.4591 29.5534L31.4051 31.4994C31.789 31.8833 32.4057 31.8889 32.7825 31.5121Z" fill="white"/>
</g>
<defs>
<filter id="filter0_d_52_271" x="0" y="0" width="78" height="85" filterUnits="userSpaceOnUse" color-interpolation-filters="sRGB">
<feFlood flood-opacity="0" result="BackgroundImageFix"/>
<feColorMatrix in="SourceAlpha" type="matrix" values="0 0 0 0 0 0 0 0 0 0 0 0 0 0 0 0 0 0 127 0" result="hardAlpha"/>
<feOffset dy="5"/>
<feGaussianBlur stdDeviation="7.5"/>
<feColorMatrix type="matrix" values="0 0 0 0 0.0993056 0 0 0 0 0.101292 0 0 0 0 0.108333 0 0 0 0.14 0"/>
<feBlend mode="normal" in2="BackgroundImageFix" result="effect1_dropShadow_52_271"/>
<feBlend mode="normal" in="SourceGraphic" in2="effect1_dropShadow_52_271" result="shape"/>
</filter>
</defs>
</svg>
