<svg width="14" height="20" viewBox="0 0 14 20" fill="none" xmlns="http://www.w3.org/2000/svg">
<path d="M12.8177 0H1.18231C0.529318 0 0 0.524648 0 1.17188V18.8281C0 19.4754 0.529318 20 1.18231 20H12.8177C13.4707 20 14 19.4754 14 18.8281V1.17188C14 0.524648 13.4707 0 12.8177 0ZM2.01059 2.73297C2.01059 2.62512 2.09883 2.53766 2.20764 2.53766H11.7924C11.9012 2.53766 11.9894 2.62512 11.9894 2.73297V4.84074C11.9894 4.94863 11.9012 5.03609 11.7924 5.03609H2.20764C2.09883 5.03609 2.01059 4.94863 2.01059 4.84078V2.73297ZM4.16956 17.6886C4.16956 17.7964 4.08132 17.8839 3.97251 17.8839H2.20764C2.09883 17.8839 2.01059 17.7964 2.01059 17.6886V15.9393C2.01059 15.8314 2.09883 15.744 2.20764 15.744H3.97251C4.08132 15.744 4.16956 15.8314 4.16956 15.9393V17.6886ZM4.16956 13.8826C4.16956 13.9905 4.08132 14.0779 3.97251 14.0779H2.20764C2.09883 14.0779 2.01059 13.9905 2.01059 13.8826V12.1333C2.01059 12.0255 2.09883 11.938 2.20764 11.938H3.97251C4.08132 11.938 4.16956 12.0255 4.16956 12.1333V13.8826ZM4.16956 10.0766C4.16956 10.1845 4.08132 10.272 3.97251 10.272H2.20764C2.09883 10.272 2.01059 10.1845 2.01059 10.0766V8.32734C2.01059 8.21949 2.09883 8.13203 2.20764 8.13203H3.97251C4.08132 8.13203 4.16956 8.21949 4.16956 8.32734V10.0766ZM8.07948 17.6886C8.07948 17.7964 7.99125 17.8839 7.88243 17.8839H6.11757C6.00875 17.8839 5.92052 17.7964 5.92052 17.6886V15.9393C5.92052 15.8314 6.00875 15.744 6.11757 15.744H7.88243C7.99125 15.744 8.07948 15.8314 8.07948 15.9393V17.6886ZM8.07948 13.8826C8.07948 13.9905 7.99125 14.0779 7.88243 14.0779H6.11757C6.00875 14.0779 5.92052 13.9905 5.92052 13.8826V12.1333C5.92052 12.0255 6.00875 11.938 6.11757 11.938H7.88243C7.99125 11.938 8.07948 12.0255 8.07948 12.1333V13.8826ZM8.07948 10.0766C8.07948 10.1845 7.99125 10.272 7.88243 10.272H6.11757C6.00875 10.272 5.92052 10.1845 5.92052 10.0766V8.32734C5.92052 8.21949 6.00875 8.13203 6.11757 8.13203H7.88243C7.99125 8.13203 8.07948 8.21949 8.07948 8.32734V10.0766ZM11.9894 17.6886C11.9894 17.7964 11.9012 17.8839 11.7924 17.8839H10.0275C9.91868 17.8839 9.83044 17.7964 9.83044 17.6886V15.9393C9.83044 15.8314 9.91868 15.744 10.0275 15.744H11.7924C11.9012 15.744 11.9894 15.8314 11.9894 15.9393V17.6886ZM11.9894 13.8826C11.9894 13.9905 11.9012 14.0779 11.7924 14.0779H10.0275C9.91868 14.0779 9.83044 13.9905 9.83044 13.8826V12.1333C9.83044 12.0255 9.91868 11.938 10.0275 11.938H11.7924C11.9012 11.938 11.9894 12.0255 11.9894 12.1333V13.8826ZM11.9894 10.0766C11.9894 10.1845 11.9012 10.272 11.7924 10.272H10.0275C9.91868 10.272 9.83044 10.1845 9.83044 10.0766V8.32734C9.83044 8.21949 9.91868 8.13203 10.0275 8.13203H11.7924C11.9012 8.13203 11.9894 8.21949 11.9894 8.32734V10.0766Z" fill="#57AB27"/>
</svg>
