<svg width="16" height="16" viewBox="0 0 16 16" fill="none" xmlns="http://www.w3.org/2000/svg">
<path d="M15.1626 10.9208L13.5529 9.60156C12.5041 8.74212 10.8762 8.82345 9.91952 9.78044L9.85562 9.84437C9.6952 10.0048 9.43389 10.0036 9.27573 9.84532L6.1656 6.73415C6.00859 6.57709 6.00549 6.32446 6.15679 6.16406C6.15955 6.16115 6.16234 6.15827 6.16518 6.1554L6.15663 6.16395C6.15947 6.16111 6.1623 6.15824 6.16514 6.1554C7.11656 5.19453 7.2076 3.55856 6.37417 2.50451L5.0686 0.853385C4.22942 -0.207946 2.77093 -0.289929 1.81434 0.666987L1.57453 0.906877C-0.124568 2.60655 -0.524954 5.66998 0.749533 7.70679C0.749533 7.70679 1.49978 9.4473 4.03166 11.98C6.56353 14.5128 8.30346 15.2633 8.30346 15.2633C10.3586 16.5071 13.4009 16.1387 15.0997 14.4394L15.328 14.2109C16.2854 13.2533 16.2106 11.7797 15.1626 10.9208ZM14.1715 13.054L13.9431 13.2825C12.7769 14.4491 10.5614 14.7176 9.15007 13.8634L9.05405 13.8053L8.95101 13.7609C8.82451 13.7063 8.50742 13.5343 8.02804 13.2127C7.17663 12.6414 6.22053 11.8559 5.18812 10.8232C4.1557 9.79041 3.37046 8.83399 2.79941 7.9823C2.47788 7.50275 2.30592 7.18555 2.25141 7.05901L2.20204 6.94448L2.13587 6.83876C1.2778 5.46744 1.55444 3.24078 2.73103 2.0638L2.97084 1.82391C3.23675 1.55791 3.55468 1.57601 3.78591 1.86843L5.09148 3.51956C5.4134 3.92667 5.37173 4.63545 5.00021 5.00714C4.20987 5.80699 4.21378 7.09552 5.00914 7.89111L8.11927 11.0023C8.91655 11.7998 10.2135 11.8003 11.0122 11.0013L11.0761 10.9374C11.4387 10.5747 12.1184 10.5411 12.5164 10.8672L14.1261 12.1865C14.4266 12.4327 14.4442 12.7813 14.1715 13.054Z" fill="white"/>
</svg>
