<svg width="43" height="43" viewBox="0 0 43 43" fill="none" xmlns="http://www.w3.org/2000/svg">
<path d="M35.9956 7.00433C32.1237 3.13232 26.9757 1 21.5 1C16.0243 1 10.8763 3.13232 7.00433 7.00433C3.13232 10.8763 1 16.0243 1 21.5C1 26.9757 3.13232 32.1237 7.00433 35.9957C10.8763 39.8677 16.0243 42 21.5 42C26.9757 42 32.1237 39.8677 35.9956 35.9957C39.8677 32.1237 42 26.9757 42 21.5C42 16.0243 39.8677 10.8763 35.9956 7.00433ZM39.5882 21.5C39.5882 26.054 37.896 30.2196 35.1081 33.4029L28.7421 27.0369C29.6279 26.0202 30.3825 24.9156 30.9983 23.744L32.9236 24.9369L34.1939 22.8868L31.9745 21.5115C32.3427 20.471 32.6105 19.3928 32.7723 18.2883L34.9863 19.0264L35.749 16.7384L32.9553 15.8071C32.9553 12.9401 30.9577 10.7184 28.4528 10.1749L28.1264 6.90947L25.7265 7.14936L26.029 10.1744C24.8168 10.4371 23.7473 11.085 22.9546 11.9836L20.1809 10.751L19.2014 12.9549L21.7716 14.097C21.6112 14.6235 21.5241 15.1817 21.5241 15.76C21.5241 16.9137 21.1821 17.9885 20.596 18.8906L9.59714 7.89186C12.7804 5.10402 16.946 3.41176 21.5 3.41176C31.4739 3.41176 39.5882 11.5261 39.5882 21.5ZM15.76 30.5441C13.9382 30.5441 12.4559 29.0618 12.4559 27.2399C12.4559 25.4181 13.9381 23.9358 15.76 23.9358C17.5801 23.9358 19.2629 23.3378 20.6229 22.3282L25.3211 27.0264C22.7415 29.219 19.4028 30.5441 15.76 30.5441ZM22.3283 20.6229C23.3378 19.2629 23.9359 17.58 23.9359 15.76C23.9359 13.9382 25.4182 12.4559 27.2401 12.4559C29.0619 12.4559 30.5442 13.9382 30.5442 15.7601C30.5442 19.4028 29.2191 22.7416 27.0266 25.3212L22.3283 20.6229ZM3.41176 21.5C3.41176 16.9461 5.10402 12.7804 7.89178 9.59714L18.8906 20.5959C17.9884 21.1821 16.9136 21.5241 15.76 21.5241C15.4681 21.5241 15.1813 21.5463 14.901 21.5888L13.4282 19.581L11.4836 21.0074L12.5754 22.496C11.6294 23.1331 10.8848 24.0459 10.4544 25.1177H7.63235V27.5295H10.0515C10.2027 30.5473 12.7053 32.956 15.7601 32.956C16.4752 32.956 17.1836 32.9126 17.8824 32.8271V35.9706H20.2941V32.3544C21.1297 32.1275 21.9451 31.8384 22.7342 31.4882L24.0391 34.0982L26.1962 33.0196L24.8638 30.3549C25.624 29.8786 26.3505 29.3404 27.0368 28.7423L33.4029 35.1082C30.2196 37.896 26.0539 39.5882 21.5 39.5882C11.5261 39.5882 3.41176 31.4739 3.41176 21.5Z" fill="white" stroke="white" stroke-width="0.7"/>
</svg>
