<svg width="24" height="41" viewBox="0 0 24 41" fill="none" xmlns="http://www.w3.org/2000/svg">
<path d="M19.8621 21.3542H17.3793C16.4657 21.3542 15.7241 22.1195 15.7241 23.0625C15.7241 24.0055 16.4657 24.7708 17.3793 24.7708H19.8621C20.7757 24.7708 21.5172 24.0055 21.5172 23.0625C21.5172 22.1195 20.7757 21.3542 19.8621 21.3542Z" fill="white"/>
<path d="M22.3448 15.375H17.3793C16.4657 15.375 15.7241 16.1403 15.7241 17.0833C15.7241 18.0263 16.4657 18.7917 17.3793 18.7917H22.3448C23.2585 18.7917 24 18.0263 24 17.0833C24 16.1403 23.2585 15.375 22.3448 15.375Z" fill="white"/>
<path d="M19.8621 9.39583H17.3793C16.4657 9.39583 15.7241 10.1612 15.7241 11.1042C15.7241 12.0472 16.4657 12.8125 17.3793 12.8125H19.8621C20.7757 12.8125 21.5172 12.0472 21.5172 11.1042C21.5172 10.1612 20.7757 9.39583 19.8621 9.39583Z" fill="white"/>
<path d="M22.3448 3.41667H17.3793C16.4657 3.41667 15.7241 4.182 15.7241 5.125C15.7241 6.068 16.4657 6.83333 17.3793 6.83333H22.3448C23.2585 6.83333 24 6.068 24 5.125C24 4.182 23.2585 3.41667 22.3448 3.41667Z" fill="white"/>
<path d="M8.27586 29.8958C6.90703 29.8958 5.7931 31.0455 5.7931 32.4583C5.7931 33.8711 6.90703 35.0208 8.27586 35.0208C9.64469 35.0208 10.7586 33.8711 10.7586 32.4583C10.7586 31.0455 9.64469 29.8958 8.27586 29.8958Z" fill="white"/>
<path d="M13.2414 25.637V5.125C13.2414 3.76773 12.7283 2.48392 11.7799 1.49138C10.8348 0.529583 9.5909 0 8.27586 0C5.53738 0 3.31034 2.29856 3.31034 5.125V25.637C1.24966 27.2308 0 29.7575 0 32.4583C0 35.5069 1.58731 38.3393 4.12469 39.8409C5.37104 40.5994 6.80607 41 8.27586 41C9.74566 41 11.1807 40.5994 12.4097 39.8511C14.9644 38.3393 16.5517 35.5069 16.5517 32.4583C16.5517 29.7575 15.3021 27.2308 13.2414 25.637ZM10.7454 36.8974C9.27145 37.7943 7.29848 37.8054 5.78897 36.8863C4.25959 35.9826 3.31034 34.2854 3.31034 32.4583C3.31034 30.6313 4.25959 28.934 5.78897 28.0295C5.80635 28.0192 5.81959 28.0047 5.83614 27.9945C5.88579 27.9629 5.93131 27.927 5.97683 27.8903C6.01903 27.8569 6.06041 27.8236 6.09848 27.7869C6.13572 27.7502 6.16966 27.71 6.20359 27.6699C6.24083 27.6263 6.27724 27.5836 6.30952 27.5375C6.33931 27.4948 6.36414 27.4495 6.38979 27.4034C6.4171 27.3547 6.44524 27.306 6.46759 27.2548C6.4891 27.2061 6.50566 27.1548 6.52303 27.1036C6.54124 27.0498 6.55862 26.9968 6.57186 26.9413C6.58345 26.8917 6.59007 26.8405 6.59669 26.7901C6.60579 26.7277 6.61241 26.6662 6.6149 26.6039C6.61572 26.5851 6.62069 26.5671 6.62069 26.5475V5.125C6.62069 4.18285 7.36303 3.41667 8.27586 3.41667C8.71531 3.41667 9.13407 3.5969 9.43945 3.90696C9.75641 4.23923 9.93104 4.67144 9.93104 5.125V26.5475C9.93104 26.5671 9.936 26.5851 9.93683 26.6047C9.93931 26.6679 9.94593 26.7294 9.95503 26.7909C9.96248 26.8422 9.9691 26.8926 9.97986 26.9421C9.99228 26.9976 10.0105 27.0506 10.0287 27.1044C10.0461 27.1557 10.0626 27.2069 10.0841 27.2556C10.1065 27.3069 10.1346 27.3547 10.1619 27.4042C10.1876 27.4495 10.2124 27.4956 10.2422 27.5383C10.2745 27.5853 10.3117 27.628 10.3481 27.6707C10.3821 27.7109 10.416 27.751 10.4532 27.7878C10.4913 27.8245 10.5327 27.8578 10.5749 27.8911C10.6204 27.9278 10.6668 27.9637 10.7156 27.9953C10.7321 28.0064 10.7454 28.0201 10.7628 28.0303C12.2921 28.934 13.2414 30.6313 13.2414 32.4583C13.2414 34.2854 12.2921 35.9826 10.7454 36.8974Z" fill="white"/>
</svg>
