<svg width="41" height="41" viewBox="0 0 41 41" fill="none" xmlns="http://www.w3.org/2000/svg">
<path d="M20.5 0C9.19662 0 0 9.19662 0 20.5C0 31.8034 9.19662 41 20.5 41C31.8034 41 41 31.8034 41 20.5C41 9.19662 31.8034 0 20.5 0ZM37.7389 22.4276C37.3781 25.6799 36.1014 28.7555 34.0464 31.3215L33.8256 31.5965L32.3194 30.0902C32.0216 29.7925 31.6255 29.6285 31.2042 29.6285C30.7828 29.6285 30.3867 29.7925 30.089 30.0902C29.4746 30.7046 29.4746 31.705 30.089 32.3206L31.5952 33.8269L31.3202 34.0477C28.753 36.1014 25.6786 37.3781 22.4264 37.7402L22.0757 37.7793V35.6385C22.0757 34.7693 21.3679 34.0615 20.4987 34.0615C19.6295 34.0615 18.9218 34.7693 18.9218 35.6385V37.778L18.5711 37.7389C15.3189 37.3781 12.2432 36.1014 9.67726 34.0464L9.40225 33.8256L10.9085 32.3194C11.5229 31.705 11.5229 30.7046 10.9085 30.089C10.6108 29.7912 10.2147 29.6272 9.79332 29.6272C9.37197 29.6272 8.97585 29.7912 8.67812 30.089L7.17185 31.5952L6.95234 31.3202C4.89855 28.7542 3.62188 25.6786 3.25982 22.4264L3.22197 22.0769H5.36154C6.23074 22.0769 6.93846 21.3692 6.93846 20.5C6.93846 19.6308 6.23074 18.9231 5.36154 18.9231H3.22197L3.26108 18.5724C3.62188 15.3201 4.89855 12.2445 6.9536 9.67852L7.17311 9.40351L8.67938 10.9098C8.97711 11.2075 9.37323 11.3715 9.79458 11.3715C10.2159 11.3715 10.6121 11.2075 10.9098 10.9098C11.5242 10.2954 11.5242 9.29502 10.9098 8.67938L9.40351 7.17311L9.67852 6.9536C12.2445 4.89982 15.3201 3.62314 18.5724 3.26108L18.9231 3.22197V5.36154C18.9231 6.23074 19.6308 6.93846 20.5 6.93846C21.3692 6.93846 22.0769 6.23074 22.0769 5.36154V3.22197L22.4276 3.26108C25.6799 3.62188 28.7555 4.89855 31.3215 6.9536L31.5965 7.17311L30.0902 8.67938C29.7925 8.97711 29.6285 9.37323 29.6285 9.79458C29.6285 10.2159 29.7925 10.6121 30.0902 10.9098C30.3879 11.2075 30.7841 11.3715 31.2054 11.3715C31.6268 11.3715 32.0229 11.2075 32.3206 10.9098L33.8282 9.40351L34.0489 9.67852C36.1027 12.2445 37.3806 15.3201 37.7414 18.5724L37.7806 18.9231H35.6385C34.7693 18.9231 34.0615 19.6308 34.0615 20.5C34.0615 21.3692 34.7693 22.0769 35.6385 22.0769H37.778L37.7389 22.4276Z" fill="#57AB27"/>
<path d="M20.5 10.7231C19.6308 10.7231 18.9231 11.4308 18.9231 12.3V19.8465L13.5868 25.1828C13.289 25.4806 13.125 25.8767 13.125 26.298C13.125 26.7194 13.289 27.1155 13.5868 27.4132C13.8845 27.711 14.2806 27.875 14.702 27.875C15.1233 27.875 15.5194 27.711 15.8172 27.4132L21.6152 21.6152C21.9129 21.3175 22.0769 20.9214 22.0769 20.5V12.3C22.0769 11.4308 21.3692 10.7231 20.5 10.7231Z" fill="#57AB27"/>
</svg>
