<svg width="15" height="16" viewBox="0 0 15 16" fill="none" xmlns="http://www.w3.org/2000/svg">
<path d="M14.2149 10.9208L12.7058 9.60156C11.7226 8.74212 10.1965 8.82345 9.29955 9.78044L9.23965 9.84437C9.08925 10.0048 8.84427 10.0036 8.69599 9.84532L5.78025 6.73415C5.63305 6.57709 5.63014 6.32446 5.77199 6.16406C5.77457 6.16115 5.7772 6.15827 5.77986 6.1554L5.77184 6.16395C5.7745 6.16111 5.77716 6.15824 5.77982 6.1554C6.67177 5.19453 6.75713 3.55856 5.97578 2.50451L4.75181 0.853385C3.96508 -0.207946 2.59775 -0.289929 1.70094 0.666987L1.47612 0.906877C-0.116783 2.60655 -0.492144 5.66998 0.702687 7.70679C0.702687 7.70679 1.40604 9.4473 3.77968 11.98C6.15331 14.5128 7.78449 15.2633 7.78449 15.2633C9.71118 16.5071 12.5634 16.1387 14.1559 14.4394L14.37 14.2109C15.2675 13.2533 15.1974 11.7797 14.2149 10.9208ZM13.2858 13.054L13.0717 13.2825C11.9783 14.4491 9.90132 14.7176 8.57819 13.8634L8.48817 13.8053L8.39157 13.7609C8.27298 13.7063 7.97571 13.5343 7.52628 13.2127C6.72809 12.6414 5.83175 11.8559 4.86386 10.8232C3.89597 9.79041 3.1598 8.83399 2.62445 7.9823C2.32301 7.50275 2.1618 7.18555 2.1107 7.05901L2.06441 6.94448L2.00238 6.83876C1.19793 5.46744 1.45729 3.24078 2.56034 2.0638L2.78516 1.82391C3.03445 1.55791 3.33252 1.57601 3.54929 1.86843L4.77326 3.51956C5.07506 3.92667 5.036 4.63545 4.6877 5.00714C3.94675 5.80699 3.95042 7.09552 4.69607 7.89111L7.61181 11.0023C8.35927 11.7998 9.57512 11.8003 10.3239 11.0013L10.3838 10.9374C10.7238 10.5747 11.361 10.5411 11.7341 10.8672L13.2432 12.1865C13.525 12.4327 13.5415 12.7813 13.2858 13.054Z" fill="#57AB27"/>
</svg>
