<svg width="43" height="41" viewBox="0 0 43 41" fill="none" xmlns="http://www.w3.org/2000/svg">
<path d="M40.6966 14.3359C40.1292 12.6066 40.3711 10.0108 38.8964 8.00651C37.41 5.98644 34.8249 5.41227 33.3651 4.36148C31.9208 3.32177 30.577 1.05925 28.1474 0.278927C25.7864 -0.479408 23.372 0.549642 21.5 0.549642C19.6282 0.549642 17.214 -0.479655 14.8526 0.278844C12.4234 1.059 11.0785 3.32202 9.63511 4.36123C8.17697 5.41078 5.58992 5.98652 4.10381 8.00626C2.63031 10.0089 2.86975 12.6107 2.30336 14.3358C1.76434 15.9777 0 17.9483 0 20.5002C0 23.0537 1.76233 25.0166 2.30336 26.6645C2.87075 28.3937 2.62888 30.9896 4.10364 32.9938C5.58992 35.014 8.17496 35.5881 9.63486 36.639C11.079 37.6785 12.423 39.9412 14.8526 40.7214C17.212 41.4793 19.6302 40.4507 21.5 40.4507C23.3672 40.4507 25.791 41.4782 28.1474 40.7215C30.5767 39.9414 31.9207 37.6788 33.3649 36.6391C34.823 35.5896 37.4101 35.0138 38.8962 32.9941C40.3698 30.9914 40.1302 28.3899 40.6966 26.6646C41.2357 25.0226 43 23.052 43 20.5002C43 17.9469 41.2381 15.9845 40.6966 14.3359ZM37.5001 25.6478C36.8387 27.6627 37.012 29.9176 36.1755 31.0545C35.3278 32.2066 33.1006 32.7328 31.382 33.9701C29.6823 35.1935 28.4909 37.133 27.1054 37.578C25.7945 37.9991 23.6583 37.1441 21.5001 37.1441C19.3261 37.1441 17.2118 38.0009 15.8947 37.578C14.5093 37.133 13.3197 35.1949 11.6181 33.97C9.90965 32.7402 7.66979 32.2032 6.82449 31.0544C5.99069 29.9212 6.1574 27.6507 5.50005 25.6479C4.85572 23.6856 3.35938 21.9865 3.35938 20.5002C3.35938 19.0124 4.85438 17.3191 5.49988 15.3525C6.16126 13.3377 5.988 11.0827 6.82449 9.94583C7.67172 8.79452 9.90058 8.26656 11.6181 7.03028C13.3232 5.80285 14.507 3.86799 15.8945 3.42237C17.2043 3.00179 19.3475 3.85626 21.4999 3.85626C23.6779 3.85626 25.7868 2.99889 27.1053 3.42237C28.4905 3.86725 29.6812 5.80615 31.382 7.03037C33.0902 8.26012 35.3302 8.79717 36.1755 9.94591C37.0095 11.0793 36.8418 13.3475 37.4999 15.3524V15.3524C38.1443 17.3147 39.6406 19.0138 39.6406 20.5002C39.6406 21.988 38.1456 23.6812 37.5001 25.6478ZM29.2386 15.1937C29.8946 15.8394 29.8946 16.8861 29.2386 17.5317L20.8312 25.8066C20.1752 26.4523 19.1117 26.4522 18.4557 25.8066L13.7615 21.1863C13.1055 20.5407 13.1054 19.4939 13.7614 18.8484C14.4174 18.2028 15.4811 18.2027 16.1368 18.8484L19.6434 22.2996L26.863 15.1938C27.519 14.5482 28.5826 14.5482 29.2386 15.1937Z" fill="#57AB27"/>
</svg>
