<svg width="19" height="18" viewBox="0 0 19 18" fill="none" xmlns="http://www.w3.org/2000/svg">
<path d="M18.6851 6.87447C18.5617 6.49662 18.2253 6.2291 17.8288 6.19337L12.4208 5.70432L10.2835 0.720191C10.1257 0.354012 9.76669 0.117676 9.36705 0.117676C8.96742 0.117676 8.60823 0.354012 8.45143 0.720191L6.31417 5.70432L0.905342 6.19337C0.508849 6.22982 0.173102 6.49733 0.049037 6.87447C-0.0743133 7.25233 0.0396035 7.66677 0.339475 7.92873L4.42747 11.4993L3.22213 16.7872C3.13394 17.176 3.28544 17.5781 3.60933 17.8113C3.78342 17.9373 3.98796 18.0002 4.19321 18.0002C4.36958 18.0002 4.5461 17.9535 4.70376 17.8596L9.36705 15.0822L14.0295 17.8596C14.3715 18.0631 14.8016 18.0445 15.1248 17.8113C15.4487 17.5781 15.6002 17.176 15.512 16.7872L14.3066 11.4993L18.3946 7.92873C18.6944 7.66677 18.8084 7.25318 18.6851 6.87447Z" fill="#57AB27"/>
</svg>
