<svg width="19" height="18" viewBox="0 0 19 18" fill="none" xmlns="http://www.w3.org/2000/svg">
<path d="M18.6851 6.87435C18.5617 6.4965 18.2253 6.22898 17.8288 6.19325L12.4208 5.7042L10.2835 0.720069C10.1257 0.35389 9.76669 0.117554 9.36705 0.117554C8.96742 0.117554 8.60823 0.35389 8.45143 0.720069L6.31417 5.7042L0.905342 6.19325C0.508849 6.22969 0.173102 6.49721 0.049037 6.87435C-0.0743133 7.2522 0.0396035 7.66665 0.339475 7.92861L4.42747 11.4991L3.22213 16.7871C3.13394 17.1759 3.28544 17.578 3.60933 17.8112C3.78342 17.9372 3.98796 18.0001 4.19321 18.0001C4.36958 18.0001 4.5461 17.9534 4.70376 17.8594L9.36705 15.0821L14.0295 17.8594C14.3715 18.063 14.8016 18.0444 15.1248 17.8112C15.4487 17.578 15.6002 17.1759 15.512 16.7871L14.3066 11.4991L18.3946 7.92861C18.6944 7.66665 18.8084 7.25306 18.6851 6.87435Z" fill="#818387"/>
</svg>
