<svg width="17" height="17" viewBox="0 0 17 17" fill="none" xmlns="http://www.w3.org/2000/svg">
<path d="M14.7047 7.1338C14.7257 4.73702 12.6294 2.5398 10.0318 2.23597C9.98009 2.23 9.92382 2.22092 9.86423 2.21131C9.73563 2.19056 9.60264 2.16924 9.46846 2.16924C8.93606 2.16924 8.79375 2.53341 8.75628 2.75061C8.71985 2.96179 8.7546 3.13913 8.8594 3.27793C9.03571 3.51139 9.34593 3.55283 9.59511 3.58604C9.66814 3.59586 9.73704 3.60499 9.79473 3.61761C12.1286 4.12544 12.9145 4.92386 13.2985 7.17725C13.3079 7.23232 13.3121 7.30016 13.3166 7.37212C13.3334 7.64148 13.3683 8.20189 13.987 8.20189H13.9871C14.0386 8.20189 14.0939 8.19756 14.1516 8.18901C14.7277 8.10375 14.7097 7.59148 14.701 7.34535C14.6985 7.27603 14.6962 7.21046 14.7022 7.16685C14.7039 7.15587 14.7047 7.14483 14.7047 7.1338Z" fill="#57AB27"/>
<path d="M9.31742 1.35619C9.38654 1.36105 9.45198 1.3657 9.50646 1.37383C13.3389 1.94776 15.1014 3.71597 15.5899 7.47718C15.5981 7.54111 15.5994 7.61909 15.6008 7.70166C15.6057 7.99552 15.6157 8.60683 16.2899 8.6195L16.3108 8.61971C16.5223 8.61971 16.6904 8.55763 16.8107 8.43504C17.0206 8.22127 17.006 7.90371 16.9941 7.6485C16.9913 7.58588 16.9885 7.52691 16.9892 7.47528C17.038 3.62854 13.6186 0.140329 9.67182 0.0106118C9.65545 0.0100838 9.63984 0.0109285 9.62406 0.0130931C9.61631 0.0142018 9.60194 0.0155745 9.57733 0.0155745C9.53796 0.0155745 9.48955 0.0122484 9.43821 0.00886954C9.37613 0.00475154 9.30576 0 9.23441 0C8.60589 0 8.4864 0.43503 8.47111 0.694358C8.43587 1.29369 9.03126 1.33587 9.31742 1.35619Z" fill="#57AB27"/>
<path d="M15.4049 12.3383C15.3234 12.2777 15.2392 12.215 15.1603 12.1531C14.7419 11.8252 14.2967 11.523 13.8662 11.2306C13.7768 11.17 13.6875 11.1094 13.5985 11.0485C13.047 10.6713 12.5512 10.488 12.0827 10.488C11.4518 10.488 10.9018 10.8275 10.4478 11.4969C10.2466 11.7936 10.0026 11.9379 9.70186 11.9379C9.52403 11.9379 9.32197 11.8885 9.10137 11.791C7.3213 11.0049 6.05021 9.79973 5.32334 8.20886C4.97197 7.43996 5.08588 6.93735 5.70426 6.5283C6.05542 6.29621 6.70904 5.86414 6.66274 5.03674C6.61032 4.09715 4.48137 1.27003 3.58437 0.948935C3.20459 0.812935 2.80556 0.811668 2.39623 0.945767C1.36505 1.28334 0.62506 1.87617 0.256068 2.66007C-0.100509 3.41752 -0.0844067 4.3069 0.302639 5.23208C1.42154 7.90698 2.99467 10.2391 4.97848 12.1637C6.92027 14.0476 9.3069 15.5908 12.072 16.7502C12.3212 16.8547 12.5827 16.9116 12.7736 16.9532C12.8386 16.9674 12.8948 16.9796 12.9357 16.9905C12.9582 16.9965 12.9814 16.9997 13.0047 16.9999L13.0265 17C13.0266 17 13.0265 17 13.0266 17C14.3272 17 15.8887 15.8427 16.3683 14.5234C16.7885 13.3681 16.0214 12.7971 15.4049 12.3383Z" fill="#57AB27"/>
<path d="M9.89264 4.41175C9.66998 4.41724 9.2066 4.42843 9.044 4.88801C8.96794 5.10278 8.97705 5.28925 9.07111 5.44225C9.20915 5.66674 9.47361 5.73553 9.71417 5.77328C10.5866 5.90959 11.0346 6.37936 11.1242 7.25153C11.1658 7.65821 11.4471 7.9422 11.8081 7.9422C11.8348 7.9422 11.8621 7.94066 11.8893 7.93744C12.3236 7.88713 12.5341 7.57643 12.5151 7.01406C12.522 6.42714 12.2066 5.76082 11.6701 5.23007C11.1318 4.69769 10.4829 4.39787 9.89264 4.41175Z" fill="#57AB27"/>
</svg>
